{"glyphs":{"0":{"ha":871,"x_min":90,"x_max":782,"o":"m 782 507 l 637 563 l 637 786 l 709 834 l 782 786 l 782 507 m 688 850 l 613 802 l 260 802 l 186 850 l 260 899 l 613 899 l 688 850 m 782 203 l 709 155 l 637 203 l 637 433 l 782 482 l 782 203 m 235 563 l 90 507 l 90 786 l 162 834 l 235 786 l 235 563 m 235 203 l 162 155 l 90 203 l 90 482 l 235 433 l 235 203 m 688 139 l 613 90 l 260 90 l 186 139 l 260 186 l 613 186 l 688 139 z "},"1":{"ha":997,"x_min":427,"x_max":572,"o":"m 572 507 l 427 563 l 427 802 l 572 899 l 572 507 m 572 90 l 427 186 l 427 433 l 572 482 l 572 90 z "},"2":{"ha":871,"x_min":90,"x_max":782,"o":"m 782 507 l 637 563 l 637 786 l 709 834 l 782 786 l 782 507 m 688 850 l 613 802 l 90 802 l 260 899 l 613 899 l 688 850 m 749 494 l 613 450 l 260 450 l 124 494 l 260 547 l 613 547 l 749 494 m 782 90 l 260 90 l 186 139 l 260 186 l 644 186 l 782 90 m 235 203 l 162 155 l 90 203 l 90 482 l 235 433 l 235 203 z "},"3":{"ha":876,"x_min":52,"x_max":713,"o":"m 713 507 l 568 563 l 568 786 l 641 834 l 713 786 l 713 507 m 619 850 l 545 802 l 192 802 l 52 899 l 545 899 l 619 850 m 713 203 l 641 155 l 568 203 l 568 433 l 713 482 l 713 203 m 681 494 l 545 450 l 192 450 l 56 494 l 192 547 l 545 547 l 681 494 m 619 139 l 545 90 l 52 90 l 192 186 l 545 186 l 619 139 z "},"4":{"ha":871,"x_min":90,"x_max":782,"o":"m 782 507 l 637 563 l 637 802 l 782 899 l 782 507 m 235 563 l 90 507 l 90 899 l 235 802 l 235 563 m 749 494 l 613 450 l 260 450 l 124 494 l 260 547 l 613 547 l 749 494 m 782 90 l 637 186 l 637 433 l 782 482 l 782 90 z "},"5":{"ha":871,"x_min":90,"x_max":782,"o":"m 751 899 l 613 802 l 260 802 l 186 850 l 260 899 l 751 899 m 782 203 l 709 155 l 637 203 l 637 433 l 782 482 l 782 203 m 749 494 l 613 450 l 260 450 l 124 494 l 260 547 l 613 547 l 749 494 m 235 563 l 90 507 l 90 786 l 162 834 l 235 786 l 235 563 m 688 139 l 613 90 l 90 90 l 230 186 l 613 186 l 688 139 z "},"6":{"ha":871,"x_min":90,"x_max":782,"o":"m 751 899 l 613 802 l 260 802 l 186 850 l 260 899 l 751 899 m 782 203 l 709 155 l 637 203 l 637 433 l 782 482 l 782 203 m 749 494 l 613 450 l 260 450 l 124 494 l 260 547 l 613 547 l 749 494 m 235 563 l 90 507 l 90 786 l 162 834 l 235 786 l 235 563 m 235 203 l 162 155 l 90 203 l 90 482 l 235 433 l 235 203 m 688 139 l 613 90 l 260 90 l 186 139 l 260 186 l 613 186 l 688 139 z "},"7":{"ha":876,"x_min":0,"x_max":668,"o":"m 668 507 l 523 563 l 523 786 l 668 884 l 668 507 m 645 899 l 498 802 l 145 802 l 0 899 l 645 899 m 668 90 l 523 186 l 523 433 l 668 482 l 668 90 z "},"8":{"ha":871,"x_min":90,"x_max":782,"o":"m 782 507 l 637 563 l 637 786 l 709 834 l 782 786 l 782 507 m 688 850 l 613 802 l 260 802 l 186 850 l 260 899 l 613 899 l 688 850 m 782 203 l 709 155 l 637 203 l 637 433 l 782 482 l 782 203 m 749 494 l 613 450 l 260 450 l 124 494 l 260 547 l 613 547 l 749 494 m 235 563 l 90 507 l 90 786 l 162 834 l 235 786 l 235 563 m 235 203 l 162 155 l 90 203 l 90 482 l 235 433 l 235 203 m 688 139 l 613 90 l 260 90 l 186 139 l 260 186 l 613 186 l 688 139 z "},"9":{"ha":871,"x_min":90,"x_max":782,"o":"m 782 507 l 637 555 l 637 786 l 709 834 l 782 786 l 782 507 m 688 850 l 613 802 l 260 802 l 186 850 l 260 899 l 613 899 l 688 850 m 782 203 l 709 155 l 637 203 l 637 426 l 782 482 l 782 203 m 749 494 l 613 450 l 260 450 l 124 494 l 260 547 l 613 547 l 749 494 m 235 555 l 90 507 l 90 786 l 162 834 l 235 786 l 235 555 m 688 139 l 613 90 l 121 90 l 260 186 l 613 186 l 688 139 z "}," ":{"ha":347,"x_min":0,"x_max":0,"o":""},"!":{"ha":319,"x_min":90,"x_max":235,"o":"m 235 328 l 90 401 l 90 802 l 235 899 l 235 328 m 235 90 l 90 90 l 90 264 l 235 264 l 235 90 z "},"\"":{"ha":522,"x_min":104,"x_max":420,"o":"m 420 899 l 386 646 l 279 646 l 313 899 l 420 899 m 244 899 l 211 646 l 104 646 l 138 899 l 244 899 z "},"#":{"ha":1023,"x_min":104,"x_max":920,"o":"m 920 642 l 903 591 l 710 591 l 650 397 l 843 397 l 826 347 l 633 347 l 556 107 l 481 107 l 556 347 l 374 347 l 298 107 l 222 107 l 298 347 l 104 347 l 121 397 l 315 397 l 376 591 l 181 591 l 197 642 l 393 642 l 467 882 l 543 882 l 468 642 l 650 642 l 725 882 l 802 882 l 727 642 l 920 642 m 633 591 l 452 591 l 391 397 l 573 397 l 633 591 z "},"$":{"ha":871,"x_min":90,"x_max":782,"o":"m 513 918 l 438 871 l 368 918 l 368 991 l 439 1040 l 513 995 l 513 918 m 712 899 l 655 802 l 262 802 l 193 852 l 262 899 l 357 899 l 439 844 l 526 899 l 712 899 m 782 203 l 709 155 l 637 203 l 637 433 l 782 482 l 782 203 m 749 494 l 613 450 l 260 450 l 124 494 l 260 547 l 613 547 l 749 494 m 235 563 l 90 507 l 90 786 l 162 834 l 235 786 l 235 563 m 689 140 l 618 90 l 530 90 l 439 142 l 357 90 l 102 90 l 260 186 l 616 186 l 689 140 m 513 -5 l 441 -45 l 367 1 l 367 77 l 439 116 l 513 76 l 513 -5 z "},"%":{"ha":1548,"x_min":45,"x_max":1506,"o":"m 1229 899 l 841 473 l 760 571 l 1058 899 l 1229 899 m 1506 206 l 1432 158 l 1360 206 l 1360 397 l 1429 446 l 1506 397 l 1506 206 m 1408 459 l 1333 406 l 1044 406 l 970 458 l 1044 505 l 1335 505 l 1408 459 m 581 848 l 508 802 l 218 802 l 146 848 l 218 899 l 510 899 l 581 848 m 679 597 l 604 547 l 534 595 l 534 787 l 604 836 l 679 788 l 679 597 m 1023 205 l 949 157 l 872 206 l 872 397 l 949 445 l 1023 397 l 1023 205 m 1408 140 l 1335 90 l 1043 90 l 970 140 l 1044 186 l 1333 186 l 1408 140 m 581 530 l 508 486 l 218 486 l 143 530 l 220 582 l 508 582 l 581 530 m 196 595 l 122 547 l 45 595 l 45 787 l 122 834 l 196 786 l 196 595 m 821 450 l 493 90 l 322 90 l 652 450 l 821 450 z "},"&":{"ha":976,"x_min":90,"x_max":1025,"o":"m 688 850 l 613 802 l 260 802 l 186 850 l 260 899 l 613 899 l 688 850 m 789 562 l 712 509 l 642 563 l 642 665 l 715 716 l 789 665 l 789 562 m 1025 494 l 903 450 l 812 450 l 739 493 l 816 547 l 884 547 l 1025 494 m 691 494 l 616 450 l 492 450 l 347 496 l 469 547 l 616 547 l 691 494 m 787 202 l 711 156 l 640 203 l 640 433 l 712 477 l 787 431 l 787 202 m 235 563 l 90 507 l 90 786 l 162 834 l 235 786 l 235 563 m 235 203 l 162 155 l 90 203 l 90 482 l 235 433 l 235 203 m 688 139 l 613 90 l 260 90 l 186 139 l 260 186 l 613 186 l 688 139 z "},"'":{"ha":347,"x_min":104,"x_max":244,"o":"m 244 899 l 211 646 l 104 646 l 138 899 l 244 899 z "},"(":{"ha":473,"x_min":90,"x_max":448,"o":"m 448 899 l 340 802 l 260 802 l 186 850 l 260 899 l 448 899 m 235 563 l 90 507 l 90 786 l 162 834 l 235 786 l 235 563 m 235 203 l 162 155 l 90 203 l 90 482 l 235 433 l 235 203 m 448 90 l 260 90 l 186 139 l 260 186 l 340 186 l 448 90 z "},")":{"ha":473,"x_min":29,"x_max":387,"o":"m 292 850 l 218 802 l 140 802 l 29 899 l 218 899 l 292 850 m 387 507 l 242 555 l 242 786 l 315 834 l 387 786 l 387 507 m 387 203 l 315 155 l 242 203 l 242 426 l 387 482 l 387 203 m 292 139 l 218 90 l 29 90 l 140 186 l 218 186 l 292 139 z "},"*":{"ha":691,"x_min":45,"x_max":650,"o":"m 423 745 l 349 709 l 275 747 l 275 894 l 349 931 l 423 892 l 423 745 m 650 587 l 575 557 l 366 635 l 366 692 l 436 720 l 638 645 l 650 587 m 328 636 l 130 557 l 45 581 l 56 643 l 262 723 l 328 690 l 328 636 z "},"+":{"ha":869,"x_min":87,"x_max":785,"o":"m 785 543 l 719 446 l 532 446 l 465 494 l 536 543 l 785 543 m 506 559 l 435 510 l 359 561 l 359 681 l 506 725 l 506 559 m 414 496 l 336 446 l 87 446 l 155 543 l 337 543 l 414 496 m 506 309 l 361 264 l 361 429 l 435 479 l 506 429 l 506 309 z "},",":{"ha":245,"x_min":-29,"x_max":200,"o":"m 200 264 l 121 -16 l -29 -16 l 51 264 l 200 264 z "},"-":{"ha":594,"x_min":45,"x_max":551,"o":"m 551 429 l 453 332 l 45 332 l 143 429 l 551 429 z "},".":{"ha":235,"x_min":45,"x_max":191,"o":"m 191 90 l 45 90 l 45 264 l 191 264 l 191 90 z "},"/":{"ha":994,"x_min":45,"x_max":952,"o":"m 952 899 l 564 473 l 481 571 l 780 899 l 952 899 m 542 450 l 216 90 l 45 90 l 373 450 l 542 450 z "},":":{"ha":248,"x_min":61,"x_max":206,"o":"m 206 450 l 61 450 l 61 616 l 206 616 l 206 450 m 206 90 l 61 90 l 61 264 l 206 264 l 206 90 z "},";":{"ha":245,"x_min":-29,"x_max":200,"o":"m 193 450 l 48 450 l 48 616 l 193 616 l 193 450 m 200 264 l 121 -16 l -29 -16 l 51 264 l 200 264 z "},"<":{"ha":916,"x_min":104,"x_max":814,"o":"m 814 227 l 104 494 l 814 762 l 814 682 l 303 494 l 814 307 l 814 227 z "},"=":{"ha":871,"x_min":90,"x_max":782,"o":"m 782 621 l 711 525 l 90 525 l 161 621 l 782 621 m 782 467 l 711 370 l 90 370 l 161 467 l 782 467 z "},">":{"ha":916,"x_min":104,"x_max":814,"o":"m 814 494 l 104 227 l 104 307 l 616 494 l 104 682 l 104 762 l 814 494 z "},"?":{"ha":730,"x_min":45,"x_max":643,"o":"m 547 850 l 473 802 l 119 802 l 45 850 l 119 899 l 473 899 l 547 850 m 643 507 l 496 563 l 496 786 l 568 834 l 643 786 l 643 507 m 609 496 l 473 450 l 370 450 l 223 547 l 473 547 l 609 496 m 339 317 l 194 317 l 194 532 l 339 438 l 339 317 m 339 90 l 193 90 l 193 264 l 339 264 l 339 90 z "},"@":{"ha":1350,"x_min":121,"x_max":1231,"o":"m 957 252 q 943 252 950 252 q 930 252 934 252 q 822 280 865 252 q 785 348 780 309 q 716 286 768 307 q 606 264 665 264 q 466 315 522 264 q 404 474 404 373 q 517 673 419 591 q 707 749 608 749 q 799 731 758 749 q 857 682 841 713 l 873 749 l 954 749 l 879 505 q 861 446 867 464 q 851 392 851 412 q 870 334 851 360 q 901 307 882 317 q 943 298 920 298 q 966 301 954 298 q 1087 378 1033 317 q 1157 568 1157 457 q 1037 782 1157 701 q 727 862 916 862 q 377 759 529 862 q 218 496 218 650 q 366 238 218 353 q 707 123 513 123 q 957 166 831 123 q 1157 276 1082 209 l 1194 241 q 971 116 1094 157 q 707 75 848 75 q 289 194 457 75 q 121 496 121 314 q 326 797 121 672 q 752 914 518 914 q 1097 817 964 914 q 1231 573 1231 720 q 1146 358 1231 455 q 957 252 1062 261 m 819 568 q 826 618 826 597 q 788 691 826 670 q 707 707 760 707 q 573 626 643 707 q 498 440 498 539 q 527 337 498 368 q 606 309 551 309 q 694 328 662 309 q 774 422 735 351 q 802 507 781 438 q 819 568 807 528 z "},"A":{"ha":871,"x_min":90,"x_max":782,"o":"m 782 507 l 637 563 l 637 786 l 782 884 l 782 507 m 758 899 l 613 802 l 260 802 l 114 899 l 758 899 m 235 563 l 90 507 l 90 884 l 235 786 l 235 563 m 749 494 l 613 450 l 260 450 l 124 494 l 260 547 l 613 547 l 749 494 m 782 90 l 637 186 l 637 433 l 782 482 l 782 90 m 235 186 l 90 90 l 90 482 l 235 433 l 235 186 z "},"B":{"ha":871,"x_min":90,"x_max":782,"o":"m 782 507 l 637 563 l 637 786 l 709 834 l 782 786 l 782 507 m 688 850 l 613 802 l 260 802 l 114 899 l 613 899 l 688 850 m 235 563 l 90 507 l 90 884 l 235 786 l 235 563 m 782 203 l 709 155 l 637 203 l 637 433 l 782 482 l 782 203 m 749 494 l 613 450 l 260 450 l 124 494 l 260 547 l 613 547 l 749 494 m 235 203 l 90 105 l 90 482 l 235 433 l 235 203 m 688 139 l 613 90 l 114 90 l 260 186 l 613 186 l 688 139 z "},"C":{"ha":772,"x_min":90,"x_max":758,"o":"m 758 899 l 613 802 l 260 802 l 186 850 l 260 899 l 758 899 m 235 555 l 90 507 l 90 786 l 162 834 l 235 786 l 235 555 m 758 90 l 260 90 l 186 139 l 260 186 l 613 186 l 758 90 m 235 203 l 162 155 l 90 203 l 90 482 l 235 426 l 235 203 z "},"D":{"ha":871,"x_min":90,"x_max":782,"o":"m 782 507 l 637 563 l 637 786 l 709 834 l 782 786 l 782 507 m 688 850 l 613 802 l 260 802 l 114 899 l 613 899 l 688 850 m 235 563 l 90 507 l 90 884 l 235 786 l 235 563 m 782 203 l 709 155 l 637 203 l 637 433 l 782 482 l 782 203 m 235 203 l 90 105 l 90 482 l 235 433 l 235 203 m 688 139 l 613 90 l 114 90 l 260 186 l 613 186 l 688 139 z "},"E":{"ha":772,"x_min":90,"x_max":758,"o":"m 758 899 l 613 802 l 260 802 l 114 899 l 758 899 m 235 563 l 90 507 l 90 884 l 235 786 l 235 563 m 749 494 l 613 450 l 260 450 l 124 494 l 260 547 l 613 547 l 749 494 m 758 90 l 114 90 l 260 186 l 613 186 l 758 90 m 235 203 l 90 105 l 90 482 l 235 433 l 235 203 z "},"F":{"ha":757,"x_min":90,"x_max":758,"o":"m 758 899 l 613 802 l 260 802 l 114 899 l 758 899 m 235 563 l 90 507 l 90 884 l 235 786 l 235 563 m 749 494 l 613 450 l 260 450 l 124 494 l 260 547 l 613 547 l 749 494 m 235 186 l 90 90 l 90 482 l 235 433 l 235 186 z "},"G":{"ha":871,"x_min":90,"x_max":782,"o":"m 751 899 l 613 802 l 260 802 l 186 850 l 260 899 l 751 899 m 749 494 l 613 450 l 478 450 l 341 494 l 478 547 l 613 547 l 749 494 m 782 203 l 709 155 l 637 203 l 637 433 l 782 482 l 782 203 m 235 563 l 90 507 l 90 786 l 162 834 l 235 786 l 235 563 m 235 203 l 162 155 l 90 203 l 90 482 l 235 433 l 235 203 m 688 139 l 613 90 l 260 90 l 186 139 l 260 186 l 613 186 l 688 139 z "},"H":{"ha":871,"x_min":90,"x_max":782,"o":"m 782 507 l 637 563 l 637 802 l 782 899 l 782 507 m 235 563 l 90 507 l 90 899 l 235 802 l 235 563 m 749 494 l 613 450 l 260 450 l 124 494 l 260 547 l 613 547 l 749 494 m 782 90 l 637 186 l 637 433 l 782 482 l 782 90 m 235 186 l 90 90 l 90 482 l 235 433 l 235 186 z "},"I":{"ha":319,"x_min":90,"x_max":235,"o":"m 235 507 l 90 563 l 90 802 l 235 899 l 235 507 m 235 90 l 90 186 l 90 433 l 235 482 l 235 90 z "},"J":{"ha":871,"x_min":90,"x_max":782,"o":"m 782 507 l 637 563 l 637 802 l 782 899 l 782 507 m 782 105 l 637 203 l 637 433 l 782 482 l 782 105 m 758 90 l 114 90 l 260 186 l 613 186 l 758 90 m 235 203 l 90 105 l 90 482 l 235 433 l 235 203 z "},"K":{"ha":871,"x_min":90,"x_max":782,"o":"m 782 833 l 368 566 l 266 566 l 266 636 l 675 899 l 782 899 l 782 833 m 235 563 l 90 507 l 90 899 l 235 802 l 235 563 m 749 494 l 613 450 l 260 450 l 124 494 l 260 547 l 613 547 l 749 494 m 782 90 l 637 186 l 637 433 l 782 482 l 782 90 m 235 186 l 90 90 l 90 482 l 235 433 l 235 186 z "},"L":{"ha":838,"x_min":90,"x_max":782,"o":"m 235 563 l 90 507 l 90 899 l 235 802 l 235 563 m 782 105 l 637 203 l 637 433 l 782 482 l 782 105 m 758 90 l 114 90 l 260 186 l 613 186 l 758 90 m 235 203 l 90 105 l 90 482 l 235 433 l 235 203 z "},"M":{"ha":1418,"x_min":90,"x_max":1329,"o":"m 1329 507 l 1183 563 l 1183 786 l 1329 882 l 1329 507 m 1305 899 l 1158 802 l 806 802 l 709 865 l 613 802 l 257 802 l 114 899 l 1305 899 m 782 537 l 709 500 l 637 537 l 637 788 l 709 838 l 782 786 l 782 537 m 1329 90 l 1183 186 l 1183 433 l 1329 482 l 1329 90 m 235 563 l 90 507 l 90 884 l 235 786 l 235 563 m 782 170 l 709 90 l 637 170 l 637 438 l 709 482 l 782 438 l 782 170 m 235 186 l 90 90 l 90 482 l 235 433 l 235 186 z "},"N":{"ha":871,"x_min":90,"x_max":782,"o":"m 782 507 l 637 563 l 637 786 l 782 884 l 782 507 m 758 899 l 613 802 l 260 802 l 114 899 l 758 899 m 235 563 l 90 507 l 90 884 l 235 786 l 235 563 m 782 90 l 637 186 l 637 433 l 782 482 l 782 90 m 235 186 l 90 90 l 90 482 l 235 433 l 235 186 z "},"O":{"ha":871,"x_min":90,"x_max":782,"o":"m 782 507 l 637 563 l 637 786 l 709 834 l 782 786 l 782 507 m 688 850 l 613 802 l 260 802 l 186 850 l 260 899 l 613 899 l 688 850 m 782 203 l 709 155 l 637 203 l 637 433 l 782 482 l 782 203 m 235 563 l 90 507 l 90 786 l 162 834 l 235 786 l 235 563 m 235 203 l 162 155 l 90 203 l 90 482 l 235 433 l 235 203 m 688 139 l 613 90 l 260 90 l 186 139 l 260 186 l 613 186 l 688 139 z "},"P":{"ha":871,"x_min":90,"x_max":782,"o":"m 782 507 l 637 563 l 637 786 l 709 834 l 782 786 l 782 507 m 688 850 l 613 802 l 260 802 l 114 899 l 613 899 l 688 850 m 235 563 l 90 507 l 90 884 l 235 786 l 235 563 m 749 494 l 613 450 l 260 450 l 124 494 l 260 547 l 613 547 l 749 494 m 235 186 l 90 90 l 90 482 l 235 433 l 235 186 z "},"Q":{"ha":872,"x_min":90,"x_max":785,"o":"m 782 507 l 637 563 l 637 786 l 709 834 l 782 786 l 782 507 m 688 850 l 613 802 l 260 802 l 186 850 l 260 899 l 613 899 l 688 850 m 782 203 l 709 155 l 637 203 l 637 433 l 782 482 l 782 203 m 235 563 l 90 507 l 90 786 l 162 834 l 235 786 l 235 563 m 785 -54 l 408 186 l 610 186 l 785 76 l 785 -54 m 235 203 l 162 155 l 90 203 l 90 482 l 235 433 l 235 203 m 513 90 l 260 90 l 188 142 l 260 186 l 363 186 l 513 90 z "},"R":{"ha":848,"x_min":90,"x_max":888,"o":"m 782 507 l 637 563 l 637 786 l 709 834 l 782 786 l 782 507 m 688 850 l 613 802 l 260 802 l 114 899 l 613 899 l 688 850 m 235 563 l 90 507 l 90 884 l 235 786 l 235 563 m 749 494 l 613 450 l 260 450 l 124 494 l 260 547 l 613 547 l 749 494 m 888 88 l 635 202 l 459 433 l 623 433 l 888 88 m 235 203 l 90 105 l 90 482 l 235 433 l 235 203 z "},"S":{"ha":871,"x_min":90,"x_max":782,"o":"m 782 899 l 625 802 l 260 802 l 186 850 l 260 899 l 782 899 m 782 203 l 709 155 l 637 203 l 637 433 l 782 482 l 782 203 m 749 494 l 613 450 l 260 450 l 124 494 l 260 547 l 613 547 l 749 494 m 235 563 l 90 507 l 90 786 l 162 834 l 235 786 l 235 563 m 688 139 l 613 90 l 90 90 l 249 186 l 613 186 l 688 139 z "},"T":{"ha":686,"x_min":-15,"x_max":703,"o":"m 703 899 l 587 802 l 429 802 l 347 859 l 260 802 l 101 802 l -15 899 l 703 899 m 418 544 l 345 496 l 271 544 l 271 783 l 345 836 l 418 783 l 418 544 m 418 142 l 344 90 l 270 142 l 270 433 l 345 484 l 418 433 l 418 142 z "},"U":{"ha":871,"x_min":90,"x_max":782,"o":"m 782 507 l 637 563 l 637 806 l 782 899 l 782 507 m 235 563 l 90 507 l 90 899 l 235 806 l 235 563 m 782 203 l 709 155 l 637 203 l 637 433 l 782 482 l 782 203 m 235 203 l 162 155 l 90 203 l 90 482 l 235 433 l 235 203 m 688 139 l 613 90 l 260 90 l 186 139 l 260 186 l 613 186 l 688 139 z "},"V":{"ha":872,"x_min":90,"x_max":785,"o":"m 782 507 l 637 563 l 637 786 l 782 884 l 782 507 m 235 563 l 90 507 l 90 884 l 235 786 l 235 563 m 785 492 l 456 90 l 456 292 l 594 459 l 785 492 m 418 88 l 90 493 l 280 459 l 418 292 l 418 88 z "},"W":{"ha":1418,"x_min":90,"x_max":1330,"o":"m 1330 507 l 1183 555 l 1183 802 l 1330 899 l 1330 507 m 783 551 l 709 507 l 637 551 l 637 819 l 709 899 l 783 819 l 783 551 m 1330 201 l 1261 153 l 1185 201 l 1185 426 l 1330 486 l 1330 201 m 237 555 l 90 507 l 90 899 l 237 802 l 237 555 m 783 201 l 711 151 l 637 203 l 637 452 l 709 489 l 783 452 l 783 201 m 1236 138 l 1164 90 l 259 90 l 188 136 l 260 186 l 613 186 l 709 121 l 807 186 l 1161 186 l 1236 138 m 235 201 l 162 153 l 90 201 l 90 486 l 235 425 l 235 201 z "},"X":{"ha":753,"x_min":45,"x_max":709,"o":"m 709 819 l 471 505 l 395 505 l 395 618 l 608 899 l 709 899 l 709 819 m 361 505 l 285 505 l 45 823 l 45 899 l 150 899 l 361 618 l 361 505 m 709 90 l 604 90 l 395 368 l 395 483 l 471 483 l 709 169 l 709 90 m 361 368 l 149 90 l 45 90 l 45 172 l 285 483 l 361 483 l 361 368 z "},"Y":{"ha":871,"x_min":90,"x_max":782,"o":"m 782 507 l 637 563 l 637 802 l 782 899 l 782 507 m 235 563 l 90 507 l 90 899 l 235 802 l 235 563 m 749 494 l 613 450 l 260 450 l 124 494 l 260 547 l 613 547 l 749 494 m 513 146 l 435 90 l 365 146 l 365 428 l 513 428 l 513 146 z "},"Z":{"ha":718,"x_min":15,"x_max":705,"o":"m 705 899 l 445 500 l 350 602 l 546 899 l 705 899 m 515 899 l 452 802 l 187 802 l 42 899 l 515 899 m 435 483 l 174 90 l 15 90 l 262 460 l 435 483 m 676 90 l 201 90 l 273 186 l 529 186 l 676 90 z "},"[":{"ha":468,"x_min":90,"x_max":454,"o":"m 454 899 l 309 802 l 260 802 l 114 899 l 454 899 m 235 563 l 90 507 l 90 884 l 235 786 l 235 563 m 235 203 l 90 105 l 90 482 l 235 433 l 235 203 m 454 90 l 114 90 l 260 186 l 309 186 l 454 90 z "},"\\":{"ha":525,"x_min":104,"x_max":423,"o":"m 423 90 l 317 90 l 104 899 l 211 899 l 423 90 z "},"]":{"ha":468,"x_min":15,"x_max":379,"o":"m 356 899 l 208 802 l 160 802 l 15 899 l 356 899 m 379 507 l 234 555 l 234 786 l 379 884 l 379 507 m 379 105 l 234 203 l 234 426 l 379 482 l 379 105 m 356 90 l 15 90 l 160 186 l 208 186 l 356 90 z "},"^":{"ha":1009,"x_min":104,"x_max":909,"o":"m 909 285 l 788 285 l 505 626 l 225 285 l 104 285 l 505 759 l 909 285 z "},"_":{"ha":814,"x_min":104,"x_max":711,"o":"m 711 59 l 104 59 l 104 90 l 711 90 l 711 59 z "},"`":{"ha":265,"x_min":0,"x_max":269,"o":"m 269 496 l 111 496 l 0 659 l 159 659 l 269 496 z "},"a":{"ha":871,"x_min":90,"x_max":782,"o":"m 782 507 l 637 563 l 637 786 l 782 884 l 782 507 m 758 899 l 613 802 l 260 802 l 114 899 l 758 899 m 235 563 l 90 507 l 90 884 l 235 786 l 235 563 m 749 494 l 613 450 l 260 450 l 124 494 l 260 547 l 613 547 l 749 494 m 782 90 l 637 186 l 637 433 l 782 482 l 782 90 m 235 186 l 90 90 l 90 482 l 235 433 l 235 186 z "},"b":{"ha":871,"x_min":90,"x_max":782,"o":"m 782 507 l 637 563 l 637 786 l 709 834 l 782 786 l 782 507 m 688 850 l 613 802 l 260 802 l 114 899 l 613 899 l 688 850 m 235 563 l 90 507 l 90 884 l 235 786 l 235 563 m 782 203 l 709 155 l 637 203 l 637 433 l 782 482 l 782 203 m 749 494 l 613 450 l 260 450 l 124 494 l 260 547 l 613 547 l 749 494 m 235 203 l 90 105 l 90 482 l 235 433 l 235 203 m 688 139 l 613 90 l 114 90 l 260 186 l 613 186 l 688 139 z "},"c":{"ha":772,"x_min":90,"x_max":758,"o":"m 758 899 l 613 802 l 260 802 l 186 850 l 260 899 l 758 899 m 235 555 l 90 507 l 90 786 l 162 834 l 235 786 l 235 555 m 758 90 l 260 90 l 186 139 l 260 186 l 613 186 l 758 90 m 235 203 l 162 155 l 90 203 l 90 482 l 235 426 l 235 203 z "},"d":{"ha":871,"x_min":90,"x_max":782,"o":"m 782 507 l 637 563 l 637 786 l 709 834 l 782 786 l 782 507 m 688 850 l 613 802 l 260 802 l 114 899 l 613 899 l 688 850 m 235 563 l 90 507 l 90 884 l 235 786 l 235 563 m 782 203 l 709 155 l 637 203 l 637 433 l 782 482 l 782 203 m 235 203 l 90 105 l 90 482 l 235 433 l 235 203 m 688 139 l 613 90 l 114 90 l 260 186 l 613 186 l 688 139 z "},"e":{"ha":772,"x_min":90,"x_max":758,"o":"m 758 899 l 613 802 l 260 802 l 114 899 l 758 899 m 235 563 l 90 507 l 90 884 l 235 786 l 235 563 m 749 494 l 613 450 l 260 450 l 124 494 l 260 547 l 613 547 l 749 494 m 758 90 l 114 90 l 260 186 l 613 186 l 758 90 m 235 203 l 90 105 l 90 482 l 235 433 l 235 203 z "},"f":{"ha":757,"x_min":90,"x_max":758,"o":"m 758 899 l 613 802 l 260 802 l 114 899 l 758 899 m 235 563 l 90 507 l 90 884 l 235 786 l 235 563 m 749 494 l 613 450 l 260 450 l 124 494 l 260 547 l 613 547 l 749 494 m 235 186 l 90 90 l 90 482 l 235 433 l 235 186 z "},"g":{"ha":871,"x_min":90,"x_max":782,"o":"m 751 899 l 613 802 l 260 802 l 186 850 l 260 899 l 751 899 m 749 494 l 613 450 l 478 450 l 341 494 l 478 547 l 613 547 l 749 494 m 782 203 l 709 155 l 637 203 l 637 433 l 782 482 l 782 203 m 235 563 l 90 507 l 90 786 l 162 834 l 235 786 l 235 563 m 235 203 l 162 155 l 90 203 l 90 482 l 235 433 l 235 203 m 688 139 l 613 90 l 260 90 l 186 139 l 260 186 l 613 186 l 688 139 z "},"h":{"ha":871,"x_min":90,"x_max":782,"o":"m 782 507 l 637 563 l 637 802 l 782 899 l 782 507 m 235 563 l 90 507 l 90 899 l 235 802 l 235 563 m 749 494 l 613 450 l 260 450 l 124 494 l 260 547 l 613 547 l 749 494 m 782 90 l 637 186 l 637 433 l 782 482 l 782 90 m 235 186 l 90 90 l 90 482 l 235 433 l 235 186 z "},"i":{"ha":319,"x_min":90,"x_max":235,"o":"m 235 507 l 90 563 l 90 802 l 235 899 l 235 507 m 235 90 l 90 186 l 90 433 l 235 482 l 235 90 z "},"j":{"ha":871,"x_min":90,"x_max":782,"o":"m 782 507 l 637 563 l 637 802 l 782 899 l 782 507 m 782 105 l 637 203 l 637 433 l 782 482 l 782 105 m 758 90 l 114 90 l 260 186 l 613 186 l 758 90 m 235 203 l 90 105 l 90 482 l 235 433 l 235 203 z "},"k":{"ha":871,"x_min":90,"x_max":782,"o":"m 782 833 l 368 566 l 266 566 l 266 636 l 675 899 l 782 899 l 782 833 m 235 563 l 90 507 l 90 899 l 235 802 l 235 563 m 749 494 l 613 450 l 260 450 l 124 494 l 260 547 l 613 547 l 749 494 m 782 90 l 637 186 l 637 433 l 782 482 l 782 90 m 235 186 l 90 90 l 90 482 l 235 433 l 235 186 z "},"l":{"ha":838,"x_min":90,"x_max":782,"o":"m 235 563 l 90 507 l 90 899 l 235 802 l 235 563 m 782 105 l 637 203 l 637 433 l 782 482 l 782 105 m 758 90 l 114 90 l 260 186 l 613 186 l 758 90 m 235 203 l 90 105 l 90 482 l 235 433 l 235 203 z "},"m":{"ha":1418,"x_min":90,"x_max":1329,"o":"m 1329 507 l 1183 563 l 1183 786 l 1329 882 l 1329 507 m 1305 899 l 1158 802 l 806 802 l 709 865 l 613 802 l 257 802 l 114 899 l 1305 899 m 782 537 l 709 500 l 637 537 l 637 788 l 709 838 l 782 786 l 782 537 m 1329 90 l 1183 186 l 1183 433 l 1329 482 l 1329 90 m 235 563 l 90 507 l 90 884 l 235 786 l 235 563 m 782 170 l 709 90 l 637 170 l 637 438 l 709 482 l 782 438 l 782 170 m 235 186 l 90 90 l 90 482 l 235 433 l 235 186 z "},"n":{"ha":871,"x_min":90,"x_max":782,"o":"m 782 507 l 637 563 l 637 786 l 782 884 l 782 507 m 758 899 l 613 802 l 260 802 l 114 899 l 758 899 m 235 563 l 90 507 l 90 884 l 235 786 l 235 563 m 782 90 l 637 186 l 637 433 l 782 482 l 782 90 m 235 186 l 90 90 l 90 482 l 235 433 l 235 186 z "},"o":{"ha":871,"x_min":90,"x_max":782,"o":"m 782 507 l 637 563 l 637 786 l 709 834 l 782 786 l 782 507 m 688 850 l 613 802 l 260 802 l 186 850 l 260 899 l 613 899 l 688 850 m 782 203 l 709 155 l 637 203 l 637 433 l 782 482 l 782 203 m 235 563 l 90 507 l 90 786 l 162 834 l 235 786 l 235 563 m 235 203 l 162 155 l 90 203 l 90 482 l 235 433 l 235 203 m 688 139 l 613 90 l 260 90 l 186 139 l 260 186 l 613 186 l 688 139 z "},"p":{"ha":871,"x_min":90,"x_max":782,"o":"m 782 507 l 637 563 l 637 786 l 709 834 l 782 786 l 782 507 m 688 850 l 613 802 l 260 802 l 114 899 l 613 899 l 688 850 m 235 563 l 90 507 l 90 884 l 235 786 l 235 563 m 749 494 l 613 450 l 260 450 l 124 494 l 260 547 l 613 547 l 749 494 m 235 186 l 90 90 l 90 482 l 235 433 l 235 186 z "},"q":{"ha":872,"x_min":90,"x_max":785,"o":"m 782 507 l 637 563 l 637 786 l 709 834 l 782 786 l 782 507 m 688 850 l 613 802 l 260 802 l 186 850 l 260 899 l 613 899 l 688 850 m 782 203 l 709 155 l 637 203 l 637 433 l 782 482 l 782 203 m 235 563 l 90 507 l 90 786 l 162 834 l 235 786 l 235 563 m 785 -54 l 408 186 l 610 186 l 785 76 l 785 -54 m 235 203 l 162 155 l 90 203 l 90 482 l 235 433 l 235 203 m 513 90 l 260 90 l 188 142 l 260 186 l 363 186 l 513 90 z "},"r":{"ha":848,"x_min":90,"x_max":888,"o":"m 782 507 l 637 563 l 637 786 l 709 834 l 782 786 l 782 507 m 688 850 l 613 802 l 260 802 l 114 899 l 613 899 l 688 850 m 235 563 l 90 507 l 90 884 l 235 786 l 235 563 m 749 494 l 613 450 l 260 450 l 124 494 l 260 547 l 613 547 l 749 494 m 888 88 l 635 202 l 459 433 l 623 433 l 888 88 m 235 203 l 90 105 l 90 482 l 235 433 l 235 203 z "},"s":{"ha":871,"x_min":90,"x_max":782,"o":"m 782 899 l 625 802 l 260 802 l 186 850 l 260 899 l 782 899 m 782 203 l 709 155 l 637 203 l 637 433 l 782 482 l 782 203 m 749 494 l 613 450 l 260 450 l 124 494 l 260 547 l 613 547 l 749 494 m 235 563 l 90 507 l 90 786 l 162 834 l 235 786 l 235 563 m 688 139 l 613 90 l 90 90 l 249 186 l 613 186 l 688 139 z "},"t":{"ha":686,"x_min":-15,"x_max":703,"o":"m 703 899 l 587 802 l 429 802 l 347 859 l 260 802 l 101 802 l -15 899 l 703 899 m 418 544 l 345 496 l 271 544 l 271 783 l 345 836 l 418 783 l 418 544 m 418 142 l 344 90 l 270 142 l 270 433 l 345 484 l 418 433 l 418 142 z "},"u":{"ha":871,"x_min":90,"x_max":782,"o":"m 782 507 l 637 563 l 637 806 l 782 899 l 782 507 m 235 563 l 90 507 l 90 899 l 235 806 l 235 563 m 782 203 l 709 155 l 637 203 l 637 433 l 782 482 l 782 203 m 235 203 l 162 155 l 90 203 l 90 482 l 235 433 l 235 203 m 688 139 l 613 90 l 260 90 l 186 139 l 260 186 l 613 186 l 688 139 z "},"v":{"ha":872,"x_min":90,"x_max":785,"o":"m 782 507 l 637 563 l 637 786 l 782 884 l 782 507 m 235 563 l 90 507 l 90 884 l 235 786 l 235 563 m 785 492 l 456 90 l 456 292 l 594 459 l 785 492 m 418 88 l 90 493 l 280 459 l 418 292 l 418 88 z "},"w":{"ha":1418,"x_min":90,"x_max":1330,"o":"m 1330 507 l 1183 555 l 1183 802 l 1330 899 l 1330 507 m 783 551 l 709 507 l 637 551 l 637 819 l 709 899 l 783 819 l 783 551 m 1330 201 l 1261 153 l 1185 201 l 1185 426 l 1330 486 l 1330 201 m 237 555 l 90 507 l 90 899 l 237 802 l 237 555 m 783 201 l 711 151 l 637 203 l 637 452 l 709 489 l 783 452 l 783 201 m 1236 138 l 1164 90 l 259 90 l 188 136 l 260 186 l 613 186 l 709 121 l 807 186 l 1161 186 l 1236 138 m 235 201 l 162 153 l 90 201 l 90 486 l 235 425 l 235 201 z "},"x":{"ha":753,"x_min":45,"x_max":709,"o":"m 709 819 l 471 505 l 395 505 l 395 618 l 608 899 l 709 899 l 709 819 m 361 505 l 285 505 l 45 823 l 45 899 l 150 899 l 361 618 l 361 505 m 709 90 l 604 90 l 395 368 l 395 483 l 471 483 l 709 169 l 709 90 m 361 368 l 149 90 l 45 90 l 45 172 l 285 483 l 361 483 l 361 368 z "},"y":{"ha":871,"x_min":90,"x_max":782,"o":"m 782 507 l 637 563 l 637 802 l 782 899 l 782 507 m 235 563 l 90 507 l 90 899 l 235 802 l 235 563 m 749 494 l 613 450 l 260 450 l 124 494 l 260 547 l 613 547 l 749 494 m 513 146 l 435 90 l 365 146 l 365 428 l 513 428 l 513 146 z "},"z":{"ha":718,"x_min":15,"x_max":705,"o":"m 705 899 l 445 500 l 350 602 l 546 899 l 705 899 m 515 899 l 452 802 l 187 802 l 42 899 l 515 899 m 435 483 l 174 90 l 15 90 l 262 460 l 435 483 m 676 90 l 201 90 l 273 186 l 529 186 l 676 90 z "},"{":{"ha":550,"x_min":104,"x_max":448,"o":"m 448 -37 l 340 -37 q 208 37 208 -37 l 208 414 q 143 488 208 469 q 104 494 124 494 q 179 517 150 494 q 208 574 208 539 l 208 951 q 340 1025 208 1025 l 448 1025 l 448 983 l 430 983 q 350 970 370 983 q 330 915 330 957 l 330 582 q 298 521 330 547 q 218 494 266 494 q 298 469 266 494 q 330 406 330 443 l 330 73 q 349 18 330 32 q 430 5 368 5 l 448 5 l 448 -37 z "},"|":{"ha":312,"x_min":104,"x_max":211,"o":"m 211 90 l 104 90 l 104 899 l 211 899 l 211 90 z "},"}":{"ha":550,"x_min":104,"x_max":448,"o":"m 448 494 q 410 488 427 494 q 343 414 343 467 l 343 37 q 214 -37 343 -37 l 104 -37 l 104 5 l 123 5 q 203 18 184 5 q 222 73 222 32 l 222 406 q 255 468 222 441 q 336 494 288 494 q 316 496 328 494 q 293 502 305 498 q 222 582 222 526 l 222 915 q 203 970 222 958 q 123 983 184 983 l 104 983 l 104 1025 l 214 1025 q 343 951 343 1025 l 343 574 q 361 529 343 548 q 410 501 378 510 q 448 494 427 494 z "},"~":{"ha":811,"x_min":104,"x_max":710,"o":"m 710 542 q 663 451 703 482 q 556 419 623 419 q 511 422 534 419 q 458 433 488 426 l 329 469 l 307 474 q 252 481 273 481 q 212 470 225 481 q 191 429 198 458 l 188 418 l 104 418 l 104 437 q 151 528 111 496 q 258 559 191 559 q 303 556 279 559 q 356 545 326 553 l 485 509 l 505 503 q 559 496 538 496 q 602 508 587 496 q 623 549 616 520 l 626 559 l 710 559 l 710 542 z "},"Ä":{"ha":1031,"x_min":90,"x_max":782,"o":"m 782 507 l 637 563 l 637 786 l 782 884 l 782 507 m 758 899 l 613 802 l 260 802 l 114 899 l 758 899 m 235 563 l 90 507 l 90 884 l 235 786 l 235 563 m 749 494 l 613 450 l 260 450 l 124 494 l 260 547 l 613 547 l 749 494 m 782 90 l 637 186 l 637 433 l 782 482 l 782 90 m 235 186 l 90 90 l 90 482 l 235 433 l 235 186 m 633 955 l 488 955 l 488 1101 l 633 1101 l 633 955 m 363 955 l 218 955 l 218 1101 l 363 1101 l 363 955 z "},"Å":{"ha":1031,"x_min":90,"x_max":782,"o":"m 782 507 l 637 563 l 637 786 l 782 884 l 782 507 m 758 899 l 613 802 l 260 802 l 114 899 l 758 899 m 235 563 l 90 507 l 90 884 l 235 786 l 235 563 m 749 494 l 613 450 l 260 450 l 124 494 l 260 547 l 613 547 l 749 494 m 782 90 l 637 186 l 637 433 l 782 482 l 782 90 m 235 186 l 90 90 l 90 482 l 235 433 l 235 186 m 663 1015 l 596 973 l 538 1013 l 538 1107 l 596 1147 l 663 1106 l 663 1015 m 576 1159 l 515 1121 l 372 1121 l 309 1159 l 373 1203 l 514 1203 l 576 1159 m 576 958 l 525 926 l 360 926 l 309 958 l 383 1006 l 504 1006 l 576 958 m 352 1013 l 291 973 l 224 1015 l 224 1105 l 291 1147 l 352 1106 l 352 1013 z "},"Ç":{"ha":802,"x_min":90,"x_max":758,"o":"m 758 899 l 613 802 l 260 802 l 186 850 l 260 899 l 758 899 m 235 555 l 90 507 l 90 786 l 162 834 l 235 786 l 235 555 m 758 90 l 260 90 l 186 139 l 260 186 l 613 186 l 758 90 m 235 203 l 162 155 l 90 203 l 90 482 l 235 426 l 235 203 m 529 61 l 431 -20 l 276 -20 l 374 61 l 529 61 z "},"É":{"ha":928,"x_min":90,"x_max":758,"o":"m 758 899 l 613 802 l 260 802 l 114 899 l 758 899 m 235 563 l 90 507 l 90 884 l 235 786 l 235 563 m 749 494 l 613 450 l 260 450 l 124 494 l 260 547 l 613 547 l 749 494 m 758 90 l 114 90 l 260 186 l 613 186 l 758 90 m 235 203 l 90 105 l 90 482 l 235 433 l 235 203 m 648 1204 l 536 1042 l 378 1042 l 489 1204 l 648 1204 z "},"Ñ":{"ha":1031,"x_min":90,"x_max":782,"o":"m 782 507 l 637 563 l 637 786 l 782 884 l 782 507 m 758 899 l 613 802 l 260 802 l 114 899 l 758 899 m 235 563 l 90 507 l 90 884 l 235 786 l 235 563 m 782 90 l 637 186 l 637 433 l 782 482 l 782 90 m 235 186 l 90 90 l 90 482 l 235 433 l 235 186 m 711 1113 l 650 983 l 552 1104 l 569 1139 l 711 1113 m 615 970 l 379 1018 l 278 1139 l 522 1088 l 615 970 m 338 1005 l 321 970 l 181 997 l 241 1126 l 338 1005 z "},"Ö":{"ha":1031,"x_min":90,"x_max":782,"o":"m 782 507 l 637 563 l 637 786 l 709 834 l 782 786 l 782 507 m 688 850 l 613 802 l 260 802 l 186 850 l 260 899 l 613 899 l 688 850 m 782 203 l 709 155 l 637 203 l 637 433 l 782 482 l 782 203 m 235 563 l 90 507 l 90 786 l 162 834 l 235 786 l 235 563 m 235 203 l 162 155 l 90 203 l 90 482 l 235 433 l 235 203 m 688 139 l 613 90 l 260 90 l 186 139 l 260 186 l 613 186 l 688 139 m 637 956 l 492 956 l 492 1103 l 637 1103 l 637 956 m 367 956 l 222 956 l 222 1103 l 367 1103 l 367 956 z "},"Ü":{"ha":1031,"x_min":90,"x_max":782,"o":"m 782 507 l 637 563 l 637 806 l 782 899 l 782 507 m 235 563 l 90 507 l 90 899 l 235 806 l 235 563 m 782 203 l 709 155 l 637 203 l 637 433 l 782 482 l 782 203 m 235 203 l 162 155 l 90 203 l 90 482 l 235 433 l 235 203 m 688 139 l 613 90 l 260 90 l 186 139 l 260 186 l 613 186 l 688 139 m 633 956 l 488 956 l 488 1103 l 633 1103 l 633 956 m 363 956 l 218 956 l 218 1103 l 363 1103 l 363 956 z "},"á":{"ha":1031,"x_min":90,"x_max":782,"o":"m 782 507 l 637 563 l 637 786 l 782 884 l 782 507 m 758 899 l 613 802 l 260 802 l 114 899 l 758 899 m 235 563 l 90 507 l 90 884 l 235 786 l 235 563 m 749 494 l 613 450 l 260 450 l 124 494 l 260 547 l 613 547 l 749 494 m 782 90 l 637 186 l 637 433 l 782 482 l 782 90 m 235 186 l 90 90 l 90 482 l 235 433 l 235 186 m 646 1202 l 534 1041 l 376 1041 l 487 1202 l 646 1202 z "},"à":{"ha":1031,"x_min":90,"x_max":782,"o":"m 782 507 l 637 563 l 637 786 l 782 884 l 782 507 m 758 899 l 613 802 l 260 802 l 114 899 l 758 899 m 235 563 l 90 507 l 90 884 l 235 786 l 235 563 m 749 494 l 613 450 l 260 450 l 124 494 l 260 547 l 613 547 l 749 494 m 782 90 l 637 186 l 637 433 l 782 482 l 782 90 m 235 186 l 90 90 l 90 482 l 235 433 l 235 186 m 496 1041 l 337 1041 l 227 1203 l 385 1203 l 496 1041 z "},"â":{"ha":1031,"x_min":90,"x_max":782,"o":"m 782 507 l 637 563 l 637 786 l 782 884 l 782 507 m 758 899 l 613 802 l 260 802 l 114 899 l 758 899 m 235 563 l 90 507 l 90 884 l 235 786 l 235 563 m 749 494 l 613 450 l 260 450 l 124 494 l 260 547 l 613 547 l 749 494 m 782 90 l 637 186 l 637 433 l 782 482 l 782 90 m 235 186 l 90 90 l 90 482 l 235 433 l 235 186 m 773 962 l 559 962 l 454 1028 l 500 1140 l 773 962 m 418 1028 l 313 962 l 111 962 l 377 1141 l 418 1028 z "},"ä":{"ha":1031,"x_min":90,"x_max":782,"o":"m 782 507 l 637 563 l 637 786 l 782 884 l 782 507 m 758 899 l 613 802 l 260 802 l 114 899 l 758 899 m 235 563 l 90 507 l 90 884 l 235 786 l 235 563 m 749 494 l 613 450 l 260 450 l 124 494 l 260 547 l 613 547 l 749 494 m 782 90 l 637 186 l 637 433 l 782 482 l 782 90 m 235 186 l 90 90 l 90 482 l 235 433 l 235 186 m 633 955 l 488 955 l 488 1101 l 633 1101 l 633 955 m 363 955 l 218 955 l 218 1101 l 363 1101 l 363 955 z "},"ã":{"ha":1031,"x_min":90,"x_max":782,"o":"m 782 507 l 637 563 l 637 786 l 782 884 l 782 507 m 758 899 l 613 802 l 260 802 l 114 899 l 758 899 m 235 563 l 90 507 l 90 884 l 235 786 l 235 563 m 749 494 l 613 450 l 260 450 l 124 494 l 260 547 l 613 547 l 749 494 m 782 90 l 637 186 l 637 433 l 782 482 l 782 90 m 235 186 l 90 90 l 90 482 l 235 433 l 235 186 m 682 1121 l 621 991 l 523 1112 l 540 1147 l 682 1121 m 586 978 l 350 1027 l 249 1147 l 493 1097 l 586 978 m 309 1013 l 292 978 l 152 1005 l 212 1135 l 309 1013 z "},"å":{"ha":1031,"x_min":90,"x_max":782,"o":"m 782 507 l 637 563 l 637 786 l 782 884 l 782 507 m 758 899 l 613 802 l 260 802 l 114 899 l 758 899 m 235 563 l 90 507 l 90 884 l 235 786 l 235 563 m 749 494 l 613 450 l 260 450 l 124 494 l 260 547 l 613 547 l 749 494 m 782 90 l 637 186 l 637 433 l 782 482 l 782 90 m 235 186 l 90 90 l 90 482 l 235 433 l 235 186 m 663 1015 l 596 973 l 538 1013 l 538 1107 l 596 1147 l 663 1106 l 663 1015 m 576 1159 l 515 1121 l 372 1121 l 309 1159 l 373 1203 l 514 1203 l 576 1159 m 576 958 l 525 926 l 360 926 l 309 958 l 383 1006 l 504 1006 l 576 958 m 352 1013 l 291 973 l 224 1015 l 224 1105 l 291 1147 l 352 1106 l 352 1013 z "},"ç":{"ha":802,"x_min":90,"x_max":758,"o":"m 758 899 l 613 802 l 260 802 l 186 850 l 260 899 l 758 899 m 235 555 l 90 507 l 90 786 l 162 834 l 235 786 l 235 555 m 758 90 l 260 90 l 186 139 l 260 186 l 613 186 l 758 90 m 235 203 l 162 155 l 90 203 l 90 482 l 235 426 l 235 203 m 529 61 l 431 -20 l 276 -20 l 374 61 l 529 61 z "},"é":{"ha":928,"x_min":90,"x_max":758,"o":"m 758 899 l 613 802 l 260 802 l 114 899 l 758 899 m 235 563 l 90 507 l 90 884 l 235 786 l 235 563 m 749 494 l 613 450 l 260 450 l 124 494 l 260 547 l 613 547 l 749 494 m 758 90 l 114 90 l 260 186 l 613 186 l 758 90 m 235 203 l 90 105 l 90 482 l 235 433 l 235 203 m 633 1204 l 522 1042 l 365 1042 l 475 1204 l 633 1204 z "},"è":{"ha":928,"x_min":90,"x_max":758,"o":"m 758 899 l 613 802 l 260 802 l 114 899 l 758 899 m 235 563 l 90 507 l 90 884 l 235 786 l 235 563 m 749 494 l 613 450 l 260 450 l 124 494 l 260 547 l 613 547 l 749 494 m 758 90 l 114 90 l 260 186 l 613 186 l 758 90 m 235 203 l 90 105 l 90 482 l 235 433 l 235 203 m 454 1041 l 296 1041 l 186 1203 l 344 1203 l 454 1041 z "},"ê":{"ha":928,"x_min":90,"x_max":762,"o":"m 758 899 l 613 802 l 260 802 l 114 899 l 758 899 m 235 563 l 90 507 l 90 884 l 235 786 l 235 563 m 749 494 l 613 450 l 260 450 l 124 494 l 260 547 l 613 547 l 749 494 m 758 90 l 114 90 l 260 186 l 613 186 l 758 90 m 235 203 l 90 105 l 90 482 l 235 433 l 235 203 m 762 969 l 549 969 l 444 1036 l 489 1147 l 762 969 m 407 1036 l 302 969 l 101 969 l 366 1147 l 407 1036 z "},"ë":{"ha":928,"x_min":90,"x_max":758,"o":"m 758 899 l 613 802 l 260 802 l 114 899 l 758 899 m 235 563 l 90 507 l 90 884 l 235 786 l 235 563 m 749 494 l 613 450 l 260 450 l 124 494 l 260 547 l 613 547 l 749 494 m 758 90 l 114 90 l 260 186 l 613 186 l 758 90 m 235 203 l 90 105 l 90 482 l 235 433 l 235 203 m 633 955 l 488 955 l 488 1101 l 633 1101 l 633 955 m 363 955 l 218 955 l 218 1101 l 363 1101 l 363 955 z "},"í":{"ha":354,"x_min":69,"x_max":338,"o":"m 220 507 l 75 563 l 75 802 l 220 899 l 220 507 m 220 90 l 75 186 l 75 433 l 220 482 l 220 90 m 338 1202 l 227 1041 l 69 1041 l 180 1202 l 338 1202 z "},"ì":{"ha":354,"x_min":-48,"x_max":221,"o":"m 221 507 l 76 563 l 76 802 l 221 899 l 221 507 m 221 90 l 76 186 l 76 433 l 221 482 l 221 90 m 220 1041 l 62 1041 l -48 1203 l 111 1203 l 220 1041 z "},"î":{"ha":354,"x_min":-205,"x_max":456,"o":"m 175 507 l 30 563 l 30 802 l 175 899 l 175 507 m 175 90 l 30 186 l 30 433 l 175 482 l 175 90 m 456 966 l 242 966 l 138 1032 l 182 1144 l 456 966 m 100 1032 l -4 966 l -205 966 l 60 1145 l 100 1032 z "},"ï":{"ha":354,"x_min":-51,"x_max":364,"o":"m 204 507 l 59 563 l 59 802 l 204 899 l 204 507 m 204 90 l 59 186 l 59 433 l 204 482 l 204 90 m 364 958 l 219 958 l 219 1104 l 364 1104 l 364 958 m 94 958 l -51 958 l -51 1104 l 94 1104 l 94 958 z "},"ñ":{"ha":1031,"x_min":90,"x_max":782,"o":"m 782 507 l 637 563 l 637 786 l 782 884 l 782 507 m 758 899 l 613 802 l 260 802 l 114 899 l 758 899 m 235 563 l 90 507 l 90 884 l 235 786 l 235 563 m 782 90 l 637 186 l 637 433 l 782 482 l 782 90 m 235 186 l 90 90 l 90 482 l 235 433 l 235 186 m 683 1113 l 623 983 l 524 1104 l 541 1139 l 683 1113 m 587 970 l 351 1018 l 250 1139 l 494 1088 l 587 970 m 311 1005 l 294 970 l 153 997 l 213 1126 l 311 1005 z "},"ó":{"ha":1031,"x_min":90,"x_max":782,"o":"m 782 507 l 637 563 l 637 786 l 709 834 l 782 786 l 782 507 m 688 850 l 613 802 l 260 802 l 186 850 l 260 899 l 613 899 l 688 850 m 782 203 l 709 155 l 637 203 l 637 433 l 782 482 l 782 203 m 235 563 l 90 507 l 90 786 l 162 834 l 235 786 l 235 563 m 235 203 l 162 155 l 90 203 l 90 482 l 235 433 l 235 203 m 688 139 l 613 90 l 260 90 l 186 139 l 260 186 l 613 186 l 688 139 m 642 1202 l 530 1041 l 372 1041 l 483 1202 l 642 1202 z "},"ò":{"ha":1031,"x_min":90,"x_max":782,"o":"m 782 507 l 637 563 l 637 786 l 709 834 l 782 786 l 782 507 m 688 850 l 613 802 l 260 802 l 186 850 l 260 899 l 613 899 l 688 850 m 782 203 l 709 155 l 637 203 l 637 433 l 782 482 l 782 203 m 235 563 l 90 507 l 90 786 l 162 834 l 235 786 l 235 563 m 235 203 l 162 155 l 90 203 l 90 482 l 235 433 l 235 203 m 688 139 l 613 90 l 260 90 l 186 139 l 260 186 l 613 186 l 688 139 m 498 1038 l 340 1038 l 229 1200 l 388 1200 l 498 1038 z "},"ô":{"ha":1031,"x_min":90,"x_max":782,"o":"m 782 507 l 637 563 l 637 786 l 709 834 l 782 786 l 782 507 m 688 850 l 613 802 l 260 802 l 186 850 l 260 899 l 613 899 l 688 850 m 782 203 l 709 155 l 637 203 l 637 433 l 782 482 l 782 203 m 235 563 l 90 507 l 90 786 l 162 834 l 235 786 l 235 563 m 235 203 l 162 155 l 90 203 l 90 482 l 235 433 l 235 203 m 688 139 l 613 90 l 260 90 l 186 139 l 260 186 l 613 186 l 688 139 m 776 970 l 562 970 l 457 1037 l 503 1148 l 776 970 m 420 1037 l 315 970 l 114 970 l 380 1149 l 420 1037 z "},"ö":{"ha":1031,"x_min":90,"x_max":782,"o":"m 782 507 l 637 563 l 637 786 l 709 834 l 782 786 l 782 507 m 688 850 l 613 802 l 260 802 l 186 850 l 260 899 l 613 899 l 688 850 m 782 203 l 709 155 l 637 203 l 637 433 l 782 482 l 782 203 m 235 563 l 90 507 l 90 786 l 162 834 l 235 786 l 235 563 m 235 203 l 162 155 l 90 203 l 90 482 l 235 433 l 235 203 m 688 139 l 613 90 l 260 90 l 186 139 l 260 186 l 613 186 l 688 139 m 644 956 l 498 956 l 498 1103 l 644 1103 l 644 956 m 374 956 l 229 956 l 229 1103 l 374 1103 l 374 956 z "},"õ":{"ha":1031,"x_min":90,"x_max":782,"o":"m 782 507 l 637 563 l 637 786 l 709 834 l 782 786 l 782 507 m 688 850 l 613 802 l 260 802 l 186 850 l 260 899 l 613 899 l 688 850 m 782 203 l 709 155 l 637 203 l 637 433 l 782 482 l 782 203 m 235 563 l 90 507 l 90 786 l 162 834 l 235 786 l 235 563 m 235 203 l 162 155 l 90 203 l 90 482 l 235 433 l 235 203 m 688 139 l 613 90 l 260 90 l 186 139 l 260 186 l 613 186 l 688 139 m 704 1099 l 643 970 l 545 1090 l 562 1124 l 704 1099 m 608 956 l 372 1004 l 271 1124 l 515 1074 l 608 956 m 332 991 l 315 956 l 174 983 l 234 1112 l 332 991 z "},"ú":{"ha":1031,"x_min":90,"x_max":782,"o":"m 782 507 l 637 563 l 637 806 l 782 899 l 782 507 m 235 563 l 90 507 l 90 899 l 235 806 l 235 563 m 782 203 l 709 155 l 637 203 l 637 433 l 782 482 l 782 203 m 235 203 l 162 155 l 90 203 l 90 482 l 235 433 l 235 203 m 688 139 l 613 90 l 260 90 l 186 139 l 260 186 l 613 186 l 688 139 m 667 1202 l 555 1041 l 397 1041 l 508 1202 l 667 1202 z "},"ù":{"ha":1031,"x_min":90,"x_max":782,"o":"m 782 507 l 637 563 l 637 806 l 782 899 l 782 507 m 235 563 l 90 507 l 90 899 l 235 806 l 235 563 m 782 203 l 709 155 l 637 203 l 637 433 l 782 482 l 782 203 m 235 203 l 162 155 l 90 203 l 90 482 l 235 433 l 235 203 m 688 139 l 613 90 l 260 90 l 186 139 l 260 186 l 613 186 l 688 139 m 498 1042 l 340 1042 l 229 1204 l 388 1204 l 498 1042 z "},"û":{"ha":1031,"x_min":90,"x_max":782,"o":"m 782 507 l 637 563 l 637 806 l 782 899 l 782 507 m 235 563 l 90 507 l 90 899 l 235 806 l 235 563 m 782 203 l 709 155 l 637 203 l 637 433 l 782 482 l 782 203 m 235 203 l 162 155 l 90 203 l 90 482 l 235 433 l 235 203 m 688 139 l 613 90 l 260 90 l 186 139 l 260 186 l 613 186 l 688 139 m 762 965 l 548 965 l 444 1031 l 488 1143 l 762 965 m 406 1031 l 302 965 l 100 965 l 366 1143 l 406 1031 z "},"ü":{"ha":1031,"x_min":90,"x_max":782,"o":"m 782 507 l 637 563 l 637 806 l 782 899 l 782 507 m 235 563 l 90 507 l 90 899 l 235 806 l 235 563 m 782 203 l 709 155 l 637 203 l 637 433 l 782 482 l 782 203 m 235 203 l 162 155 l 90 203 l 90 482 l 235 433 l 235 203 m 688 139 l 613 90 l 260 90 l 186 139 l 260 186 l 613 186 l 688 139 m 626 956 l 481 956 l 481 1103 l 626 1103 l 626 956 m 356 956 l 211 956 l 211 1103 l 356 1103 l 356 956 z "},"†":{"ha":859,"x_min":45,"x_max":819,"o":"m 503 706 l 433 655 l 358 706 l 358 854 l 433 899 l 503 854 l 503 706 m 819 637 l 746 591 l 528 591 l 463 640 l 534 688 l 751 688 l 819 637 m 410 641 l 332 591 l 115 591 l 45 636 l 117 688 l 334 688 l 410 641 m 503 134 l 429 90 l 358 134 l 358 574 l 433 624 l 503 575 l 503 134 z "},"°":{"ha":655,"x_min":104,"x_max":553,"o":"m 553 766 q 487 660 553 703 q 329 616 422 616 q 170 660 237 616 q 104 766 104 703 q 170 872 104 829 q 329 915 235 915 q 488 872 423 915 q 553 766 553 829 m 481 766 q 437 838 481 808 q 329 867 393 867 q 221 838 264 867 q 177 766 177 808 q 221 693 177 723 q 329 664 264 664 q 437 693 393 664 q 481 766 481 723 z "},"¢":{"ha":808,"x_min":90,"x_max":765,"o":"m 505 918 l 428 865 l 358 918 l 358 998 l 429 1051 l 505 995 l 505 918 m 765 899 l 620 802 l 262 802 l 193 848 l 263 899 l 347 899 l 429 840 l 519 899 l 765 899 m 235 555 l 90 507 l 90 786 l 162 834 l 235 786 l 235 555 m 763 90 l 512 90 l 425 153 l 340 90 l 260 90 l 189 136 l 262 186 l 618 186 l 763 90 m 235 203 l 162 155 l 90 203 l 90 482 l 235 426 l 235 203 m 500 -5 l 428 -69 l 351 -7 l 351 73 l 425 122 l 500 73 l 500 -5 z "},"£":{"ha":901,"x_min":-45,"x_max":858,"o":"m 858 899 l 711 802 l 359 802 l 286 850 l 359 899 l 858 899 m 336 554 l 260 509 l 190 556 l 190 786 l 264 836 l 336 786 l 336 554 m 636 492 l 564 450 l 359 450 l 286 492 l 363 547 l 564 547 l 636 492 m 240 492 l 161 450 l 28 450 l -45 493 l 31 547 l 157 547 l 240 492 m 858 90 l 191 90 l 359 186 l 711 186 l 858 90 m 335 204 l 186 123 l 186 428 l 264 473 l 335 428 l 335 204 z "},"§":{"ha":858,"x_min":90,"x_max":772,"o":"m 772 617 l 698 568 l 627 617 l 627 787 l 695 836 l 772 788 l 772 617 m 674 848 l 600 802 l 262 802 l 189 848 l 262 899 l 601 899 l 674 848 m 674 549 l 591 496 l 276 496 l 189 549 l 250 595 l 614 595 l 674 549 m 772 258 l 698 210 l 627 258 l 627 481 l 695 529 l 772 482 l 772 258 m 240 257 l 165 209 l 90 258 l 90 481 l 165 529 l 240 481 l 240 257 m 674 186 l 613 148 l 249 148 l 188 186 l 276 243 l 587 243 l 674 186 m 674 -114 l 601 -157 l 262 -157 l 188 -114 l 263 -61 l 600 -61 l 674 -114 m 240 -47 l 165 -96 l 90 -47 l 90 121 l 165 168 l 240 119 l 240 -47 z "},"•":{"ha":655,"x_min":104,"x_max":553,"o":"m 553 494 q 487 389 553 433 q 329 345 422 345 q 170 388 235 345 q 104 494 104 431 q 170 601 104 557 q 329 644 235 644 q 488 601 423 644 q 553 494 553 557 z "},"¶":{"ha":939,"x_min":98,"x_max":790,"o":"m 790 563 l 645 507 l 645 884 l 790 786 l 790 563 m 581 899 l 433 802 l 267 802 l 193 850 l 267 899 l 581 899 m 604 507 l 460 563 l 460 786 l 604 884 l 604 507 m 243 563 l 98 507 l 98 786 l 170 834 l 243 786 l 243 563 m 790 186 l 645 90 l 645 482 l 790 433 l 790 186 m 571 494 l 433 450 l 267 450 l 130 494 l 267 547 l 433 547 l 571 494 m 604 90 l 460 186 l 460 433 l 604 482 l 604 90 z "},"ß":{"ha":676,"x_min":39,"x_max":607,"o":"m 257 300 l 39 300 l 39 321 q 85 342 72 325 q 98 417 98 359 l 98 880 q 125 1007 98 962 q 211 1078 153 1053 q 338 1103 269 1103 q 516 1055 459 1103 q 574 931 574 1006 q 534 823 574 861 q 436 785 505 796 q 529 746 496 772 q 585 666 563 720 q 607 548 607 612 q 583 411 607 469 q 515 323 559 353 q 419 294 471 294 q 334 320 364 294 q 304 384 304 347 q 319 426 304 410 q 360 442 334 442 q 387 436 377 442 q 406 417 396 431 q 416 401 416 404 l 412 349 q 420 339 412 346 q 440 332 429 332 q 461 344 451 332 q 471 371 471 355 q 450 447 471 385 q 439 486 440 479 q 436 538 436 505 l 436 621 q 429 709 436 687 q 401 743 421 730 q 340 759 382 756 l 340 794 q 389 807 374 794 q 410 846 404 819 q 412 921 412 860 q 399 1027 412 1002 q 334 1064 380 1064 q 295 1053 311 1064 q 266 1018 274 1038 q 257 926 257 997 l 257 300 z "},"®":{"ha":1499,"x_min":112,"x_max":1367,"o":"m 1367 498 q 1184 202 1367 324 q 740 79 1001 79 q 296 202 481 79 q 112 498 112 324 q 296 793 112 671 q 740 916 479 916 q 1183 793 998 916 q 1367 498 1367 671 m 1297 498 q 1134 760 1297 650 q 740 869 970 869 q 346 761 508 869 q 183 498 183 653 q 346 235 183 345 q 740 126 509 126 q 1134 234 971 126 q 1297 498 1297 342 m 952 502 l 860 538 l 860 680 l 907 711 l 952 680 l 952 502 m 894 722 l 844 691 l 621 691 l 526 753 l 844 753 l 894 722 m 604 538 l 510 502 l 510 743 l 604 680 l 604 538 m 932 494 l 844 465 l 621 465 l 532 494 l 621 528 l 844 528 l 932 494 m 1022 235 l 860 307 l 747 455 l 851 455 l 1022 235 m 604 307 l 510 245 l 510 486 l 604 455 l 604 307 z "},"©":{"ha":1499,"x_min":112,"x_max":1367,"o":"m 1367 498 q 1184 202 1367 324 q 740 79 1001 79 q 296 202 481 79 q 112 498 112 324 q 296 793 112 671 q 740 916 479 916 q 1183 793 998 916 q 1367 498 1367 671 m 1297 498 q 1134 760 1297 650 q 740 869 970 869 q 346 761 508 869 q 183 498 183 653 q 346 235 183 345 q 740 126 509 126 q 1134 234 971 126 q 1297 498 1297 342 m 915 739 l 824 677 l 598 677 l 551 708 l 598 739 l 915 739 m 581 519 l 490 489 l 490 667 l 536 698 l 581 667 l 581 519 m 915 221 l 598 221 l 551 252 l 598 284 l 824 284 l 915 221 m 581 294 l 536 262 l 490 294 l 490 473 l 581 437 l 581 294 z "},"™":{"ha":1275,"x_min":104,"x_max":1173,"o":"m 1173 494 l 1082 494 l 1021 735 l 1017 749 l 1015 755 q 1014 769 1014 764 q 1017 793 1014 780 l 1002 756 l 994 743 l 991 737 l 823 484 l 798 484 l 629 737 l 626 744 l 619 756 l 604 793 q 607 769 607 780 q 606 755 606 760 l 604 749 l 600 735 l 538 494 l 448 494 l 568 911 l 604 911 l 785 643 l 795 627 l 799 618 q 806 598 802 610 q 809 578 809 587 q 835 643 814 610 l 1017 911 l 1052 911 l 1173 494 m 468 846 l 330 846 l 330 494 l 241 494 l 241 846 l 104 846 l 104 899 l 468 899 l 468 846 z "},"´":{"ha":265,"x_min":0,"x_max":269,"o":"m 269 660 l 157 498 l 0 498 l 111 660 l 269 660 z "},"¨":{"ha":414,"x_min":0,"x_max":415,"o":"m 415 945 l 270 945 l 270 1092 l 415 1092 l 415 945 m 145 945 l 0 945 l 0 1092 l 145 1092 l 145 945 z "},"≠":{"ha":655,"x_min":10,"x_max":645,"o":"m 10 800 l 358 800 l 479 1106 l 557 1106 l 437 800 l 645 800 l 645 709 l 402 709 l 331 526 l 645 526 l 645 436 l 296 436 l 175 130 l 96 130 l 216 436 l 10 436 l 10 526 l 252 526 l 323 709 l 10 709 l 10 800 z "},"Æ":{"ha":1194,"x_min":-16,"x_max":1132,"o":"m 1076 1086 l 1076 853 l 1054 853 q 1009 969 1038 930 q 937 1024 980 1009 q 798 1040 894 1040 l 736 1040 l 736 722 l 758 722 q 847 760 812 722 q 898 907 883 799 l 918 907 l 918 494 l 898 494 q 867 610 890 564 q 822 662 851 643 q 758 680 793 680 l 736 680 l 736 441 q 739 378 736 391 q 760 352 744 361 q 823 342 775 342 l 869 342 q 978 369 926 342 q 1059 435 1030 395 q 1110 547 1088 475 l 1132 547 l 1096 300 l 406 300 l 406 321 l 450 321 q 520 335 501 321 q 545 371 539 349 q 547 437 547 380 l 547 637 l 293 637 l 182 460 q 152 408 156 419 q 146 377 146 391 q 166 338 146 355 q 239 321 186 322 l 239 300 l -16 300 l -16 321 q 42 344 16 325 q 110 430 68 363 l 429 937 q 468 1015 468 999 q 459 1041 468 1029 q 434 1059 450 1054 q 363 1064 417 1064 l 363 1086 l 1076 1086 m 547 680 l 547 1040 l 319 680 l 547 680 z "},"Ø":{"ha":878,"x_min":90,"x_max":792,"o":"m 661 870 l 603 802 l 266 802 l 193 850 l 266 899 l 623 899 l 661 870 m 792 508 l 644 563 l 644 604 l 792 771 l 792 508 m 783 203 l 711 155 l 638 203 l 638 433 l 783 482 l 783 203 m 792 819 l 164 90 l 90 90 l 90 172 l 722 899 l 792 899 l 792 819 m 237 563 l 92 507 l 92 786 l 164 834 l 237 786 l 237 563 m 240 385 l 92 215 l 92 481 l 240 435 l 240 385 m 689 138 l 618 90 l 263 90 l 223 117 l 287 186 l 620 185 l 689 138 z "},"∞":{"ha":857,"x_min":36,"x_max":821,"o":"m 384 686 q 470 812 423 778 q 598 847 517 847 q 756 780 692 847 q 821 605 821 713 q 758 430 821 499 q 618 361 695 361 q 511 404 561 361 q 422 528 479 431 q 342 424 386 456 q 235 392 298 392 q 94 452 151 392 q 36 606 36 512 q 90 761 36 702 q 214 819 143 819 q 302 793 264 819 q 384 686 340 767 m 439 569 q 525 447 483 478 q 621 416 568 416 q 740 468 692 416 q 787 605 787 519 q 737 746 787 690 q 624 802 687 802 q 554 782 584 802 q 500 716 524 762 q 439 569 486 690 m 367 642 q 302 735 339 705 q 212 766 265 766 q 110 723 151 766 q 68 607 68 680 q 109 484 68 530 q 201 437 149 437 q 299 487 256 437 q 367 642 326 519 z "},"±":{"ha":655,"x_min":10,"x_max":645,"o":"m 11 731 l 290 731 l 290 1010 l 366 1010 l 366 731 l 645 731 l 645 654 l 366 654 l 366 455 l 645 455 l 645 378 l 11 378 l 10 454 l 290 454 l 290 654 l 11 654 l 11 731 z "},"≤":{"ha":654,"x_min":9,"x_max":645,"o":"m 645 427 l 10 694 l 10 776 l 645 1042 l 645 944 l 133 735 l 645 526 l 645 427 m 9 283 l 645 283 l 645 193 l 9 193 l 9 283 z "},"≥":{"ha":654,"x_min":9,"x_max":645,"o":"m 10 1042 l 645 776 l 645 694 l 10 427 l 10 526 l 521 734 l 10 943 l 10 1042 m 9 283 l 645 283 l 645 193 l 9 193 l 9 283 z "},"¥":{"ha":873,"x_min":45,"x_max":831,"o":"m 777 507 l 631 563 l 631 802 l 777 899 l 777 507 m 831 374 l 797 345 l 557 345 l 557 411 l 802 411 l 831 374 m 230 563 l 85 507 l 85 899 l 230 802 l 230 563 m 743 494 l 606 450 l 254 450 l 117 494 l 254 547 l 606 547 l 743 494 m 831 267 l 795 235 l 557 235 l 557 302 l 797 302 l 831 267 m 508 146 l 430 90 l 359 146 l 359 428 l 508 428 l 508 146 m 322 344 l 81 344 l 45 375 l 86 411 l 322 411 l 322 344 m 322 233 l 78 233 l 47 264 l 79 300 l 322 300 l 322 233 z "},"µ":{"ha":695,"x_min":54,"x_max":671,"o":"m 96 842 l 257 842 l 257 439 q 270 378 258 393 q 306 363 283 363 q 402 433 358 363 l 402 842 l 563 842 l 563 479 l 563 448 q 574 387 563 402 q 602 371 586 371 q 627 385 616 371 q 647 454 642 406 l 671 454 q 627 328 669 373 q 522 283 585 283 q 451 305 480 283 q 406 374 421 327 q 323 305 363 327 q 237 283 283 283 q 197 290 214 283 q 151 315 179 296 q 154 260 151 280 q 171 190 157 239 q 185 121 185 140 q 166 64 185 84 q 116 43 147 43 q 70 61 87 43 q 54 112 54 79 q 68 192 54 137 q 91 306 86 264 q 96 450 96 349 l 96 842 z "},"∂":{"ha":599,"x_min":53,"x_max":570,"o":"m 222 966 l 198 966 q 280 1091 228 1051 q 399 1131 333 1131 q 529 1072 488 1131 q 570 903 570 1013 q 509 543 570 694 q 370 332 447 392 q 236 286 315 286 q 138 309 180 286 q 75 377 97 332 q 53 469 53 422 q 89 616 53 545 q 176 739 124 687 q 284 816 229 790 q 393 842 340 842 q 530 754 488 842 q 535 828 535 802 q 468 982 535 927 q 353 1015 427 1015 q 277 1004 306 1015 q 222 966 248 992 m 521 701 q 469 786 501 760 q 397 812 437 812 q 317 777 356 812 q 235 624 268 730 q 201 422 201 519 q 219 346 201 366 q 271 326 236 326 q 387 393 328 326 q 521 701 483 507 z "},"∑":{"ha":854,"x_min":29,"x_max":827,"o":"m 791 43 l 29 43 l 29 65 l 417 587 l 29 1101 l 29 1123 l 770 1123 l 786 928 l 763 928 q 718 1042 753 1008 q 618 1076 682 1076 l 189 1076 l 515 637 l 151 146 l 625 146 q 713 161 665 146 q 768 200 746 172 q 804 288 790 228 l 827 284 l 791 43 z "},"∏":{"ha":987,"x_min":31,"x_max":956,"o":"m 724 1078 l 262 1078 l 262 155 q 284 86 262 107 q 357 66 306 66 l 377 66 l 377 43 l 31 43 l 31 66 l 52 66 q 124 86 102 66 q 146 155 146 106 l 146 1011 q 124 1081 146 1060 q 52 1101 103 1101 l 31 1101 l 31 1123 l 956 1123 l 956 1101 l 935 1101 q 863 1081 884 1101 q 841 1011 841 1060 l 841 155 q 863 86 841 107 q 935 66 884 66 l 956 66 l 956 43 l 609 43 l 609 66 l 630 66 q 702 86 681 66 q 724 155 724 106 l 724 1078 z "},"∫":{"ha":326,"x_min":0,"x_max":325,"o":"m 116 819 l 126 1156 q 155 1303 131 1244 q 199 1361 172 1342 q 252 1380 226 1380 q 303 1361 281 1380 q 325 1318 325 1341 q 309 1274 325 1291 q 271 1257 294 1257 q 227 1278 252 1257 q 204 1290 214 1290 q 188 1281 195 1290 q 181 1253 181 1273 q 186 1168 181 1229 q 208 785 208 930 q 199 443 208 744 q 146 211 194 271 q 68 172 115 172 q 19 192 38 172 q 0 242 0 211 q 15 284 0 269 q 52 300 30 300 q 92 281 75 300 q 121 262 109 262 q 137 271 131 262 q 143 298 143 279 q 138 367 143 322 q 123 564 128 450 q 116 819 116 708 z "},"ª":{"ha":359,"x_min":31,"x_max":370,"o":"m 217 815 q 102 762 153 762 q 51 781 70 762 q 31 828 31 800 q 56 884 31 858 q 217 972 89 918 l 217 1005 q 213 1052 217 1042 q 197 1068 208 1061 q 168 1076 185 1076 q 128 1065 144 1076 q 119 1051 119 1059 q 130 1034 119 1044 q 144 1005 144 1018 q 130 975 144 987 q 94 963 117 963 q 54 977 69 963 q 39 1008 39 990 q 73 1066 39 1040 q 194 1102 121 1102 q 274 1085 243 1102 q 314 1048 305 1069 q 322 972 322 1028 l 322 846 q 324 819 322 824 q 330 810 326 813 q 338 807 334 807 q 359 819 348 807 l 370 812 q 284 762 334 762 q 237 775 254 762 q 217 815 220 789 m 217 841 l 217 949 q 149 895 171 924 q 134 860 134 878 q 145 832 134 843 q 173 821 156 821 q 217 841 193 821 z "},"º":{"ha":402,"x_min":38,"x_max":368,"o":"m 202 1102 q 321 1054 275 1102 q 368 930 368 1006 q 322 805 368 852 q 203 757 277 757 q 84 805 131 757 q 38 928 38 853 q 85 1054 38 1005 q 202 1102 132 1102 m 204 1077 q 174 1067 186 1077 q 157 1035 161 1057 q 148 899 148 1000 q 163 803 148 826 q 203 781 179 781 q 233 792 220 781 q 250 823 245 803 q 258 954 258 856 q 243 1056 258 1034 q 204 1077 229 1077 z "},"Ω":{"ha":913,"x_min":6,"x_max":911,"o":"m 415 418 l 415 300 l 50 300 l 6 508 l 79 508 q 100 444 90 454 q 168 422 117 422 l 212 422 q 308 415 257 422 l 300 430 q 196 461 236 440 q 125 520 156 481 q 72 625 94 559 q 51 767 51 691 q 103 989 51 893 q 248 1132 155 1085 q 451 1179 341 1179 q 679 1127 583 1179 q 820 978 774 1074 q 866 772 866 881 q 844 623 866 693 q 783 509 821 553 q 717 458 753 476 q 617 430 680 440 l 610 415 q 705 422 665 422 l 749 422 q 810 436 793 422 q 838 508 826 450 l 911 508 l 867 300 l 503 300 l 503 418 q 574 459 551 438 q 619 520 598 480 q 655 633 640 559 q 670 791 670 706 q 608 1059 670 979 q 462 1139 547 1139 q 317 1069 372 1139 q 247 798 247 980 q 270 600 247 686 q 328 473 294 513 q 415 418 355 443 z "},"æ":{"ha":872,"x_min":61,"x_max":832,"o":"m 832 589 l 519 589 q 576 420 532 471 q 677 370 621 370 q 813 458 759 370 l 832 445 q 727 318 781 353 q 592 283 674 283 q 481 312 530 283 q 413 377 445 332 q 295 307 352 330 q 185 283 238 283 q 95 315 128 283 q 61 388 61 346 q 109 493 61 439 q 364 640 157 547 l 364 685 q 356 763 364 742 q 325 798 349 784 q 270 812 300 812 q 212 794 235 812 q 195 766 195 781 q 197 758 195 762 q 214 739 199 754 q 235 691 235 718 q 215 648 235 665 q 154 623 187 623 q 98 647 121 623 q 74 701 74 670 q 148 812 74 766 q 307 858 222 858 q 412 836 365 858 q 469 791 441 823 q 536 842 503 827 q 615 858 569 858 q 768 793 709 858 q 832 589 827 728 m 690 627 l 690 656 q 661 790 690 747 q 609 818 642 818 q 574 806 589 818 q 536 748 549 786 q 517 627 518 697 l 690 627 m 364 604 q 248 514 275 546 q 221 442 221 483 q 243 393 221 414 q 294 373 264 373 q 339 382 313 373 q 397 408 366 391 q 372 486 379 445 q 364 604 364 528 z "},"ø":{"ha":607,"x_min":46,"x_max":562,"o":"m 562 848 l 496 772 q 546 684 534 720 q 562 574 562 637 q 531 422 562 491 q 440 318 500 353 q 311 283 380 283 q 220 299 259 283 q 136 355 182 315 l 73 283 l 46 309 l 111 385 q 70 467 81 431 q 56 569 56 514 q 122 771 56 685 q 311 858 189 858 q 395 844 359 858 q 469 799 431 831 l 534 873 l 562 848 m 388 705 q 362 792 382 768 q 315 817 342 817 q 277 808 290 817 q 247 768 258 795 q 231 666 235 740 q 229 517 230 646 l 388 705 m 229 461 q 254 354 232 382 q 308 325 277 325 q 349 336 334 325 q 379 388 368 353 q 393 534 393 435 q 391 650 393 540 l 229 461 z "},"¿":{"ha":618,"x_min":78,"x_max":533,"o":"m 330 863 q 396 836 368 863 q 423 770 423 808 q 396 704 423 731 q 330 676 368 676 q 263 704 291 676 q 236 770 236 731 q 263 836 236 808 q 330 863 290 863 m 323 591 l 347 591 q 340 496 348 528 q 303 408 333 464 q 263 318 273 352 q 254 234 254 284 q 284 120 254 157 q 355 83 314 83 q 408 100 387 83 q 424 127 424 113 q 413 157 424 136 q 389 233 389 201 q 408 281 389 262 q 456 300 427 300 q 510 277 488 300 q 533 216 533 254 q 474 95 533 146 q 308 43 414 43 q 137 97 196 43 q 78 227 78 151 q 108 329 78 282 q 225 432 138 375 q 301 500 283 471 q 323 591 319 530 z "},"¡":{"ha":430,"x_min":119,"x_max":312,"o":"m 215 864 q 281 836 254 864 q 308 769 308 808 q 281 703 308 730 q 215 675 254 675 q 148 703 176 675 q 121 769 121 730 q 148 836 121 808 q 215 864 176 864 m 203 593 l 229 593 q 254 432 232 526 l 284 306 q 312 143 312 193 q 285 71 312 98 q 216 43 258 43 q 146 71 174 43 q 119 141 119 99 q 148 306 119 185 l 178 432 q 203 593 195 500 z "},"¬":{"ha":684,"x_min":28,"x_max":663,"o":"m 28 823 l 663 823 l 663 559 l 588 559 l 588 750 l 28 749 l 28 823 z "},"√":{"ha":660,"x_min":57,"x_max":660,"o":"m 617 1383 l 660 1383 l 479 254 l 192 846 l 77 793 l 57 831 l 231 918 l 466 441 l 617 1383 z "},"ƒ":{"ha":593,"x_min":-1,"x_max":594,"o":"m 412 754 l 354 465 q 283 198 314 269 q 199 86 252 128 q 90 43 146 43 q 23 64 47 43 q -1 111 -1 84 q 17 151 -1 134 q 59 168 34 168 q 100 153 83 168 q 113 123 113 142 q 111 109 113 115 q 106 92 106 95 q 110 83 106 87 q 122 79 115 79 q 153 97 138 79 q 167 150 167 115 q 163 210 167 165 q 161 257 161 235 q 165 334 161 302 q 185 443 170 366 l 248 754 l 165 754 l 180 825 q 266 848 237 825 q 326 955 295 871 q 399 1072 357 1038 q 501 1104 441 1104 q 570 1083 547 1104 q 594 1030 594 1062 q 576 983 594 1001 q 532 964 559 964 q 495 979 509 964 q 481 1012 481 994 q 496 1056 481 1024 q 499 1065 499 1061 q 494 1073 499 1069 q 484 1077 490 1077 q 445 1056 462 1077 q 429 997 429 1036 q 431 943 429 974 q 433 897 433 912 q 426 825 433 870 l 515 825 l 501 754 l 412 754 z "},"≈":{"ha":654,"x_min":9,"x_max":646,"o":"m 609 935 l 646 935 q 598 789 645 841 q 484 736 551 736 q 416 746 452 736 q 265 805 380 756 q 145 840 183 840 q 81 817 106 840 q 46 737 56 793 l 9 737 q 55 884 14 833 q 167 935 97 935 q 231 928 199 935 q 389 867 288 911 q 472 836 444 843 q 510 831 490 831 q 576 858 549 831 q 609 935 604 884 m 609 640 l 646 640 q 598 494 645 546 q 484 441 551 441 q 416 451 452 441 q 265 509 380 461 q 145 545 183 545 q 81 521 106 545 q 46 442 56 497 l 9 442 q 55 589 14 538 q 166 640 97 640 q 230 632 199 640 q 389 572 288 616 q 472 541 445 547 q 510 535 490 535 q 576 562 549 535 q 609 640 604 589 z "},"∆":{"ha":732,"x_min":18,"x_max":713,"o":"m 713 300 l 18 300 l 382 1103 l 713 300 m 577 347 l 346 907 l 90 347 l 577 347 z "},"«":{"ha":687,"x_min":45,"x_max":643,"o":"m 643 616 l 471 365 l 314 365 l 484 616 l 643 616 m 376 616 l 203 365 l 45 365 l 216 616 l 376 616 m 642 90 l 483 90 l 314 338 l 471 338 l 642 90 m 373 90 l 214 90 l 45 338 l 203 338 l 373 90 z "},"»":{"ha":687,"x_min":45,"x_max":643,"o":"m 643 367 l 488 367 l 315 616 l 476 616 l 643 367 m 376 367 l 220 367 l 47 616 l 208 616 l 376 367 m 643 340 l 474 90 l 314 90 l 488 340 l 643 340 m 375 340 l 206 90 l 45 90 l 220 340 l 375 340 z "},"…":{"ha":997,"x_min":85,"x_max":912,"o":"m 912 140 q 885 97 912 115 q 821 79 859 79 q 757 97 783 79 q 730 140 730 114 q 757 183 730 165 q 821 201 783 201 q 886 184 859 201 q 912 140 912 167 m 589 140 q 563 97 589 114 q 498 79 536 79 q 433 97 460 79 q 407 140 407 114 q 433 183 407 165 q 498 201 460 201 q 563 183 536 201 q 589 140 589 165 m 268 140 q 241 97 268 114 q 176 79 215 79 q 112 97 138 79 q 85 140 85 114 q 112 183 85 165 q 176 201 138 201 q 241 183 215 201 q 268 140 268 165 z "},"À":{"ha":1031,"x_min":90,"x_max":782,"o":"m 782 507 l 637 563 l 637 786 l 782 884 l 782 507 m 758 899 l 613 802 l 260 802 l 114 899 l 758 899 m 235 563 l 90 507 l 90 884 l 235 786 l 235 563 m 749 494 l 613 450 l 260 450 l 124 494 l 260 547 l 613 547 l 749 494 m 782 90 l 637 186 l 637 433 l 782 482 l 782 90 m 235 186 l 90 90 l 90 482 l 235 433 l 235 186 m 454 1041 l 295 1041 l 185 1203 l 344 1203 l 454 1041 z "},"Ã":{"ha":1031,"x_min":90,"x_max":782,"o":"m 782 507 l 637 563 l 637 786 l 782 884 l 782 507 m 758 899 l 613 802 l 260 802 l 114 899 l 758 899 m 235 563 l 90 507 l 90 884 l 235 786 l 235 563 m 749 494 l 613 450 l 260 450 l 124 494 l 260 547 l 613 547 l 749 494 m 782 90 l 637 186 l 637 433 l 782 482 l 782 90 m 235 186 l 90 90 l 90 482 l 235 433 l 235 186 m 703 1121 l 642 991 l 544 1112 l 561 1147 l 703 1121 m 607 978 l 371 1027 l 269 1147 l 513 1097 l 607 978 m 330 1013 l 313 978 l 173 1005 l 233 1135 l 330 1013 z "},"Õ":{"ha":1031,"x_min":90,"x_max":782,"o":"m 782 507 l 637 563 l 637 786 l 709 834 l 782 786 l 782 507 m 688 850 l 613 802 l 260 802 l 186 850 l 260 899 l 613 899 l 688 850 m 782 203 l 709 155 l 637 203 l 637 433 l 782 482 l 782 203 m 235 563 l 90 507 l 90 786 l 162 834 l 235 786 l 235 563 m 235 203 l 162 155 l 90 203 l 90 482 l 235 433 l 235 203 m 688 139 l 613 90 l 260 90 l 186 139 l 260 186 l 613 186 l 688 139 m 676 1113 l 615 983 l 517 1104 l 534 1139 l 676 1113 m 581 970 l 345 1018 l 243 1139 l 487 1088 l 581 970 m 304 1005 l 287 970 l 146 997 l 206 1126 l 304 1005 z "},"Œ":{"ha":1367,"x_min":90,"x_max":1323,"o":"m 1323 899 l 1177 802 l 807 802 l 719 868 l 616 802 l 263 802 l 189 853 l 266 899 l 1323 899 m 1295 496 l 1154 450 l 810 450 l 745 498 l 816 547 l 1160 547 l 1295 496 m 785 564 l 715 515 l 638 565 l 638 788 l 715 838 l 785 788 l 785 564 m 783 193 l 715 144 l 637 194 l 637 437 l 715 486 l 783 436 l 783 193 m 239 568 l 90 510 l 90 790 l 164 836 l 239 789 l 239 568 m 1322 90 l 259 90 l 186 130 l 277 186 l 613 186 l 712 116 l 817 186 l 1178 186 l 1322 90 m 239 186 l 164 142 l 90 186 l 90 486 l 239 435 l 239 186 z "},"œ":{"ha":1657,"x_min":90,"x_max":1323,"o":"m 1323 899 l 1177 802 l 807 802 l 719 868 l 616 802 l 263 802 l 189 853 l 266 899 l 1323 899 m 1295 496 l 1154 450 l 810 450 l 745 498 l 816 547 l 1160 547 l 1295 496 m 785 564 l 715 515 l 638 565 l 638 788 l 715 838 l 785 788 l 785 564 m 783 193 l 715 144 l 637 194 l 637 437 l 715 486 l 783 436 l 783 193 m 239 568 l 90 510 l 90 790 l 164 836 l 239 789 l 239 568 m 1322 90 l 259 90 l 186 130 l 277 186 l 613 186 l 712 116 l 817 186 l 1178 186 l 1322 90 m 239 186 l 164 142 l 90 186 l 90 486 l 239 435 l 239 186 z "},"–":{"ha":871,"x_min":106,"x_max":798,"o":"m 798 291 l 727 195 l 106 195 l 177 291 l 798 291 z "},"—":{"ha":1519,"x_min":80,"x_max":1463,"o":"m 772 290 l 701 194 l 80 194 l 151 290 l 772 290 m 1463 290 l 1393 194 l 772 194 l 843 290 l 1463 290 z "},"“":{"ha":573,"x_min":45,"x_max":530,"o":"m 530 899 l 450 621 l 301 621 l 380 899 l 530 899 m 275 899 l 196 621 l 45 621 l 125 899 l 275 899 z "},"”":{"ha":573,"x_min":45,"x_max":530,"o":"m 530 899 l 450 621 l 301 621 l 380 899 l 530 899 m 275 899 l 196 621 l 45 621 l 125 899 l 275 899 z "},"‘":{"ha":322,"x_min":45,"x_max":275,"o":"m 275 899 l 196 621 l 45 621 l 125 899 l 275 899 z "},"’":{"ha":322,"x_min":45,"x_max":275,"o":"m 275 899 l 196 621 l 45 621 l 125 899 l 275 899 z "},"÷":{"ha":655,"x_min":11,"x_max":645,"o":"m 328 947 q 371 929 353 947 q 389 888 389 912 q 371 846 389 863 q 328 829 353 829 q 287 846 304 829 q 269 888 269 863 q 287 929 269 912 q 328 947 304 947 m 11 731 l 645 731 l 645 654 l 11 654 l 11 731 m 328 563 q 370 545 353 563 q 388 503 388 528 q 370 460 388 478 q 328 443 353 443 q 286 460 304 443 q 269 503 269 478 q 286 545 269 528 q 328 563 303 563 z "},"◊":{"ha":596,"x_min":32,"x_max":566,"o":"m 323 1124 l 566 711 l 323 300 l 258 300 l 32 711 l 258 1124 l 323 1124 m 292 1068 l 94 711 l 292 354 l 500 711 l 292 1068 z "},"ÿ":{"ha":1031,"x_min":90,"x_max":782,"o":"m 782 507 l 637 563 l 637 802 l 782 899 l 782 507 m 235 563 l 90 507 l 90 899 l 235 802 l 235 563 m 749 494 l 613 450 l 260 450 l 124 494 l 260 547 l 613 547 l 749 494 m 513 146 l 435 90 l 365 146 l 365 428 l 513 428 l 513 146 m 625 958 l 479 958 l 479 1104 l 625 1104 l 625 958 m 355 958 l 210 958 l 210 1104 l 355 1104 l 355 958 z "},"Ÿ":{"ha":1031,"x_min":90,"x_max":782,"o":"m 782 507 l 637 563 l 637 802 l 782 899 l 782 507 m 235 563 l 90 507 l 90 899 l 235 802 l 235 563 m 749 494 l 613 450 l 260 450 l 124 494 l 260 547 l 613 547 l 749 494 m 513 146 l 435 90 l 365 146 l 365 428 l 513 428 l 513 146 m 659 958 l 514 958 l 514 1104 l 659 1104 l 659 958 m 389 958 l 244 958 l 244 1104 l 389 1104 l 389 958 z "},"⁄":{"ha":125,"x_min":-256,"x_max":380,"o":"m 380 1102 l -178 265 l -256 265 l 303 1102 l 380 1102 z "},"€":{"ha":595,"x_min":-16,"x_max":572,"o":"m 491 726 l 221 726 q 220 679 220 703 l 478 679 l 465 634 l 220 634 q 368 338 231 338 q 479 380 434 338 q 545 473 501 402 l 572 454 q 492 340 526 371 q 334 283 429 283 q 119 395 197 283 q 43 634 54 488 l -16 634 l -2 679 l 41 679 l 41 688 q 42 726 41 705 l -16 726 l -2 772 l 46 772 q 150 999 66 907 q 378 1102 243 1102 q 488 1085 441 1102 q 557 1051 503 1080 l 557 878 l 534 878 q 490 1006 528 958 q 389 1055 452 1055 q 272 962 317 1055 q 224 772 237 889 l 504 772 l 491 726 z "},"‹":{"ha":414,"x_min":63,"x_max":351,"o":"m 306 303 l 63 570 l 309 837 l 351 837 l 214 570 l 351 303 l 306 303 z "},"›":{"ha":414,"x_min":64,"x_max":352,"o":"m 109 837 l 352 570 l 106 303 l 64 303 l 200 570 l 64 837 l 109 837 z "},"":{"ha":671,"x_min":40,"x_max":640,"o":"m 265 839 l 579 839 l 579 414 q 591 341 579 359 q 640 321 603 323 l 640 300 l 358 300 l 358 321 q 409 347 395 325 q 418 414 418 360 l 418 781 l 265 781 l 265 414 q 273 349 265 361 q 324 321 286 328 l 324 300 l 40 300 l 40 321 q 96 345 80 322 q 105 414 105 357 l 105 781 l 40 781 l 40 839 l 105 839 q 133 985 105 930 q 226 1072 161 1040 q 374 1103 290 1103 q 474 1089 432 1103 q 536 1048 517 1074 q 555 997 555 1023 q 533 947 555 968 q 473 926 511 926 q 422 939 437 926 q 402 981 402 958 q 414 1013 402 997 q 425 1037 425 1029 q 415 1057 425 1050 q 363 1067 400 1067 q 307 1053 327 1067 q 273 1006 282 1035 q 265 917 265 984 l 265 839 z "},"":{"ha":671,"x_min":37,"x_max":637,"o":"m 264 782 l 264 416 q 273 345 264 360 q 321 321 285 326 l 321 300 l 37 300 l 37 321 q 95 348 80 325 q 103 416 103 360 l 103 782 l 40 782 l 40 842 l 103 842 q 129 986 102 935 q 214 1070 156 1038 q 342 1103 272 1103 q 392 1099 365 1103 q 454 1086 420 1095 l 579 1086 l 579 416 q 583 353 579 367 q 599 331 587 340 q 637 321 611 321 l 637 300 l 356 300 l 356 321 q 393 332 381 323 q 411 357 406 342 q 415 416 415 369 l 415 782 l 264 782 m 264 842 l 415 842 l 415 947 q 399 979 399 964 q 412 1016 399 993 q 420 1038 420 1028 q 410 1055 420 1048 q 359 1066 393 1066 q 282 1027 307 1066 q 264 918 264 999 l 264 842 z "},"‡":{"ha":616,"x_min":75,"x_max":541,"o":"m 386 729 q 338 667 351 698 q 325 583 325 636 q 340 469 325 507 q 386 418 352 443 q 339 366 351 385 q 322 317 327 347 q 401 340 364 323 q 450 361 438 357 q 476 365 462 365 q 523 348 505 365 q 541 307 541 332 q 523 264 541 281 q 477 248 506 248 q 404 269 449 248 q 356 288 374 283 q 322 293 345 292 q 330 255 326 269 q 353 199 336 235 q 375 128 375 153 q 357 82 375 99 q 311 64 339 64 q 263 82 281 64 q 245 127 245 100 q 268 202 245 153 q 298 293 291 251 q 265 288 275 292 q 218 269 250 284 q 139 248 170 248 q 93 264 111 248 q 76 305 76 281 q 94 348 76 330 q 136 366 112 366 q 163 361 149 366 q 218 339 176 357 q 298 317 260 321 q 278 372 291 352 q 233 418 266 391 q 279 470 267 443 q 296 564 296 507 q 283 666 296 634 q 233 729 269 699 q 278 775 264 753 q 298 829 292 798 q 212 804 262 827 q 136 781 163 781 q 92 799 109 781 q 75 841 75 817 q 93 882 75 864 q 136 899 111 899 q 165 895 151 899 q 220 873 180 891 q 298 852 260 854 q 267 938 291 887 q 242 1017 242 989 q 261 1066 242 1046 q 307 1086 281 1086 q 354 1067 335 1086 q 373 1021 373 1048 q 369 990 373 1005 q 346 934 365 976 q 322 852 327 892 q 361 859 346 854 q 416 882 376 863 q 475 901 456 901 q 523 880 500 901 q 540 840 540 865 q 523 799 540 815 q 477 783 505 783 q 448 786 460 783 q 415 800 442 787 q 364 821 379 816 q 322 829 349 825 q 339 775 326 797 q 386 729 352 754 z "},"·":{"ha":315,"x_min":60,"x_max":255,"o":"m 157 790 q 226 761 197 790 q 255 692 255 732 q 226 624 255 652 q 157 595 197 595 q 89 624 117 595 q 60 692 60 652 q 89 761 60 732 q 157 790 117 790 z "},"‚":{"ha":425,"x_min":103,"x_max":323,"o":"m 123 92 l 123 117 q 221 192 191 146 q 252 286 252 238 q 248 301 252 296 q 239 306 244 306 q 229 302 237 306 q 187 292 213 292 q 128 318 153 292 q 103 381 103 345 q 132 448 103 419 q 202 477 161 477 q 287 439 252 477 q 323 333 323 401 q 273 186 323 250 q 123 92 222 121 z "},"„":{"ha":610,"x_min":56,"x_max":555,"o":"m 76 92 l 76 120 q 170 189 136 142 q 205 288 205 237 q 201 303 205 298 q 196 307 199 307 q 187 303 193 307 q 140 290 168 290 q 81 317 106 290 q 56 380 56 344 q 85 449 56 419 q 157 479 115 479 q 240 439 205 479 q 276 332 276 399 q 228 192 276 254 q 76 92 180 130 m 355 92 l 355 120 q 449 189 414 142 q 483 288 483 237 q 479 303 483 298 q 475 307 477 307 q 465 303 472 307 q 419 290 448 290 q 360 317 385 290 q 335 380 335 344 q 364 449 335 419 q 436 479 393 479 q 519 439 484 479 q 555 332 555 399 q 507 192 555 254 q 355 92 459 130 z "},"‰":{"ha":1687,"x_min":45,"x_max":1644,"o":"m 1554 459 l 1490 406 l 1347 406 l 1283 458 l 1350 505 l 1490 505 l 1554 459 m 1644 206 l 1577 158 l 1514 206 l 1514 397 l 1577 446 l 1644 397 l 1644 206 m 972 899 l 618 473 l 568 571 l 844 899 l 972 899 m 1326 205 l 1263 157 l 1193 206 l 1193 397 l 1263 445 l 1326 397 l 1326 205 m 1554 140 l 1489 90 l 1348 90 l 1280 140 l 1347 186 l 1490 186 l 1554 140 m 1010 459 l 947 406 l 804 406 l 740 458 l 805 505 l 947 505 l 1010 459 m 407 848 l 342 802 l 199 802 l 136 848 l 201 899 l 342 899 l 407 848 m 1101 206 l 1033 158 l 970 206 l 970 397 l 1031 446 l 1101 397 l 1101 206 m 496 597 l 429 547 l 366 595 l 366 787 l 429 836 l 496 788 l 496 597 m 783 205 l 720 157 l 650 206 l 650 397 l 720 445 l 783 397 l 783 205 m 179 595 l 115 547 l 45 595 l 45 787 l 115 834 l 179 786 l 179 595 m 407 530 l 341 486 l 201 486 l 133 530 l 199 582 l 342 582 l 407 530 m 1010 140 l 945 90 l 804 90 l 737 140 l 804 186 l 947 186 l 1010 140 m 599 450 l 298 90 l 172 90 l 473 450 l 599 450 z "},"Â":{"ha":1031,"x_min":90,"x_max":782,"o":"m 782 507 l 637 563 l 637 786 l 782 884 l 782 507 m 758 899 l 613 802 l 260 802 l 114 899 l 758 899 m 235 563 l 90 507 l 90 884 l 235 786 l 235 563 m 749 494 l 613 450 l 260 450 l 124 494 l 260 547 l 613 547 l 749 494 m 782 90 l 637 186 l 637 433 l 782 482 l 782 90 m 235 186 l 90 90 l 90 482 l 235 433 l 235 186 m 766 969 l 552 969 l 448 1036 l 492 1147 l 766 969 m 410 1036 l 306 969 l 104 969 l 370 1147 l 410 1036 z "},"Ê":{"ha":928,"x_min":90,"x_max":769,"o":"m 758 899 l 613 802 l 260 802 l 114 899 l 758 899 m 235 563 l 90 507 l 90 884 l 235 786 l 235 563 m 749 494 l 613 450 l 260 450 l 124 494 l 260 547 l 613 547 l 749 494 m 758 90 l 114 90 l 260 186 l 613 186 l 758 90 m 235 203 l 90 105 l 90 482 l 235 433 l 235 203 m 769 969 l 555 969 l 451 1036 l 496 1147 l 769 969 m 414 1036 l 309 969 l 108 969 l 374 1147 l 414 1036 z "},"Á":{"ha":1031,"x_min":90,"x_max":782,"o":"m 782 507 l 637 563 l 637 786 l 782 884 l 782 507 m 758 899 l 613 802 l 260 802 l 114 899 l 758 899 m 235 563 l 90 507 l 90 884 l 235 786 l 235 563 m 749 494 l 613 450 l 260 450 l 124 494 l 260 547 l 613 547 l 749 494 m 782 90 l 637 186 l 637 433 l 782 482 l 782 90 m 235 186 l 90 90 l 90 482 l 235 433 l 235 186 m 625 1210 l 513 1048 l 356 1048 l 466 1210 l 625 1210 z "},"Ë":{"ha":928,"x_min":90,"x_max":758,"o":"m 758 899 l 613 802 l 260 802 l 114 899 l 758 899 m 235 563 l 90 507 l 90 884 l 235 786 l 235 563 m 749 494 l 613 450 l 260 450 l 124 494 l 260 547 l 613 547 l 749 494 m 758 90 l 114 90 l 260 186 l 613 186 l 758 90 m 235 203 l 90 105 l 90 482 l 235 433 l 235 203 m 647 955 l 502 955 l 502 1101 l 647 1101 l 647 955 m 377 955 l 232 955 l 232 1101 l 377 1101 l 377 955 z "},"È":{"ha":928,"x_min":90,"x_max":758,"o":"m 758 899 l 613 802 l 260 802 l 114 899 l 758 899 m 235 563 l 90 507 l 90 884 l 235 786 l 235 563 m 749 494 l 613 450 l 260 450 l 124 494 l 260 547 l 613 547 l 749 494 m 758 90 l 114 90 l 260 186 l 613 186 l 758 90 m 235 203 l 90 105 l 90 482 l 235 433 l 235 203 m 454 1041 l 296 1041 l 186 1203 l 344 1203 l 454 1041 z "},"Í":{"ha":354,"x_min":76,"x_max":346,"o":"m 221 507 l 76 563 l 76 802 l 221 899 l 221 507 m 221 90 l 76 186 l 76 433 l 221 482 l 221 90 m 346 1202 l 235 1041 l 77 1041 l 187 1202 l 346 1202 z "},"Î":{"ha":354,"x_min":-178,"x_max":484,"o":"m 175 507 l 30 563 l 30 802 l 175 899 l 175 507 m 175 90 l 30 186 l 30 433 l 175 482 l 175 90 m 484 966 l 270 966 l 165 1032 l 210 1144 l 484 966 m 128 1032 l 24 966 l -178 966 l 87 1145 l 128 1032 z "},"Ï":{"ha":354,"x_min":-51,"x_max":364,"o":"m 204 507 l 59 563 l 59 802 l 204 899 l 204 507 m 204 90 l 59 186 l 59 433 l 204 482 l 204 90 m 364 958 l 219 958 l 219 1104 l 364 1104 l 364 958 m 94 958 l -51 958 l -51 1104 l 94 1104 l 94 958 z "},"Ì":{"ha":354,"x_min":-48,"x_max":221,"o":"m 221 507 l 76 563 l 76 802 l 221 899 l 221 507 m 221 90 l 76 186 l 76 433 l 221 482 l 221 90 m 220 1041 l 62 1041 l -48 1203 l 111 1203 l 220 1041 z "},"Ó":{"ha":1031,"x_min":90,"x_max":782,"o":"m 782 507 l 637 563 l 637 786 l 709 834 l 782 786 l 782 507 m 688 850 l 613 802 l 260 802 l 186 850 l 260 899 l 613 899 l 688 850 m 782 203 l 709 155 l 637 203 l 637 433 l 782 482 l 782 203 m 235 563 l 90 507 l 90 786 l 162 834 l 235 786 l 235 563 m 235 203 l 162 155 l 90 203 l 90 482 l 235 433 l 235 203 m 688 139 l 613 90 l 260 90 l 186 139 l 260 186 l 613 186 l 688 139 m 627 1202 l 516 1041 l 359 1041 l 469 1202 l 627 1202 z "},"Ô":{"ha":1031,"x_min":90,"x_max":783,"o":"m 782 507 l 637 563 l 637 786 l 709 834 l 782 786 l 782 507 m 688 850 l 613 802 l 260 802 l 186 850 l 260 899 l 613 899 l 688 850 m 782 203 l 709 155 l 637 203 l 637 433 l 782 482 l 782 203 m 235 563 l 90 507 l 90 786 l 162 834 l 235 786 l 235 563 m 235 203 l 162 155 l 90 203 l 90 482 l 235 433 l 235 203 m 688 139 l 613 90 l 260 90 l 186 139 l 260 186 l 613 186 l 688 139 m 783 970 l 569 970 l 465 1037 l 509 1148 l 783 970 m 427 1037 l 323 970 l 121 970 l 387 1149 l 427 1037 z "},"Ò":{"ha":1031,"x_min":90,"x_max":782,"o":"m 782 507 l 637 563 l 637 786 l 709 834 l 782 786 l 782 507 m 688 850 l 613 802 l 260 802 l 186 850 l 260 899 l 613 899 l 688 850 m 782 203 l 709 155 l 637 203 l 637 433 l 782 482 l 782 203 m 235 563 l 90 507 l 90 786 l 162 834 l 235 786 l 235 563 m 235 203 l 162 155 l 90 203 l 90 482 l 235 433 l 235 203 m 688 139 l 613 90 l 260 90 l 186 139 l 260 186 l 613 186 l 688 139 m 498 1038 l 340 1038 l 229 1200 l 388 1200 l 498 1038 z "},"Ú":{"ha":1031,"x_min":90,"x_max":782,"o":"m 782 507 l 637 563 l 637 806 l 782 899 l 782 507 m 235 563 l 90 507 l 90 899 l 235 806 l 235 563 m 782 203 l 709 155 l 637 203 l 637 433 l 782 482 l 782 203 m 235 203 l 162 155 l 90 203 l 90 482 l 235 433 l 235 203 m 688 139 l 613 90 l 260 90 l 186 139 l 260 186 l 613 186 l 688 139 m 646 1202 l 534 1041 l 376 1041 l 487 1202 l 646 1202 z "},"Û":{"ha":1031,"x_min":90,"x_max":782,"o":"m 782 507 l 637 563 l 637 806 l 782 899 l 782 507 m 235 563 l 90 507 l 90 899 l 235 806 l 235 563 m 782 203 l 709 155 l 637 203 l 637 433 l 782 482 l 782 203 m 235 203 l 162 155 l 90 203 l 90 482 l 235 433 l 235 203 m 688 139 l 613 90 l 260 90 l 186 139 l 260 186 l 613 186 l 688 139 m 769 965 l 555 965 l 450 1031 l 496 1143 l 769 965 m 413 1031 l 309 965 l 107 965 l 373 1143 l 413 1031 z "},"Ù":{"ha":1031,"x_min":90,"x_max":782,"o":"m 782 507 l 637 563 l 637 806 l 782 899 l 782 507 m 235 563 l 90 507 l 90 899 l 235 806 l 235 563 m 782 203 l 709 155 l 637 203 l 637 433 l 782 482 l 782 203 m 235 203 l 162 155 l 90 203 l 90 482 l 235 433 l 235 203 m 688 139 l 613 90 l 260 90 l 186 139 l 260 186 l 613 186 l 688 139 m 484 1042 l 326 1042 l 216 1204 l 374 1204 l 484 1042 z "},"ı":{"ha":319,"x_min":90,"x_max":235,"o":"m 235 507 l 90 563 l 90 802 l 235 899 l 235 507 m 235 90 l 90 186 l 90 433 l 235 482 l 235 90 z "},"ˆ":{"ha":399,"x_min":14,"x_max":387,"o":"m 269 1126 l 387 906 l 342 906 l 203 1025 l 62 909 l 14 909 l 138 1126 l 269 1126 z "},"˜":{"ha":399,"x_min":14,"x_max":389,"o":"m 357 1093 l 388 1093 q 389 1074 389 1081 q 353 971 389 1010 q 266 932 317 932 q 171 959 228 932 q 95 986 114 986 q 66 975 77 986 q 50 932 54 963 l 16 932 q 50 1051 14 1008 q 141 1094 87 1094 q 170 1090 159 1094 q 226 1067 186 1086 q 311 1040 286 1040 q 336 1050 324 1040 q 357 1093 347 1061 z "},"ˉ":{"ha":399,"x_min":14,"x_max":386,"o":"m 14 1027 l 386 1027 l 386 932 l 14 932 l 14 1027 z "},"˘":{"ha":404,"x_min":26,"x_max":378,"o":"m 340 1103 l 378 1103 q 321 970 373 1022 q 203 918 270 918 q 84 970 136 918 q 26 1103 32 1022 l 64 1103 q 110 1049 79 1067 q 198 1030 141 1030 q 293 1048 262 1030 q 340 1103 324 1066 z "},"˙":{"ha":434,"x_min":132,"x_max":303,"o":"m 217 1093 q 278 1068 253 1093 q 303 1008 303 1043 q 278 947 303 972 q 217 922 253 922 q 157 947 182 922 q 132 1008 132 972 q 157 1068 132 1043 q 217 1093 182 1093 z "},"˚":{"ha":421,"x_min":90,"x_max":332,"o":"m 211 1133 q 297 1097 262 1133 q 332 1011 332 1062 q 297 925 332 961 q 211 890 261 890 q 125 925 161 890 q 90 1011 90 961 q 125 1097 90 1062 q 211 1133 161 1133 m 212 1088 q 157 1066 179 1088 q 134 1011 134 1044 q 157 958 134 980 q 212 935 180 935 q 266 958 243 935 q 288 1011 288 980 q 266 1066 288 1044 q 212 1088 243 1088 z "},"¸":{"ha":429,"x_min":98,"x_max":296,"o":"m 213 307 l 252 307 l 224 264 q 277 236 259 258 q 296 180 296 214 q 278 125 296 150 q 232 90 260 100 q 98 77 188 76 l 98 104 q 177 123 157 106 q 197 168 197 139 q 184 197 197 185 q 144 209 170 209 l 213 307 z "},"˝":{"ha":399,"x_min":76,"x_max":448,"o":"m 264 1113 l 122 912 l 76 912 l 143 1113 l 264 1113 m 448 1113 l 309 912 l 263 912 l 328 1113 l 448 1113 z "},"˛":{"ha":415,"x_min":69,"x_max":347,"o":"m 176 309 l 227 309 q 171 223 171 267 q 193 158 171 191 q 248 109 214 125 q 330 92 282 93 l 347 73 q 298 43 318 52 q 231 31 265 31 q 116 75 163 31 q 69 173 69 119 q 176 309 69 258 z "},"ˇ":{"ha":399,"x_min":14,"x_max":387,"o":"m 132 906 l 14 1126 l 58 1126 l 197 1008 l 339 1124 l 387 1124 l 262 906 l 132 906 z "},"Ł":{"ha":804,"x_min":28,"x_max":753,"o":"m 753 575 l 723 300 l 28 300 l 28 321 l 55 321 q 110 332 90 321 q 132 360 125 341 q 138 440 138 374 l 138 587 l 28 499 l 28 553 l 138 642 l 138 943 q 131 1023 138 1007 q 107 1050 125 1039 q 55 1061 89 1061 l 28 1061 l 28 1086 l 446 1086 l 446 1061 l 409 1061 q 351 1046 368 1061 q 328 1010 333 1032 q 326 943 326 1002 l 326 791 l 460 895 l 460 842 l 326 736 l 326 450 q 334 371 326 388 q 362 347 341 354 q 432 343 370 343 l 496 343 q 640 395 582 343 q 732 575 699 447 l 753 575 z "},"ł":{"ha":336,"x_min":26,"x_max":318,"o":"m 254 1086 l 254 785 l 318 837 l 318 788 l 254 736 l 254 416 q 267 339 254 355 q 318 321 280 323 l 318 300 l 29 300 l 29 321 q 81 339 65 321 q 93 416 93 353 l 93 607 l 26 553 l 26 602 l 93 656 l 93 968 q 79 1042 93 1026 q 29 1059 66 1058 l 29 1086 l 254 1086 z "},"Š":{"ha":1031,"x_min":90,"x_max":782,"o":"m 782 899 l 625 802 l 260 802 l 186 850 l 260 899 l 782 899 m 782 203 l 709 155 l 637 203 l 637 433 l 782 482 l 782 203 m 749 494 l 613 450 l 260 450 l 124 494 l 260 547 l 613 547 l 749 494 m 235 563 l 90 507 l 90 786 l 162 834 l 235 786 l 235 563 m 688 139 l 613 90 l 90 90 l 249 186 l 613 186 l 688 139 m 759 1146 l 494 967 l 460 1080 l 564 1146 l 759 1146 m 429 1076 l 388 968 l 109 1146 l 317 1146 l 429 1076 z "},"š":{"ha":1031,"x_min":90,"x_max":782,"o":"m 782 899 l 625 802 l 260 802 l 186 850 l 260 899 l 782 899 m 782 203 l 709 155 l 637 203 l 637 433 l 782 482 l 782 203 m 749 494 l 613 450 l 260 450 l 124 494 l 260 547 l 613 547 l 749 494 m 235 563 l 90 507 l 90 786 l 162 834 l 235 786 l 235 563 m 688 139 l 613 90 l 90 90 l 249 186 l 613 186 l 688 139 m 759 1146 l 494 967 l 460 1080 l 564 1146 l 759 1146 m 429 1076 l 388 968 l 109 1146 l 317 1146 l 429 1076 z "},"Ž":{"ha":879,"x_min":15,"x_max":705,"o":"m 705 899 l 445 500 l 350 602 l 546 899 l 705 899 m 515 899 l 452 802 l 187 802 l 42 899 l 515 899 m 435 483 l 174 90 l 15 90 l 262 460 l 435 483 m 676 90 l 201 90 l 273 186 l 529 186 l 676 90 m 695 1149 l 430 970 l 396 1082 l 500 1149 l 695 1149 m 364 1079 l 324 971 l 45 1149 l 253 1149 l 364 1079 z "},"ž":{"ha":879,"x_min":15,"x_max":705,"o":"m 705 899 l 445 500 l 350 602 l 546 899 l 705 899 m 515 899 l 452 802 l 187 802 l 42 899 l 515 899 m 435 483 l 174 90 l 15 90 l 262 460 l 435 483 m 676 90 l 201 90 l 273 186 l 529 186 l 676 90 m 695 1149 l 430 970 l 396 1082 l 500 1149 l 695 1149 m 364 1079 l 324 971 l 45 1149 l 253 1149 l 364 1079 z "},"¦":{"ha":319,"x_min":90,"x_max":235,"o":"m 235 507 l 90 563 l 90 802 l 235 899 l 235 507 m 235 90 l 90 186 l 90 433 l 235 482 l 235 90 z "},"Ð":{"ha":1022,"x_min":-15,"x_max":948,"o":"m 948 507 l 803 563 l 803 786 l 875 834 l 948 786 l 948 507 m 854 850 l 779 802 l 426 802 l 280 899 l 779 899 l 854 850 m 401 563 l 256 507 l 256 884 l 401 786 l 401 563 m 948 203 l 875 155 l 803 203 l 803 433 l 948 482 l 948 203 m 401 203 l 256 105 l 256 482 l 401 433 l 401 203 m 854 139 l 779 90 l 280 90 l 426 186 l 779 186 l 854 139 m 222 543 l 152 446 l -15 446 l 57 543 l 222 543 z "},"ð":{"ha":1022,"x_min":-15,"x_max":948,"o":"m 948 507 l 803 563 l 803 786 l 875 834 l 948 786 l 948 507 m 854 850 l 779 802 l 426 802 l 280 899 l 779 899 l 854 850 m 401 563 l 256 507 l 256 884 l 401 786 l 401 563 m 948 203 l 875 155 l 803 203 l 803 433 l 948 482 l 948 203 m 401 203 l 256 105 l 256 482 l 401 433 l 401 203 m 854 139 l 779 90 l 280 90 l 426 186 l 779 186 l 854 139 m 222 543 l 152 446 l -15 446 l 57 543 l 222 543 z "},"Ý":{"ha":1031,"x_min":90,"x_max":782,"o":"m 782 507 l 637 563 l 637 802 l 782 899 l 782 507 m 235 563 l 90 507 l 90 899 l 235 802 l 235 563 m 749 494 l 613 450 l 260 450 l 124 494 l 260 547 l 613 547 l 749 494 m 513 146 l 435 90 l 365 146 l 365 428 l 513 428 l 513 146 m 643 1202 l 532 1041 l 374 1041 l 484 1202 l 643 1202 z "},"ý":{"ha":1031,"x_min":90,"x_max":782,"o":"m 782 507 l 637 563 l 637 802 l 782 899 l 782 507 m 235 563 l 90 507 l 90 899 l 235 802 l 235 563 m 749 494 l 613 450 l 260 450 l 124 494 l 260 547 l 613 547 l 749 494 m 513 146 l 435 90 l 365 146 l 365 428 l 513 428 l 513 146 m 629 1202 l 517 1041 l 360 1041 l 470 1202 l 629 1202 z "},"Þ":{"ha":736,"x_min":28,"x_max":689,"o":"m 318 911 l 360 911 q 524 896 467 911 q 644 824 600 878 q 689 696 689 770 q 656 582 689 634 q 562 504 624 530 q 359 477 500 477 l 318 477 l 318 442 q 324 358 318 373 q 346 334 330 344 q 400 321 368 321 l 425 321 l 425 300 l 28 300 l 28 321 l 56 321 q 113 337 93 321 q 134 368 128 347 q 137 431 137 378 l 137 945 q 131 1029 137 1013 q 110 1053 125 1044 q 54 1065 88 1065 l 28 1065 l 28 1086 l 425 1086 l 425 1065 l 399 1065 q 342 1051 361 1065 q 321 1019 327 1040 q 318 946 318 1008 l 318 911 m 318 866 l 318 523 q 430 538 399 523 q 475 583 460 553 q 496 696 496 625 q 475 798 496 758 q 420 854 454 838 q 332 866 395 866 l 318 866 z "},"þ":{"ha":673,"x_min":26,"x_max":613,"o":"m 254 355 l 254 153 q 260 95 254 110 q 281 73 267 79 q 336 66 295 66 l 336 43 l 26 43 l 26 66 q 80 85 62 66 q 92 157 92 99 l 92 991 q 78 1064 92 1048 q 26 1082 64 1080 l 26 1103 l 254 1103 l 254 770 q 312 831 282 812 q 404 858 355 858 q 513 820 464 858 q 587 716 562 783 q 613 573 613 650 q 587 423 613 491 q 510 319 560 355 q 398 283 459 283 q 315 303 354 283 q 254 355 286 318 m 254 414 q 360 342 304 342 q 412 376 392 342 q 442 561 442 425 q 409 753 442 701 q 350 787 387 787 q 254 703 291 787 l 254 414 z "},"−":{"ha":503,"x_min":0,"x_max":505,"o":"m 505 433 l 408 337 l 0 337 l 98 433 l 505 433 z "},"×":{"ha":915,"x_min":207,"x_max":710,"o":"m 654 693 l 710 595 l 576 507 l 478 509 l 478 578 l 654 693 m 437 574 l 441 507 l 333 507 l 207 591 l 262 691 l 437 574 m 441 486 l 437 414 l 262 298 l 208 397 l 336 483 l 441 486 m 704 397 l 649 298 l 475 414 l 475 484 l 576 482 l 704 397 z "},"¹":{"ha":498,"x_min":215,"x_max":287,"o":"m 287 879 l 215 907 l 215 1027 l 287 1075 l 287 879 m 287 670 l 215 718 l 215 842 l 287 867 l 287 670 z "},"²":{"ha":433,"x_min":45,"x_max":392,"o":"m 392 872 l 319 901 l 319 1012 l 355 1036 l 392 1012 l 392 872 m 345 1043 l 308 1020 l 45 1020 l 130 1068 l 308 1068 l 345 1043 m 375 865 l 308 843 l 130 843 l 62 865 l 130 892 l 308 892 l 375 865 m 392 663 l 130 663 l 93 688 l 130 711 l 322 711 l 392 663 m 119 720 l 81 696 l 45 720 l 45 860 l 119 836 l 119 720 z "},"³":{"ha":439,"x_min":52,"x_max":383,"o":"m 383 872 l 310 901 l 310 1012 l 346 1036 l 383 1012 l 383 872 m 336 1043 l 298 1020 l 121 1020 l 52 1068 l 298 1068 l 336 1043 m 383 720 l 346 696 l 310 720 l 310 836 l 383 860 l 383 720 m 366 865 l 298 843 l 121 843 l 54 865 l 121 892 l 298 892 l 366 865 m 336 688 l 298 663 l 52 663 l 121 711 l 298 711 l 336 688 z "},"½":{"ha":989,"x_min":112,"x_max":905,"o":"m 905 305 l 833 334 l 833 445 l 868 469 l 905 445 l 905 305 m 858 476 l 821 452 l 559 452 l 644 501 l 821 501 l 858 476 m 888 298 l 821 276 l 644 276 l 576 298 l 644 326 l 821 326 l 888 298 m 905 96 l 644 96 l 607 121 l 644 144 l 836 144 l 905 96 m 631 153 l 595 129 l 559 153 l 559 293 l 631 268 l 631 153 m 267 879 l 195 907 l 195 1027 l 267 1075 l 267 879 m 267 670 l 195 718 l 195 842 l 267 867 l 267 670 m 648 899 l 419 473 l 371 571 l 547 899 l 648 899 m 408 450 l 213 90 l 112 90 l 307 450 l 408 450 z "},"¼":{"ha":1098,"x_min":175,"x_max":1029,"o":"m 279 879 l 208 907 l 208 1027 l 279 1075 l 279 879 m 279 670 l 208 718 l 208 842 l 279 867 l 279 670 m 1029 309 l 957 337 l 957 456 l 1029 505 l 1029 309 m 755 337 l 684 309 l 684 505 l 755 456 l 755 337 m 1012 302 l 945 279 l 768 279 l 701 302 l 768 329 l 945 329 l 1012 302 m 1029 100 l 957 148 l 957 271 l 1029 296 l 1029 100 m 711 899 l 482 473 l 434 571 l 610 899 l 711 899 m 471 450 l 276 90 l 175 90 l 370 450 l 471 450 z "},"¾":{"ha":1075,"x_min":52,"x_max":1005,"o":"m 383 872 l 310 901 l 310 1012 l 346 1036 l 383 1012 l 383 872 m 336 1043 l 298 1020 l 121 1020 l 52 1068 l 298 1068 l 336 1043 m 383 720 l 346 696 l 310 720 l 310 836 l 383 860 l 383 720 m 366 865 l 298 843 l 121 843 l 54 865 l 121 892 l 298 892 l 366 865 m 336 688 l 298 663 l 52 663 l 121 711 l 298 711 l 336 688 m 1005 309 l 933 337 l 933 456 l 1005 505 l 1005 309 m 732 337 l 660 309 l 660 505 l 732 456 l 732 337 m 988 302 l 921 279 l 744 279 l 677 302 l 744 329 l 921 329 l 988 302 m 1005 100 l 933 148 l 933 271 l 1005 296 l 1005 100 m 722 899 l 492 473 l 444 571 l 621 899 l 722 899 m 481 450 l 286 90 l 185 90 l 380 450 l 481 450 z "},"₣":{"ha":600,"x_min":14,"x_max":570,"o":"m 314 467 l 433 467 l 433 423 l 314 423 q 321 358 314 373 q 348 332 328 343 q 399 321 367 321 l 425 321 l 425 300 l 14 300 l 14 321 l 41 321 q 98 336 78 321 q 121 366 115 347 q 125 417 125 378 l 125 423 l 14 423 l 14 467 l 125 467 l 125 951 q 119 1026 125 1011 q 93 1053 112 1042 q 41 1064 73 1064 l 14 1064 l 14 1086 l 570 1086 l 570 860 l 546 860 q 522 949 540 914 q 475 1004 505 984 q 403 1034 446 1024 q 314 1040 374 1040 l 314 718 q 423 760 382 720 q 473 886 463 800 l 493 886 l 493 492 l 473 492 q 426 626 464 585 q 314 675 389 667 l 314 467 z "},"Ğ":{"ha":937,"x_min":0,"x_max":0,"o":""},"ğ":{"ha":607,"x_min":0,"x_max":0,"o":""},"İ":{"ha":472,"x_min":0,"x_max":0,"o":""},"Ş":{"ha":772,"x_min":0,"x_max":0,"o":""},"ş":{"ha":541,"x_min":0,"x_max":0,"o":""},"Ć":{"ha":881,"x_min":0,"x_max":0,"o":""},"ć":{"ha":542,"x_min":0,"x_max":0,"o":""},"Č":{"ha":875,"x_min":0,"x_max":0,"o":""},"č":{"ha":542,"x_min":0,"x_max":0,"o":""},"đ":{"ha":673,"x_min":54,"x_max":642,"o":"m 575 983 l 642 983 l 642 935 l 575 935 l 575 462 q 578 387 575 399 q 596 359 583 368 q 642 347 609 350 l 642 328 l 412 283 l 412 369 q 339 301 371 319 q 267 283 307 283 q 102 376 163 283 q 54 561 54 452 q 84 718 54 649 q 166 823 114 787 q 279 858 219 858 q 348 843 318 858 q 412 791 378 828 l 412 935 l 218 935 l 218 983 l 412 983 q 408 1027 411 1018 q 386 1054 400 1046 q 334 1061 372 1061 l 334 1086 l 575 1086 l 575 983 m 412 718 q 307 801 370 801 q 272 789 286 801 q 237 726 251 771 q 224 587 224 680 q 239 435 224 484 q 279 364 254 386 q 317 353 293 353 q 412 433 368 353 l 412 718 z "},"¯":{"ha":590,"x_min":-13,"x_max":603,"o":"m -13 1223 l 603 1223 l 603 1147 l -13 1147 l -13 1223 z "},"Ă":{"ha":863,"x_min":0,"x_max":0,"o":""},"ă":{"ha":610,"x_min":0,"x_max":0,"o":""},"Ѳ":{"ha":1080,"x_min":54,"x_max":889,"o":"m 485 1097 q 772 987 661 1097 q 889 696 889 870 q 802 432 889 546 q 474 281 686 281 q 146 425 262 281 q 54 695 54 539 q 174 987 54 869 q 450 1097 286 1097 l 485 1097 m 572 354 q 651 472 623 391 q 680 686 680 553 l 680 694 q 659 674 670 683 q 550 639 614 639 q 432 663 502 639 q 336 688 361 688 q 315 685 326 688 q 294 677 304 683 q 276 661 284 671 q 266 637 269 652 l 264 640 q 334 392 273 476 q 473 326 383 326 q 572 354 532 326 m 606 737 q 623 739 614 737 q 643 745 633 741 q 661 758 652 749 q 676 780 670 766 l 676 785 q 666 860 673 827 q 650 919 660 893 q 577 1028 622 997 q 473 1060 532 1060 q 309 949 365 1060 q 264 730 269 870 q 281 747 271 738 q 395 785 326 785 q 431 783 416 785 q 458 775 441 781 q 500 762 475 770 q 606 737 574 737 z "},"ѳ":{"ha":694,"x_min":50,"x_max":559,"o":"m 302 858 q 434 821 374 858 q 527 718 496 785 q 559 570 559 650 q 500 378 559 455 q 304 283 430 283 q 116 369 182 283 q 50 568 50 455 q 118 771 50 685 q 302 858 186 858 m 377 393 q 384 453 381 414 q 388 546 387 491 q 366 530 378 536 q 338 524 353 524 q 286 540 319 524 q 273 547 278 544 q 264 552 269 550 q 256 555 260 554 q 245 557 252 557 q 231 552 238 557 q 220 534 223 546 l 220 524 q 222 464 220 492 q 228 408 224 435 q 255 345 235 366 q 302 323 276 323 q 347 338 330 323 q 377 393 369 358 m 389 616 q 377 751 389 713 q 345 804 366 788 q 305 817 329 817 q 254 794 275 817 q 227 706 234 774 q 223 656 224 684 q 221 594 222 628 q 270 616 241 616 q 285 614 279 616 q 298 609 290 612 q 317 600 306 606 q 365 585 350 585 q 377 590 372 585 q 389 609 383 594 l 389 616 z "},"Ƣ":{"ha":1234,"x_min":52,"x_max":1232,"o":"m 427 1061 q 301 949 344 1061 q 265 685 265 856 q 319 384 265 482 q 425 317 356 317 q 502 345 471 317 q 564 466 543 384 q 586 681 586 547 q 563 917 586 840 q 505 1028 539 996 q 427 1061 471 1061 m 1232 290 l 810 290 l 810 313 l 836 313 q 893 324 871 313 q 916 353 909 334 q 924 427 924 368 l 924 933 q 829 964 924 1017 l 749 924 q 808 691 808 825 q 729 425 808 539 q 432 273 624 273 q 134 418 240 273 q 52 691 52 532 q 159 987 52 867 q 410 1098 262 1098 l 442 1098 q 703 987 601 1098 q 709 979 706 983 q 715 971 712 975 l 922 1092 l 1232 1092 l 1232 1071 l 1205 1071 q 1149 1058 1168 1071 q 1124 1031 1133 1049 q 1117 956 1117 1017 l 1117 427 q 1124 350 1117 364 q 1151 323 1131 335 q 1205 313 1170 313 l 1232 313 l 1232 290 z "},"ƣ":{"ha":916,"x_min":50,"x_max":892,"o":"m 308 815 q 256 793 277 815 q 229 704 236 771 q 223 625 225 671 q 222 521 222 580 q 230 404 222 459 q 258 341 237 363 q 305 319 279 319 q 351 334 334 319 q 381 391 373 355 q 389 473 387 418 q 392 613 392 528 q 380 749 392 711 q 348 803 370 787 q 308 815 332 815 m 657 708 q 595 730 654 760 l 538 704 q 566 568 566 640 q 507 374 566 452 q 308 281 433 281 q 117 366 184 281 q 50 566 50 452 q 118 769 50 682 q 305 856 186 856 q 439 820 376 856 q 508 759 479 796 l 661 856 l 889 856 l 889 831 q 821 775 825 831 l 821 152 q 831 86 821 99 q 892 64 846 64 l 892 41 l 575 41 l 575 64 q 629 72 612 64 q 651 94 646 80 q 657 149 657 106 l 657 708 z "},"Đ":{"ha":869,"x_min":24,"x_max":816,"o":"m 24 300 l 24 321 l 50 321 q 102 332 84 321 q 130 361 121 342 q 135 434 135 374 l 135 692 l 24 692 l 24 736 l 135 736 l 135 951 q 128 1026 135 1011 q 102 1053 121 1042 q 50 1064 83 1064 l 24 1064 l 24 1086 l 376 1086 q 603 1048 517 1086 q 762 905 708 1000 q 816 690 816 810 q 790 538 816 608 q 721 422 764 468 q 622 349 677 377 q 487 307 567 321 q 376 300 452 300 l 24 300 m 324 1041 l 323 736 l 498 736 l 498 692 l 323 692 l 324 428 q 329 368 324 378 q 344 351 334 357 q 389 342 360 342 q 537 408 486 342 q 607 686 607 498 q 559 928 607 837 q 463 1023 522 998 q 324 1041 421 1042 z "},"Ȥ":{"ha":785,"x_min":24,"x_max":760,"o":"m 732 1088 l 269 346 l 760 346 l 760 69 l 740 69 q 470 301 665 307 l 24 301 l 488 1045 l 371 1045 q 281 1042 303 1045 q 205 1011 241 1034 q 146 952 170 988 q 110 857 122 916 l 87 857 l 110 1088 l 732 1088 z "},"ȥ":{"ha":538,"x_min":25,"x_max":528,"o":"m 521 67 l 496 67 q 331 301 460 301 l 25 301 l 25 315 l 327 814 l 239 814 q 157 804 182 814 q 118 771 132 793 q 85 691 103 749 l 65 691 l 65 850 l 528 850 l 528 833 l 228 339 l 521 339 l 521 67 z "},"Ě":{"ha":808,"x_min":0,"x_max":0,"o":""},"ě":{"ha":542,"x_min":0,"x_max":0,"o":""},"Ǎ":{"ha":882,"x_min":0,"x_max":0,"o":""},"ǎ":{"ha":656,"x_min":0,"x_max":0,"o":""},"Ǐ":{"ha":541,"x_min":0,"x_max":0,"o":""},"ǐ":{"ha":386,"x_min":0,"x_max":0,"o":""},"Ǒ":{"ha":948,"x_min":0,"x_max":0,"o":""},"ǒ":{"ha":694,"x_min":0,"x_max":0,"o":""},"Ń":{"ha":868,"x_min":0,"x_max":0,"o":""},"ń":{"ha":772,"x_min":0,"x_max":0,"o":""},"Ň":{"ha":865,"x_min":0,"x_max":0,"o":""},"ň":{"ha":673,"x_min":0,"x_max":0,"o":""},"Ő":{"ha":941,"x_min":0,"x_max":0,"o":""},"ő":{"ha":610,"x_min":0,"x_max":0,"o":""},"Ǔ":{"ha":885,"x_min":0,"x_max":0,"o":""},"ǔ":{"ha":772,"x_min":0,"x_max":0,"o":""},"Ǖ":{"ha":883,"x_min":0,"x_max":0,"o":""},"ǖ":{"ha":679,"x_min":0,"x_max":0,"o":""},"Ś":{"ha":682,"x_min":0,"x_max":0,"o":""},"ś":{"ha":479,"x_min":0,"x_max":0,"o":""},"Ǘ":{"ha":886,"x_min":0,"x_max":0,"o":""},"ǘ":{"ha":680,"x_min":0,"x_max":0,"o":""},"Ǚ":{"ha":861,"x_min":0,"x_max":0,"o":""},"ǚ":{"ha":663,"x_min":0,"x_max":0,"o":""},"Ů":{"ha":870,"x_min":0,"x_max":0,"o":""},"ů":{"ha":676,"x_min":0,"x_max":0,"o":""},"Ű":{"ha":865,"x_min":0,"x_max":0,"o":""},"ű":{"ha":772,"x_min":0,"x_max":0,"o":""},"Ź":{"ha":799,"x_min":0,"x_max":0,"o":""},"ź":{"ha":616,"x_min":0,"x_max":0,"o":""},"Ż":{"ha":801,"x_min":0,"x_max":0,"o":""},"ż":{"ha":536,"x_min":0,"x_max":0,"o":""},"Γ":{"ha":766,"x_min":28,"x_max":721,"o":"m 28 1086 l 721 1086 l 721 872 l 700 872 q 664 984 686 951 q 611 1026 642 1017 q 487 1035 580 1035 l 327 1035 l 327 424 q 347 339 327 357 q 418 321 366 321 l 437 321 l 437 300 l 28 300 l 28 321 l 50 321 q 119 340 100 321 q 138 424 138 360 l 138 966 q 122 1042 138 1020 q 53 1064 107 1064 l 28 1064 l 28 1086 z "},"Θ":{"ha":939,"x_min":52,"x_max":887,"o":"m 472 1103 q 771 985 656 1103 q 887 696 887 867 q 774 403 887 524 q 471 281 661 281 q 248 337 342 281 q 102 488 153 392 q 52 695 52 583 q 109 909 52 817 q 261 1053 165 1002 q 472 1103 356 1103 m 471 1060 q 317 968 373 1060 q 262 690 262 877 q 315 420 262 515 q 471 326 368 326 q 623 415 568 326 q 677 686 677 505 q 471 1060 677 1060 m 369 543 l 347 543 l 347 831 l 369 831 q 390 773 369 791 q 470 756 410 756 q 550 773 528 756 q 571 831 571 791 l 592 831 l 592 543 l 571 543 q 481 620 571 620 q 409 614 427 620 q 379 589 390 608 q 369 543 369 571 z "},"Φ":{"ha":1000,"x_min":53,"x_max":948,"o":"m 705 321 l 705 300 l 294 300 l 294 321 q 384 339 363 321 q 405 412 404 357 q 133 510 213 421 q 53 700 53 599 q 133 886 53 800 q 405 984 212 973 q 381 1047 404 1031 q 294 1064 359 1064 l 294 1086 l 705 1086 l 705 1064 q 618 1049 640 1064 q 594 984 597 1034 q 862 892 776 978 q 948 700 948 806 q 867 509 948 599 q 594 412 785 420 q 616 339 595 357 q 705 321 637 321 m 405 939 q 241 693 241 934 q 405 456 241 467 l 405 939 m 594 456 q 716 515 675 458 q 758 699 758 572 q 594 939 758 935 l 594 456 z "},"α":{"ha":675,"x_min":59,"x_max":646,"o":"m 453 842 l 612 842 l 557 585 q 519 443 538 493 q 541 393 524 413 q 574 372 557 372 q 625 458 621 372 l 646 458 q 624 319 645 355 q 572 283 602 283 q 496 400 518 283 q 298 283 432 283 q 125 358 191 283 q 59 552 59 433 q 124 767 59 675 q 283 858 190 858 q 363 827 330 858 q 428 726 396 797 l 453 842 m 413 654 q 355 781 380 750 q 298 812 330 812 q 248 771 267 812 q 230 536 230 731 q 242 374 230 425 q 288 324 254 324 q 332 351 311 324 q 380 500 354 378 l 413 654 z "},"δ":{"ha":632,"x_min":50,"x_max":575,"o":"m 294 803 l 208 871 q 153 931 167 905 q 138 987 138 958 q 177 1069 138 1035 q 302 1103 216 1103 q 446 1077 389 1103 q 503 1004 503 1050 q 486 964 503 978 q 444 949 469 949 q 356 1005 404 949 q 260 1060 310 1060 q 205 1044 230 1060 q 181 996 181 1028 q 209 941 181 966 q 311 884 237 916 q 463 809 418 840 q 542 712 508 778 q 575 564 575 646 q 495 363 575 443 q 303 283 414 283 q 125 356 200 283 q 50 547 50 429 q 294 803 50 743 m 320 770 q 245 706 270 749 q 220 548 220 662 q 241 367 220 408 q 306 326 263 326 q 404 522 404 326 q 320 770 404 663 z "},"ε":{"ha":517,"x_min":44,"x_max":496,"o":"m 247 582 q 71 718 71 610 q 125 817 71 776 q 305 858 179 858 q 444 829 401 858 q 487 760 487 800 q 471 720 487 737 q 424 703 454 703 q 377 718 393 703 q 361 747 361 732 q 365 767 361 752 q 368 789 368 783 q 310 817 368 817 q 228 707 228 817 q 245 625 228 645 q 302 606 262 606 q 349 609 319 606 q 366 610 360 610 q 398 586 398 610 q 367 564 398 564 q 327 567 357 564 q 308 568 316 568 q 225 445 225 568 q 309 323 225 323 q 354 335 334 323 q 374 363 374 347 q 373 377 374 369 q 370 406 370 395 q 388 444 370 430 q 431 458 406 458 q 479 439 463 458 q 496 395 496 421 q 442 316 496 349 q 299 283 387 283 q 112 327 180 283 q 44 437 44 370 q 88 524 44 484 q 247 582 132 564 z "},"σ":{"ha":657,"x_min":50,"x_max":627,"o":"m 627 842 l 627 705 l 428 705 q 580 503 580 629 q 511 348 580 412 q 331 283 441 283 q 125 376 200 283 q 50 586 50 469 q 93 728 50 670 q 214 814 136 786 q 456 842 293 842 l 627 842 m 372 705 q 255 665 298 703 q 212 528 212 626 q 251 382 212 443 q 336 321 290 321 q 398 372 376 321 q 419 509 419 422 q 372 705 419 611 z "},"τ":{"ha":552,"x_min":1,"x_max":522,"o":"m 338 705 l 330 551 q 329 489 329 511 q 372 372 329 372 q 422 459 416 372 l 445 459 q 406 331 444 379 q 302 283 369 283 q 195 422 195 283 q 206 558 195 477 l 227 705 l 149 705 q 67 692 95 705 q 21 646 39 680 l 1 654 q 60 780 25 735 q 127 833 96 824 q 247 842 158 842 l 522 842 l 522 705 l 338 705 z "},"φ":{"ha":757,"x_min":54,"x_max":702,"o":"m 425 45 l 329 45 l 329 285 q 125 382 197 296 q 54 577 54 469 q 125 771 54 688 q 315 858 197 855 l 315 836 q 237 759 261 819 q 214 574 214 699 q 329 321 214 341 l 329 667 q 341 772 329 733 q 388 834 353 811 q 468 858 422 858 q 626 783 551 858 q 702 587 702 708 q 669 442 702 512 q 570 329 635 372 q 425 285 505 286 l 425 45 m 425 321 q 541 565 541 343 q 514 742 541 692 q 458 791 486 791 q 431 764 437 791 q 425 641 425 736 l 425 321 z "},"‗":{"ha":590,"x_min":-13,"x_max":603,"o":"m -13 238 l 603 238 l 603 163 l -13 163 l -13 238 m -13 119 l 603 119 l 603 43 l -13 43 l -13 119 z "},"‼":{"ha":839,"x_min":118,"x_max":638,"o":"m 263 328 l 118 401 l 118 802 l 263 899 l 263 328 m 263 90 l 118 90 l 118 264 l 263 264 l 263 90 m 638 328 l 493 401 l 493 802 l 638 899 l 638 328 m 638 90 l 493 90 l 493 264 l 638 264 l 638 90 z "},"ⁿ":{"ha":420,"x_min":29,"x_max":399,"o":"m 171 949 l 171 908 q 271 958 219 958 q 323 944 300 958 q 354 905 345 929 q 363 819 363 881 l 363 695 q 368 654 363 661 q 399 642 374 646 l 399 622 l 224 622 l 224 642 q 247 649 235 642 q 256 659 253 652 q 258 695 258 667 l 258 838 q 256 885 258 876 q 245 899 253 894 q 227 905 238 905 q 171 865 196 905 l 171 695 q 177 654 171 662 q 203 642 182 646 l 203 622 l 29 622 l 29 642 q 62 654 56 646 q 66 695 66 661 l 66 876 q 62 917 66 910 q 29 929 56 924 l 29 949 l 171 949 z "},"₧":{"ha":1158,"x_min":26,"x_max":1137,"o":"m 26 1086 l 328 1086 q 486 1063 424 1086 q 586 995 548 1040 q 625 907 612 964 q 701 1022 671 949 l 719 1022 l 719 830 l 870 830 q 928 842 902 842 q 957 840 946 842 q 999 827 968 838 q 1042 817 1029 817 q 1076 844 1063 817 l 1097 844 l 1105 665 l 1085 665 q 1027 764 1070 726 q 941 802 983 802 q 897 787 914 802 q 879 753 879 771 q 893 719 879 737 q 977 656 907 701 q 1074 589 1048 612 q 1118 530 1100 565 q 1137 452 1137 494 q 1088 333 1137 381 q 971 285 1040 285 q 865 311 924 285 q 842 317 848 317 q 807 286 822 317 l 789 286 l 785 340 q 745 300 765 311 q 687 286 719 286 q 622 304 651 286 q 578 354 593 322 q 564 452 564 385 l 564 734 q 454 677 517 696 q 292 658 391 657 l 267 658 l 267 428 q 278 350 267 370 q 313 324 290 330 q 370 320 328 320 l 370 300 l 26 300 l 26 320 q 81 353 64 326 q 92 431 92 372 l 92 955 q 78 1037 92 1019 q 26 1065 59 1061 l 26 1086 m 267 1044 l 267 699 q 390 740 347 698 q 432 870 432 783 q 411 974 432 933 q 361 1029 389 1014 q 285 1044 334 1044 l 267 1044 m 719 776 l 719 427 q 725 378 719 395 q 737 359 728 366 q 751 354 742 354 q 783 380 766 354 l 778 475 l 798 475 q 874 357 836 388 q 950 326 913 326 q 1002 344 982 326 q 1021 391 1021 363 q 1000 438 1021 413 q 914 504 979 464 q 825 564 849 543 q 787 615 802 585 q 772 685 772 646 q 802 776 772 733 l 719 776 z "},"←":{"ha":1203,"x_min":54,"x_max":1149,"o":"m 293 543 l 337 543 q 286 447 303 475 q 224 363 269 420 l 1149 363 l 1149 306 l 224 306 q 339 126 284 243 l 294 126 q 165 253 219 210 q 54 323 111 296 l 54 350 q 160 416 104 372 q 293 543 216 460 z "},"↑":{"ha":624,"x_min":104,"x_max":521,"o":"m 104 722 q 232 854 188 798 q 297 960 275 911 l 323 960 q 394 849 351 903 q 521 721 437 795 l 521 675 q 342 791 404 730 l 342 -64 l 283 -64 l 283 791 q 200 729 227 746 q 104 677 172 711 l 104 722 z "},"→":{"ha":1203,"x_min":54,"x_max":1149,"o":"m 909 543 q 1043 415 987 459 q 1149 350 1099 372 l 1149 323 q 1038 253 1091 296 q 909 126 984 210 l 864 126 q 979 306 919 243 l 54 306 l 54 363 l 979 363 q 917 448 935 420 q 865 543 899 475 l 909 543 z "},"↓":{"ha":624,"x_min":104,"x_max":521,"o":"m 104 168 l 104 212 q 200 161 173 178 q 283 100 227 143 l 283 954 l 342 954 l 342 100 q 521 214 404 159 l 521 169 q 394 40 437 94 q 323 -71 351 -14 l 297 -71 q 232 35 275 -22 q 104 168 188 91 z "},"↔":{"ha":1203,"x_min":54,"x_max":1149,"o":"m 1149 348 l 1149 322 q 1042 255 1095 297 q 913 127 989 213 l 867 127 q 979 307 907 227 l 223 307 q 335 127 295 227 l 289 127 q 161 255 214 213 q 54 322 109 297 l 54 348 q 161 416 109 374 q 289 544 214 458 l 335 544 q 223 363 295 445 l 979 363 q 867 544 907 445 l 913 544 q 1042 416 989 458 q 1149 348 1095 374 z "},"↕":{"ha":624,"x_min":103,"x_max":520,"o":"m 298 1026 l 325 1026 q 392 918 350 971 q 520 790 434 865 l 520 744 q 340 857 420 784 l 340 100 q 520 212 420 172 l 520 166 q 392 37 434 90 q 325 -70 350 -16 l 298 -70 q 231 37 274 -16 q 103 166 189 90 l 103 212 q 283 100 202 172 l 283 857 q 103 744 202 784 l 103 790 q 231 918 189 865 q 298 1026 274 971 z "},"↨":{"ha":624,"x_min":103,"x_max":520,"o":"m 298 1006 l 325 1006 q 392 898 350 951 q 520 770 434 845 l 520 724 q 340 836 420 764 l 340 79 q 520 191 420 152 l 520 146 q 392 17 434 70 q 325 -90 350 -36 l 298 -90 q 231 17 274 -36 q 103 146 189 70 l 103 191 q 283 79 202 152 l 283 836 q 103 724 202 764 l 103 770 q 231 898 189 845 q 298 1006 274 951 m 104 -144 l 520 -144 l 520 -201 l 104 -201 l 104 -144 z "},"⇐":{"ha":990,"x_min":56,"x_max":935,"o":"m 935 304 l 354 304 q 431 191 408 233 l 361 191 q 215 363 304 277 q 56 475 125 450 l 56 508 q 215 619 125 532 q 361 791 304 706 l 431 791 q 354 679 408 750 l 935 679 l 935 612 l 300 612 q 174 491 226 526 q 300 370 226 456 l 935 370 l 935 304 z "},"⇑":{"ha":990,"x_min":196,"x_max":796,"o":"m 796 545 q 684 621 755 567 l 684 0 l 616 0 l 616 675 q 496 802 531 749 q 375 675 460 749 l 375 0 l 309 0 l 309 621 q 196 545 237 567 l 196 614 q 368 761 281 671 q 479 920 455 850 l 513 920 q 624 761 537 850 q 796 614 711 671 l 796 545 z "},"⇒":{"ha":990,"x_min":56,"x_max":935,"o":"m 935 475 q 776 363 866 450 q 629 191 686 277 l 559 191 q 636 304 582 233 l 56 304 l 56 370 l 690 370 q 817 491 764 456 q 690 612 764 526 l 56 612 l 56 679 l 636 679 q 559 791 582 750 l 629 791 q 776 619 686 706 q 935 508 866 532 l 935 475 z "},"⇓":{"ha":990,"x_min":196,"x_max":796,"o":"m 796 306 q 624 159 711 249 q 513 0 537 69 l 479 0 q 368 159 455 69 q 196 306 281 249 l 196 375 q 309 298 237 353 l 309 920 l 375 920 l 375 244 q 496 118 460 170 q 616 244 531 170 l 616 920 l 684 920 l 684 298 q 796 375 755 353 l 796 306 z "},"⇘":{"ha":990,"x_min":36,"x_max":852,"o":"m 852 24 l 829 0 q 614 35 759 35 q 412 17 500 35 l 363 65 q 497 92 411 80 l 36 551 l 83 599 l 582 100 q 662 102 625 102 q 757 96 720 102 q 750 191 750 133 q 753 271 750 228 l 254 770 l 301 817 l 761 355 q 787 490 773 441 l 836 440 q 819 239 819 353 q 852 24 819 94 z "},"⇙":{"ha":990,"x_min":139,"x_max":956,"o":"m 956 551 l 494 92 q 629 65 581 80 l 579 17 q 378 35 491 35 q 163 0 233 35 l 139 24 q 173 239 173 94 q 155 440 173 353 l 204 490 q 231 355 218 441 l 690 817 l 737 770 l 239 271 q 241 191 241 228 q 235 96 241 133 q 330 102 272 102 q 410 100 367 102 l 908 599 l 956 551 z "},"⇦":{"ha":990,"x_min":56,"x_max":935,"o":"m 382 617 l 935 617 l 935 298 l 382 298 l 382 157 l 346 157 l 56 441 l 56 474 l 346 758 l 382 758 l 382 617 m 349 203 l 349 331 l 901 331 l 901 584 l 349 584 l 349 711 l 89 457 l 349 203 z "},"⇧":{"ha":990,"x_min":196,"x_max":796,"o":"m 656 593 l 656 0 l 336 0 l 336 593 l 196 593 l 196 629 l 479 920 l 513 920 l 796 629 l 796 593 l 656 593 m 241 627 l 370 627 l 370 33 l 623 33 l 623 627 l 750 627 l 496 886 l 241 627 z "},"⇨":{"ha":990,"x_min":56,"x_max":935,"o":"m 935 448 l 644 164 l 608 164 l 608 304 l 56 304 l 56 624 l 608 624 l 608 764 l 644 764 l 935 481 l 935 448 m 901 464 l 642 718 l 642 591 l 89 591 l 89 338 l 642 338 l 642 210 l 901 464 z "},"⇩":{"ha":990,"x_min":196,"x_max":796,"o":"m 796 290 l 513 0 l 479 0 l 196 290 l 196 326 l 336 326 l 336 920 l 656 920 l 656 326 l 796 326 l 796 290 m 750 293 l 623 293 l 623 886 l 370 886 l 370 293 l 241 293 l 496 33 l 750 293 z "},"☸":{"ha":1042,"x_min":83,"x_max":958,"o":"m 880 534 q 916 545 908 545 q 946 533 933 545 q 958 503 958 520 q 945 473 958 486 q 916 460 932 460 q 880 472 908 460 q 796 269 865 355 q 842 224 842 259 q 831 193 842 205 q 801 181 820 181 q 758 229 764 181 q 547 142 667 155 q 561 106 561 117 q 549 77 561 89 q 519 65 536 65 q 490 77 502 65 q 478 106 478 89 q 493 144 478 119 q 283 231 374 157 q 241 181 279 181 q 211 193 222 181 q 199 224 199 205 q 248 269 199 260 q 163 472 176 355 q 126 460 133 460 q 96 473 109 460 q 83 503 83 486 q 96 533 83 520 q 126 545 109 545 q 163 534 133 545 q 248 739 176 650 q 200 780 200 745 q 213 811 200 798 q 243 823 225 823 q 286 776 281 823 q 488 862 374 847 q 478 897 478 883 q 490 926 478 913 q 519 939 502 939 q 548 926 536 939 q 561 897 561 913 q 547 861 561 884 q 750 780 660 852 q 799 823 772 823 q 828 811 816 823 q 841 781 841 800 q 794 739 841 745 q 880 534 865 652 m 704 722 q 549 787 631 775 q 561 734 561 758 q 557 708 561 724 q 553 680 553 691 q 556 654 553 670 q 561 602 561 628 q 602 635 579 621 q 640 675 627 651 q 662 704 649 694 q 704 722 674 714 m 490 787 q 339 722 410 776 q 380 704 368 714 q 402 675 393 694 q 446 632 417 648 q 478 613 465 622 q 484 653 478 631 q 488 680 488 669 q 483 708 488 691 q 478 734 478 724 q 490 787 478 758 m 806 534 q 745 683 793 613 q 692 623 724 642 q 654 585 669 608 q 623 545 640 563 q 673 538 647 545 q 699 534 689 534 q 727 540 711 534 q 754 545 743 545 q 806 534 769 545 m 419 545 q 388 585 402 563 q 349 623 373 608 q 296 682 320 640 q 237 534 248 612 q 288 545 272 545 q 315 540 298 545 q 343 534 331 534 q 368 538 353 534 q 419 545 395 545 m 521 435 q 568 455 548 435 q 587 503 587 475 q 568 549 587 530 q 521 569 548 569 q 474 549 494 569 q 454 503 454 530 q 474 455 454 475 q 521 435 494 435 m 807 473 q 754 460 776 460 q 727 465 743 460 q 699 469 711 469 q 673 466 689 469 q 623 460 647 460 q 655 420 641 442 q 695 382 671 395 q 746 326 723 367 q 807 473 793 394 m 419 460 q 368 466 395 460 q 343 469 353 469 q 315 465 331 469 q 288 460 298 460 q 236 473 266 460 q 297 326 248 394 q 347 382 317 366 q 387 420 371 395 q 419 460 401 442 m 488 219 q 478 268 478 248 q 483 294 478 279 q 488 323 488 311 q 484 350 488 334 q 478 394 478 373 q 443 372 463 383 q 399 330 415 357 q 343 279 380 298 q 488 219 410 233 m 700 279 q 642 330 661 297 q 600 370 626 358 q 579 383 586 376 l 579 385 l 561 380 l 561 377 q 557 352 561 367 q 553 323 553 335 q 557 294 553 311 q 561 268 561 279 q 550 220 561 249 q 700 279 628 231 z "},"♨":{"ha":1194,"x_min":78,"x_max":1117,"o":"m 581 1035 q 558 956 569 1008 q 547 873 547 903 q 556 809 547 843 q 597 714 564 776 q 636 626 629 656 q 644 570 644 595 q 609 433 644 528 q 581 342 585 367 l 555 360 q 568 412 557 377 q 586 517 586 471 q 578 574 586 543 q 538 666 570 605 q 497 762 506 729 q 489 823 489 795 q 509 929 489 862 q 559 1046 528 996 l 581 1035 m 793 966 q 770 886 781 938 q 760 803 760 834 q 772 735 760 760 q 810 680 785 709 q 845 630 833 653 q 857 570 857 608 q 822 433 857 528 q 793 342 797 367 l 768 360 q 781 412 770 377 q 799 517 799 471 q 787 579 799 555 q 751 632 774 603 q 714 687 726 662 q 701 753 701 712 q 721 858 701 791 q 772 977 741 924 l 793 966 m 370 966 q 347 886 358 938 q 336 803 336 834 q 349 735 336 760 q 387 680 361 709 q 422 630 410 653 q 433 570 433 608 q 398 433 433 528 q 370 342 373 367 l 345 360 q 357 412 347 377 q 375 517 375 471 q 363 579 375 555 q 328 632 351 603 q 290 687 302 662 q 278 753 278 712 q 297 858 278 791 q 349 977 317 924 l 370 966 m 903 599 q 1060 526 1004 575 q 1117 418 1117 477 q 969 215 1117 295 q 597 135 821 135 q 225 215 373 135 q 78 418 78 295 q 135 526 78 477 q 292 599 191 575 l 296 568 q 183 517 222 552 q 143 437 143 482 q 272 304 143 357 q 597 250 400 250 q 923 304 794 250 q 1051 437 1051 357 q 1011 517 1051 482 q 899 568 972 552 l 903 599 z "},"✓":{"ha":1048,"x_min":25,"x_max":1003,"o":"m 325 186 q 459 458 387 328 q 606 698 530 588 q 747 884 696 827 q 810 944 781 920 q 863 964 827 958 q 987 981 952 981 q 1003 970 1003 981 q 987 945 1003 960 q 703 600 852 825 q 452 123 554 376 q 398 8 413 29 q 302 -14 382 -14 q 237 -3 250 -14 q 189 61 224 7 q 61 224 130 151 q 25 282 25 262 q 65 338 25 311 q 131 366 105 366 q 217 325 167 366 q 325 186 268 285 z "},"✕":{"ha":1059,"x_min":65,"x_max":993,"o":"m 918 0 l 529 389 l 140 0 l 65 75 l 454 464 l 65 852 l 140 928 l 529 539 l 918 928 l 993 852 l 604 464 l 993 75 l 918 0 z "},"✆":{"ha":1096,"x_min":94,"x_max":972,"o":"m 228 215 q 215 203 228 203 q 144 291 193 203 q 94 496 94 379 q 152 719 94 623 q 308 872 209 815 q 534 929 407 929 q 639 917 590 929 q 688 890 688 904 q 672 875 688 875 q 657 879 669 875 q 529 899 602 899 q 243 783 361 899 q 126 498 126 668 q 215 239 126 361 q 228 215 228 222 m 289 20 q 268 82 268 51 q 347 335 268 172 q 585 686 425 499 q 815 873 744 873 q 893 850 844 873 l 905 851 q 972 794 972 819 q 922 701 972 768 q 844 604 871 633 q 786 575 818 575 q 757 583 768 575 q 733 607 747 590 q 701 636 714 636 q 659 582 682 636 q 581 452 624 515 q 489 334 537 389 q 419 253 441 280 l 419 241 q 425 233 422 240 q 446 221 429 225 q 494 206 484 210 q 516 172 504 202 q 538 95 528 141 q 549 25 549 48 q 534 -8 549 5 q 458 -39 519 -22 q 383 -57 397 -57 q 317 -14 363 -57 l 298 -57 q 301 -77 301 -65 l 300 -107 l 304 -144 l 300 -158 l 307 -174 q 317 -228 309 -207 q 326 -258 326 -248 q 293 -279 326 -273 q 284 -262 288 -269 q 280 -253 281 -256 q 279 -245 279 -250 q 278 -234 279 -241 q 278 -221 278 -228 q 274 -205 278 -215 l 269 -193 l 273 -164 l 269 -149 q 267 -135 267 -140 q 273 -103 267 -121 q 267 -78 267 -80 q 269 -68 267 -77 q 278 -35 278 -36 l 277 -12 l 289 20 m 924 586 q 939 603 924 603 q 950 597 946 603 q 958 558 954 592 q 962 493 962 524 q 898 269 962 370 q 735 118 833 168 q 621 68 637 68 q 606 85 606 68 q 625 102 606 93 q 857 264 781 157 q 932 497 932 371 q 925 570 932 526 q 924 586 924 578 z "},"✇":{"ha":1097,"x_min":41,"x_max":1055,"o":"m 41 507 q 86 714 41 618 q 199 874 131 810 q 356 976 267 938 q 549 1014 446 1014 q 907 864 758 1014 q 1055 507 1055 715 q 989 256 1055 374 q 804 69 922 138 q 549 0 686 0 q 295 68 413 0 q 109 255 176 136 q 41 507 41 373 m 1025 507 q 960 749 1025 643 q 789 920 896 854 q 549 985 682 985 q 212 846 353 985 q 71 507 71 707 q 136 266 71 372 q 307 95 201 160 q 549 29 413 29 q 884 169 743 29 q 1025 507 1025 309 m 635 640 q 675 699 635 659 l 755 778 q 812 818 794 818 q 846 802 833 818 q 860 774 860 787 q 817 709 860 747 q 739 632 774 671 q 682 593 704 593 q 650 606 665 593 q 635 640 635 619 m 414 593 q 352 635 391 593 q 275 713 313 677 q 236 771 236 749 q 251 804 236 791 q 283 817 265 817 q 343 776 305 817 q 421 699 380 735 q 461 640 461 663 q 447 607 461 621 q 414 593 433 593 m 473 505 q 495 558 473 536 q 549 581 517 581 q 600 559 578 581 q 623 505 623 537 q 601 454 623 476 q 549 432 578 432 q 495 454 517 432 q 473 505 473 476 m 237 243 q 281 306 237 266 q 359 384 325 347 q 415 421 394 421 q 448 407 433 421 q 463 374 463 392 q 452 348 463 361 q 379 273 441 335 q 307 203 316 211 q 283 196 297 196 q 251 210 264 196 q 237 243 237 224 m 811 196 q 751 237 787 196 q 675 313 715 277 q 635 374 635 349 q 649 406 635 393 q 677 419 663 419 q 739 381 705 419 q 816 304 773 344 q 859 241 859 265 q 845 210 859 224 q 811 196 831 196 z "},"✈":{"ha":1099,"x_min":24,"x_max":1072,"o":"m 410 935 l 486 935 q 520 926 508 935 q 550 882 532 917 q 703 580 689 604 q 762 553 718 556 q 978 540 931 548 q 1049 513 1025 532 q 1072 483 1072 494 q 1053 453 1072 471 q 995 427 1034 436 q 863 412 956 417 q 762 408 769 408 q 727 401 741 408 q 704 381 713 395 q 646 271 695 368 l 550 81 q 517 34 530 41 q 486 27 505 27 l 410 27 q 392 43 392 27 q 412 88 392 53 q 485 255 455 164 q 515 390 515 345 q 508 404 515 400 q 481 410 500 408 l 258 438 q 229 441 243 441 q 211 435 217 441 q 183 368 205 429 q 143 306 164 306 q 108 309 142 306 q 68 314 74 313 q 59 319 62 315 q 56 330 56 323 q 66 373 56 340 l 87 437 l 87 444 q 61 460 87 458 q 24 481 24 465 q 61 502 24 498 q 87 519 87 506 l 87 526 q 56 634 56 624 q 59 644 56 640 q 68 649 62 648 q 108 653 74 650 q 142 656 142 656 q 164 642 155 656 q 191 577 174 627 q 210 530 203 538 q 231 522 217 522 q 319 532 235 522 l 449 547 q 506 558 496 553 q 515 573 515 564 q 477 729 515 627 q 407 887 439 831 q 392 922 392 913 q 410 935 392 935 z "},"✉":{"ha":958,"x_min":37,"x_max":921,"o":"m 37 895 l 921 895 l 921 262 l 37 262 l 37 895 m 113 854 l 481 490 l 846 854 l 113 854 m 78 821 l 78 335 l 322 578 l 78 821 m 880 821 l 636 578 l 880 335 l 880 821 m 355 546 l 113 302 l 846 302 l 604 546 l 481 422 l 355 546 z "},"☚":{"ha":1333,"x_min":37,"x_max":1283,"o":"m 1254 844 q 1283 556 1283 722 q 1257 302 1283 411 l 1135 302 q 1063 495 1103 368 l 1051 495 q 985 446 1036 495 q 914 407 959 422 q 745 384 869 392 q 716 375 725 382 q 695 349 707 368 q 618 295 660 295 q 552 316 578 295 q 526 372 526 336 q 532 420 526 396 q 446 381 484 381 q 405 395 422 381 q 389 429 389 409 q 412 492 389 456 q 353 481 381 481 q 307 524 307 481 q 336 590 307 555 q 440 681 366 624 q 132 659 161 659 q 37 711 37 659 q 60 751 37 739 q 182 777 83 763 l 411 806 q 575 824 541 824 q 644 819 605 824 l 1071 771 q 1121 844 1088 806 l 1254 844 z "},"☛":{"ha":1333,"x_min":50,"x_max":1296,"o":"m 262 771 l 602 810 q 758 824 730 824 q 882 812 794 824 l 1095 784 q 1245 762 1222 767 q 1282 745 1267 757 q 1296 711 1296 733 q 1202 659 1296 659 q 893 681 1172 659 q 997 590 968 624 q 1026 524 1026 555 q 981 481 1026 481 q 921 492 952 481 q 945 429 945 456 q 928 395 945 409 q 888 381 911 381 q 802 420 850 381 q 807 372 807 396 q 781 316 807 336 q 715 295 755 295 q 638 349 673 295 q 617 375 626 368 q 589 384 608 382 q 419 407 464 392 q 349 446 374 422 q 282 495 298 495 l 271 495 q 199 302 230 368 l 77 302 q 50 556 50 411 q 79 844 50 722 l 212 844 q 262 771 245 806 z "},"☎":{"ha":999,"x_min":31,"x_max":966,"o":"m 657 906 q 910 844 854 889 q 966 709 966 799 q 955 679 966 690 q 926 669 943 669 l 808 669 q 753 730 753 669 l 753 810 q 657 825 718 821 l 657 805 l 572 732 l 572 695 q 739 610 693 640 q 827 534 785 579 q 889 443 868 489 q 911 356 911 397 q 835 298 911 298 l 163 298 q 86 356 86 298 q 109 446 86 398 q 176 540 132 494 q 265 615 220 587 q 425 695 311 643 l 425 732 l 340 805 l 340 825 q 244 810 280 821 l 244 730 q 189 669 244 669 l 71 669 q 42 679 54 669 q 31 709 31 690 q 87 844 31 799 q 340 906 143 889 l 340 934 l 400 934 l 400 909 l 498 910 l 597 909 l 597 934 l 657 934 l 657 906 m 597 820 l 597 829 l 498 831 l 400 829 l 400 820 l 482 753 l 515 753 l 597 820 m 498 373 q 621 408 570 373 q 671 492 671 443 q 620 576 671 541 q 498 612 569 612 q 377 576 428 612 q 326 492 326 541 q 377 408 326 443 q 498 373 427 373 m 498 583 q 582 559 549 583 q 615 499 615 536 q 582 438 615 463 q 498 414 549 414 q 415 439 448 414 q 382 499 382 463 q 415 560 382 537 q 498 583 448 583 z "},"☏":{"ha":999,"x_min":31,"x_max":966,"o":"m 657 913 q 910 851 854 896 q 966 715 966 806 q 955 686 966 696 q 926 675 943 675 l 808 675 q 753 736 753 675 l 753 817 q 657 832 718 828 l 657 812 l 572 739 l 572 702 q 739 616 693 647 q 827 541 785 586 q 889 450 868 496 q 911 363 911 404 q 835 304 911 304 l 163 304 q 86 363 86 304 q 109 453 86 405 q 176 547 132 500 q 265 622 220 593 q 425 702 311 650 l 425 739 l 340 812 l 340 832 q 244 817 280 828 l 244 736 q 189 675 244 675 l 71 675 q 42 686 54 675 q 31 715 31 696 q 87 851 31 806 q 340 913 143 896 l 340 941 l 400 941 l 400 916 l 498 917 l 597 916 l 597 941 l 657 941 l 657 913 m 774 833 l 774 743 q 807 696 774 696 l 924 696 q 946 717 946 696 q 915 818 946 779 q 780 877 884 858 q 498 896 675 896 q 217 877 321 896 q 82 818 113 858 q 52 717 52 778 q 74 696 52 696 l 191 696 q 224 743 224 696 l 224 833 q 498 859 300 859 q 774 833 698 859 m 597 827 l 597 836 l 498 838 l 400 836 l 400 827 l 482 760 l 515 760 l 597 827 m 829 326 q 875 332 859 326 q 890 363 890 338 q 862 459 890 408 q 782 557 834 510 q 659 639 730 604 q 551 688 558 688 l 446 688 q 275 603 318 630 q 191 533 231 576 q 129 447 150 491 q 107 363 107 402 q 123 332 107 338 q 168 326 138 326 l 829 326 m 498 618 q 620 583 569 618 q 671 499 671 548 q 620 414 671 449 q 498 380 570 380 q 377 415 427 380 q 326 499 326 450 q 377 583 326 548 q 498 618 428 618 m 498 421 q 582 446 549 421 q 615 506 615 470 q 582 566 615 543 q 498 589 549 589 q 415 566 448 589 q 382 506 382 543 q 415 445 382 469 q 498 421 448 421 z "},"☐":{"ha":1019,"x_min":87,"x_max":932,"o":"m 932 136 l 87 136 l 87 979 l 932 979 l 932 136 m 876 191 l 876 924 l 143 924 l 143 191 l 876 191 z "},"☑":{"ha":1019,"x_min":87,"x_max":932,"o":"m 932 136 l 87 136 l 87 979 l 932 979 l 932 136 m 876 191 l 876 924 l 143 924 l 143 191 l 876 191 m 389 359 q 524 620 456 511 q 644 790 592 730 q 707 856 696 850 q 756 869 719 863 q 819 876 793 876 q 829 870 829 876 q 804 838 829 862 q 610 591 702 743 q 458 290 519 439 q 431 240 443 250 q 380 230 419 230 q 335 234 344 230 q 309 267 327 239 q 228 373 275 319 q 195 423 195 410 q 218 457 195 439 q 268 476 242 476 q 323 447 291 476 q 389 359 355 417 z "},"☒":{"ha":1019,"x_min":87,"x_max":932,"o":"m 932 136 l 87 136 l 87 979 l 932 979 l 932 136 m 876 191 l 876 924 l 143 924 l 143 191 l 876 191 m 774 798 q 766 796 772 798 q 742 780 742 791 q 726 755 741 772 q 699 720 707 736 q 635 621 674 677 q 596 543 596 564 q 617 452 596 509 q 672 349 638 395 q 682 332 682 335 q 680 327 682 330 q 676 315 676 319 l 677 307 l 660 298 q 648 280 648 292 l 650 275 q 646 273 650 273 q 629 281 642 273 q 611 297 616 289 q 590 313 604 311 q 573 328 584 315 q 554 342 564 338 q 496 435 549 344 q 384 321 456 401 q 310 243 333 264 q 298 272 310 260 q 292 288 292 279 q 286 292 292 292 q 278 301 280 292 q 264 313 278 307 q 262 319 262 315 l 264 325 l 261 333 q 336 427 261 342 q 458 572 410 512 l 399 812 q 396 830 396 818 q 406 858 396 845 q 427 870 415 870 q 554 688 483 870 q 648 781 588 713 q 729 850 708 850 q 760 833 745 850 q 774 801 774 816 l 774 798 z "},"☀":{"ha":1042,"x_min":90,"x_max":951,"o":"m 538 867 l 504 867 l 504 998 l 538 998 l 538 867 m 750 933 l 685 821 l 657 837 l 722 949 l 750 933 m 383 837 l 355 821 l 290 933 l 318 949 l 383 837 m 521 818 q 697 744 623 818 q 771 568 771 670 q 697 391 771 465 q 521 317 623 317 q 345 391 418 317 q 271 568 271 465 q 345 744 271 670 q 521 818 418 818 m 900 770 l 787 705 l 771 733 l 884 798 l 900 770 m 269 733 l 253 705 l 140 770 l 157 798 l 269 733 m 951 551 l 821 551 l 821 585 l 951 585 l 951 551 m 221 551 l 90 551 l 90 585 l 221 585 l 221 551 m 901 368 l 885 340 l 772 405 l 789 433 l 901 368 m 268 405 l 155 340 l 139 368 l 252 433 l 268 405 m 749 205 l 721 189 l 656 301 l 684 317 l 749 205 m 385 301 l 319 189 l 292 205 l 357 317 l 385 301 m 538 137 l 504 137 l 504 268 l 538 268 l 538 137 z "},"☁":{"ha":1389,"x_min":81,"x_max":1311,"o":"m 1099 794 q 1252 711 1194 781 q 1311 551 1311 642 q 1239 377 1311 449 q 1065 305 1167 305 l 254 305 q 132 356 182 305 q 81 479 81 408 q 132 601 81 550 q 254 652 182 652 q 318 638 286 652 q 403 799 332 738 q 568 861 475 861 q 710 817 652 861 q 778 935 724 889 q 904 980 831 980 q 1037 928 981 980 q 1099 794 1094 876 m 350 586 q 254 619 309 619 q 156 577 197 619 q 114 479 114 536 q 155 380 114 421 q 254 338 197 338 l 1065 338 q 1215 401 1152 338 q 1278 551 1278 464 q 1215 701 1278 638 q 1065 764 1152 764 q 915 701 978 764 q 852 551 852 638 l 819 551 q 891 725 819 652 q 1065 797 964 797 q 1013 905 1059 863 q 904 947 966 947 q 790 899 838 947 q 743 786 743 852 l 743 757 q 568 827 664 827 q 416 762 479 827 q 350 586 353 696 z "},"☂":{"ha":1042,"x_min":106,"x_max":936,"o":"m 936 597 l 922 597 q 908 625 922 610 q 871 639 893 639 q 834 625 848 639 q 819 597 819 610 l 806 597 q 792 625 806 610 q 754 639 778 639 q 717 625 732 639 q 703 597 703 610 l 689 597 q 675 625 689 610 q 637 639 661 639 q 601 625 615 639 q 586 597 586 610 l 572 597 q 563 619 572 607 q 538 636 554 631 l 538 224 q 575 170 538 170 q 606 184 595 170 q 618 220 618 199 l 652 220 q 631 161 652 184 q 575 137 610 137 q 523 161 543 137 q 504 224 504 186 l 504 636 q 478 619 488 631 q 469 597 469 607 l 456 597 q 441 625 456 610 q 404 639 427 639 q 367 625 382 639 q 353 597 353 610 l 339 597 q 325 625 339 610 q 288 639 311 639 q 251 625 265 639 q 236 597 236 610 l 222 597 q 208 625 222 610 q 171 639 194 639 q 134 625 149 639 q 119 597 119 610 l 106 597 q 219 844 106 741 q 509 954 332 947 l 515 993 l 526 993 l 533 954 q 823 844 710 947 q 936 597 936 741 z "},"☢":{"ha":1042,"x_min":78,"x_max":964,"o":"m 521 1025 q 833 895 703 1025 q 964 582 964 764 q 834 269 964 399 q 521 139 704 139 q 208 269 338 139 q 78 582 78 399 q 208 896 78 766 q 521 1025 338 1025 m 521 179 q 805 298 687 179 q 924 582 924 416 q 805 866 924 748 q 521 985 687 985 q 236 866 355 985 q 118 582 118 748 q 236 298 118 416 q 521 179 355 179 m 896 582 l 646 582 q 585 689 646 654 l 710 906 q 847 767 798 853 q 896 582 896 680 m 457 689 q 396 582 396 654 l 146 582 q 195 767 146 680 q 332 906 244 853 l 457 689 m 521 672 q 585 646 558 672 q 611 582 611 619 q 585 518 611 545 q 521 492 558 492 q 457 518 484 492 q 431 582 431 545 q 457 646 431 619 q 521 672 484 672 m 708 257 q 521 207 625 207 q 334 257 419 207 l 458 474 q 521 457 485 457 q 583 474 557 457 l 708 257 z "},"✁":{"ha":1353,"x_min":78,"x_max":1251,"o":"m 781 345 l 781 301 l 511 301 l 511 345 l 610 345 l 546 387 q 465 342 508 368 q 298 271 390 298 q 397 165 397 243 q 347 71 397 107 q 227 34 296 34 q 117 64 156 34 q 78 144 78 94 q 172 266 78 225 l 262 305 q 327 343 287 316 q 457 441 368 371 q 387 496 420 471 l 313 551 q 279 568 310 553 q 134 635 153 624 q 96 675 114 646 q 78 739 78 705 q 117 818 78 785 q 224 851 156 851 q 349 813 300 851 q 399 719 399 775 q 296 613 399 637 q 543 495 437 568 l 944 753 q 1015 792 963 765 q 1130 834 1066 819 q 1232 850 1194 850 q 1251 842 1247 850 l 631 441 l 781 345 m 350 719 q 313 779 350 754 q 214 804 277 804 q 149 785 173 804 q 125 737 125 766 q 165 674 125 696 q 258 651 205 651 q 327 670 304 651 q 350 719 350 688 m 347 165 q 261 233 347 233 q 162 211 199 233 q 125 148 125 189 q 147 101 125 121 q 215 81 170 81 q 310 102 272 81 q 347 165 347 123 m 895 345 l 1168 345 l 1168 301 l 895 301 l 895 345 z "},"✂":{"ha":1335,"x_min":53,"x_max":1282,"o":"m 518 378 l 905 625 q 1064 705 988 678 q 1207 731 1139 731 q 1226 724 1221 731 l 639 348 l 890 348 l 890 302 l 639 302 l 1223 -75 q 1207 -83 1219 -83 q 1065 -58 1139 -83 q 901 26 991 -33 l 518 272 q 273 152 408 197 q 372 47 372 127 q 317 -47 372 -12 q 195 -81 262 -81 q 90 -53 127 -81 q 53 27 53 -25 q 67 84 53 60 q 99 120 82 107 q 189 168 116 134 q 275 209 246 193 q 432 324 304 226 q 284 434 309 420 q 218 465 258 447 q 118 513 145 497 q 72 558 90 529 q 53 622 53 587 q 91 700 53 667 q 199 732 128 732 q 324 696 275 732 q 372 602 372 659 q 271 496 372 519 q 518 378 401 459 m 325 601 q 282 664 325 643 q 192 686 240 686 q 124 667 149 686 q 100 619 100 648 q 139 558 100 583 q 232 533 178 533 q 300 551 275 533 q 325 601 325 570 m 322 47 q 235 115 322 115 q 137 93 175 115 q 100 33 100 71 q 122 -16 100 4 q 192 -35 144 -35 q 283 -15 243 -35 q 322 47 322 6 m 107 348 l 390 348 l 390 302 l 107 302 l 107 348 m 1000 348 l 1282 348 l 1282 302 l 1000 302 l 1000 348 z "},"✍":{"ha":1187,"x_min":82,"x_max":1145,"o":"m 746 730 q 904 680 819 690 l 922 707 q 942 719 928 718 q 999 725 956 720 q 1025 796 1019 787 q 1067 805 1031 805 l 1145 805 l 1145 229 l 1083 229 q 1034 238 1047 229 q 998 278 1021 248 q 987 290 990 288 q 939 293 943 293 q 914 319 924 293 q 899 349 909 330 q 859 330 879 343 q 728 287 789 287 q 636 304 696 287 q 493 329 553 329 q 440 323 468 329 q 399 316 406 316 q 325 330 376 316 q 306 335 318 332 l 283 340 q 261 353 273 342 q 231 386 248 365 l 132 324 q 87 301 94 301 q 82 308 82 301 q 100 328 82 315 l 165 376 q 153 408 153 395 q 160 443 153 415 q 170 487 162 450 q 206 615 184 562 q 247 699 229 669 q 284 745 264 730 q 349 772 304 760 q 459 795 394 784 q 545 806 524 806 q 588 802 574 806 q 671 765 603 797 l 758 831 q 783 844 774 844 q 815 829 799 844 q 831 797 831 814 q 829 786 831 790 l 746 730 m 636 740 q 533 766 577 766 q 431 751 507 766 q 335 726 355 735 q 284 675 315 718 q 232 577 253 633 q 203 481 212 521 q 192 433 197 455 q 187 414 187 422 q 200 395 187 395 q 216 405 203 395 q 235 419 230 414 q 302 590 286 565 q 334 631 319 614 q 378 647 349 647 l 395 647 q 497 633 450 647 l 636 740 m 710 708 l 541 595 q 585 534 585 555 q 542 496 585 508 q 467 465 494 479 q 411 441 439 450 q 357 459 384 459 q 299 443 321 459 q 277 415 277 427 q 289 387 277 399 q 349 367 300 375 q 411 358 398 358 q 468 362 435 358 q 518 368 498 368 q 637 342 542 368 q 722 329 689 329 q 759 332 743 329 q 824 358 775 334 q 896 398 872 382 q 903 504 903 460 q 893 648 903 566 q 710 708 805 661 m 464 611 q 412 615 435 615 q 363 607 376 615 q 332 565 349 599 q 296 481 315 532 l 464 611 m 363 481 q 422 469 382 481 q 504 509 460 491 q 550 529 547 526 q 553 536 553 531 q 543 551 553 541 l 517 581 l 363 481 z "},"☆":{"ha":1042,"x_min":66,"x_max":974,"o":"m 696 540 l 823 200 l 520 412 l 221 200 l 334 540 l 66 747 l 411 747 l 520 1084 l 629 747 l 974 747 l 696 540 m 443 711 l 176 711 l 388 557 l 298 304 l 520 467 l 743 309 l 642 553 l 857 711 l 593 711 l 520 960 l 443 711 z "},"★":{"ha":1042,"x_min":66,"x_max":974,"o":"m 520 1074 l 629 747 l 974 747 l 696 540 l 819 200 l 520 412 l 221 200 l 338 540 l 66 747 l 411 747 l 520 1074 z "},"◎":{"ha":817,"x_min":79,"x_max":743,"o":"m 319 913 q 414 926 366 926 q 507 913 461 926 q 673 807 600 888 q 743 600 743 728 l 743 592 q 643 370 741 458 q 408 281 545 281 q 176 370 269 281 q 79 589 83 458 l 79 604 q 149 805 79 725 q 319 913 224 888 m 621 809 q 576 851 621 809 q 410 891 532 893 q 203 807 287 888 q 118 609 120 725 q 180 416 115 494 q 336 321 245 339 q 505 328 427 303 q 645 421 582 353 q 709 607 709 489 q 621 809 709 725 m 416 367 q 369 367 416 367 q 253 430 323 367 q 182 594 182 494 q 237 750 182 694 q 355 823 292 806 q 485 823 418 839 q 600 750 551 806 q 647 601 650 694 q 577 437 645 507 q 416 367 509 367 m 217 614 q 214 579 217 614 q 253 487 210 544 q 357 412 296 430 q 473 412 418 393 q 570 487 528 430 q 613 616 613 544 q 559 743 613 689 q 419 798 505 798 q 278 741 333 798 q 217 614 224 684 z "},"◇":{"ha":1175,"x_min":135,"x_max":1047,"o":"m 593 907 l 1047 449 l 593 -3 l 135 449 l 593 907 m 593 68 l 975 449 l 593 835 l 208 449 l 593 68 z "},"△":{"ha":947,"x_min":135,"x_max":825,"o":"m 479 940 l 825 296 l 135 296 l 479 940 m 221 346 l 739 346 l 479 841 l 221 346 z "},"◆":{"ha":1177,"x_min":135,"x_max":1052,"o":"m 598 -3 l 135 449 l 598 907 l 1052 449 l 598 -3 z "},"✦":{"ha":1101,"x_min":52,"x_max":1050,"o":"m 522 999 l 579 999 q 752 670 613 795 q 1050 528 892 545 l 1050 471 q 750 327 888 454 q 579 0 612 201 l 522 0 q 350 329 490 204 q 52 471 210 454 l 52 528 q 351 671 211 545 q 522 999 491 797 z "},"✧":{"ha":1103,"x_min":53,"x_max":1051,"o":"m 522 999 l 581 999 q 751 672 612 798 q 1051 528 890 545 l 1051 471 q 751 327 891 454 q 581 0 611 199 l 522 0 q 352 327 492 201 q 53 471 212 454 l 53 528 q 354 674 216 547 q 522 999 492 802 m 551 989 q 377 655 515 782 q 61 500 240 528 q 380 343 247 469 q 551 9 514 217 q 724 343 590 218 q 1042 500 859 469 q 731 650 869 525 q 551 989 593 774 z "},"✪":{"ha":1096,"x_min":43,"x_max":1051,"o":"m 43 507 q 192 862 43 713 q 547 1010 340 1010 q 903 863 754 1010 q 1051 507 1051 716 q 1016 317 1051 404 q 905 153 981 230 q 741 39 829 77 q 547 2 652 2 q 190 152 338 2 q 43 507 43 301 m 643 646 l 598 839 q 570 954 573 946 q 562 967 568 962 q 547 972 557 972 q 531 966 536 972 q 503 861 526 960 l 453 646 l 154 670 l 142 670 q 110 646 110 670 q 125 623 110 631 l 387 455 q 267 144 267 149 q 273 131 267 138 q 289 123 280 123 q 301 127 295 123 q 382 195 308 131 l 547 338 l 706 201 q 792 128 784 132 q 807 123 800 123 q 822 130 815 123 q 828 144 828 137 q 827 154 828 152 l 707 454 l 892 572 q 980 631 975 625 q 985 646 985 637 q 954 670 985 670 l 942 670 l 643 646 z "},"✫":{"ha":1168,"x_min":68,"x_max":1100,"o":"m 696 614 l 1047 644 l 1063 644 q 1100 614 1100 644 q 1093 598 1100 606 q 988 528 1085 590 l 771 389 l 867 149 q 913 33 911 37 q 914 25 914 28 q 906 8 914 17 q 889 0 897 0 q 874 4 882 0 q 779 85 867 9 l 583 253 l 387 83 q 293 4 300 9 q 279 0 286 0 q 262 7 271 0 q 254 26 254 14 q 290 123 254 31 l 396 389 l 183 525 q 76 597 84 588 q 68 614 68 606 q 107 644 68 644 l 119 644 l 472 614 q 557 980 553 962 q 583 999 562 999 q 602 992 596 999 q 615 957 608 985 l 696 614 m 406 450 q 461 321 406 371 q 583 271 517 271 q 709 323 656 271 q 762 450 762 375 q 709 577 762 525 q 583 629 656 629 q 459 578 512 629 q 406 450 406 526 z "},"✯":{"ha":1154,"x_min":49,"x_max":1104,"o":"m 571 1010 l 583 1010 l 690 604 l 1100 627 l 1104 614 l 757 390 l 916 3 l 904 -6 l 578 259 l 253 -6 l 241 1 l 396 393 l 49 611 l 54 627 l 464 604 l 571 1010 m 578 983 l 475 589 l 575 452 l 72 612 l 414 397 l 575 448 l 261 18 l 578 277 l 578 448 l 895 20 l 739 398 l 581 451 l 1082 615 l 681 590 l 578 454 l 578 983 z "},"✵":{"ha":1100,"x_min":65,"x_max":1035,"o":"m 538 970 l 562 970 l 631 676 l 885 838 l 901 819 l 742 564 l 1035 497 l 1035 472 l 742 406 l 901 151 l 885 134 l 629 293 l 562 0 l 538 0 l 472 293 l 215 134 l 199 151 l 358 406 l 65 472 l 65 497 l 359 564 l 199 819 l 215 838 l 469 675 l 538 970 m 554 951 l 484 647 l 550 489 l 224 812 l 389 550 l 549 485 l 102 485 l 389 419 l 550 479 l 229 164 l 484 323 l 554 479 l 554 46 l 615 329 l 558 479 l 876 157 l 713 415 l 559 485 l 1021 485 l 713 554 l 558 489 l 869 804 l 615 647 l 554 490 l 554 951 z "},"✽":{"ha":947,"x_min":18,"x_max":929,"o":"m 473 595 q 350 830 356 815 q 343 872 343 844 q 379 962 343 924 q 473 999 416 999 q 568 962 530 999 q 606 868 606 924 q 590 814 606 843 l 473 595 m 558 553 l 672 729 q 713 789 705 781 q 746 805 720 797 q 798 814 771 814 q 888 777 848 814 q 929 684 929 740 q 903 608 929 643 q 845 563 878 572 q 755 553 813 553 l 558 553 m 389 553 l 192 553 q 101 563 133 553 q 44 607 69 572 q 18 684 18 642 q 59 777 18 740 q 151 814 99 814 q 197 806 178 814 l 224 796 q 252 765 234 793 l 389 553 m 558 454 l 804 454 q 892 417 855 454 q 929 322 929 379 q 890 230 929 266 q 794 193 852 193 q 697 248 734 193 l 558 454 m 389 454 q 254 253 277 289 q 205 205 231 217 q 150 193 178 193 q 57 230 96 193 q 18 322 18 267 q 56 416 18 378 q 144 454 93 454 l 389 454 m 473 404 l 590 185 q 603 155 600 168 q 606 126 606 143 q 569 39 606 78 q 473 0 532 0 q 380 37 416 0 q 343 131 343 75 q 358 184 343 155 l 473 404 z "},"✿":{"ha":1147,"x_min":49,"x_max":1099,"o":"m 579 115 q 397 0 518 0 q 237 65 306 0 q 168 227 168 130 q 227 366 168 301 q 90 443 131 384 q 49 574 49 503 q 78 689 49 637 q 156 771 108 742 q 261 800 203 800 q 354 779 302 800 q 351 825 351 817 q 414 963 351 903 q 572 1023 477 1023 q 727 962 665 1023 q 789 819 789 901 q 787 786 789 800 q 882 810 837 810 q 1038 740 977 810 q 1099 583 1099 670 q 1062 464 1099 528 q 926 375 1026 400 q 973 310 958 342 q 989 229 989 279 q 920 69 989 138 q 762 0 850 0 q 579 115 646 0 m 732 484 q 686 596 732 550 q 575 642 640 642 q 463 595 509 642 q 416 484 416 549 q 463 372 416 418 q 575 326 509 326 q 686 372 640 326 q 732 484 732 418 z "},"❀":{"ha":1132,"x_min":49,"x_max":1083,"o":"m 821 840 l 844 840 q 1021 743 958 840 q 1083 534 1083 646 q 978 355 1083 420 q 997 271 997 306 q 892 79 997 157 q 703 0 787 0 q 566 57 634 0 q 432 0 494 0 q 235 84 336 0 q 135 265 135 168 q 155 357 135 307 q 69 449 90 398 q 49 539 49 499 q 83 695 49 618 q 170 807 117 772 q 281 842 223 842 q 313 840 299 842 q 566 1011 353 1011 q 724 976 656 1011 q 821 840 791 940 m 579 812 q 668 656 607 703 q 755 840 755 760 q 706 938 755 900 q 566 977 656 977 q 430 940 482 977 q 378 843 378 903 q 464 656 378 760 q 554 812 533 713 l 579 812 m 262 604 q 302 602 280 602 q 437 639 375 602 q 245 786 347 786 q 136 717 186 786 q 86 553 86 648 q 123 451 86 490 q 232 411 160 411 q 374 446 291 411 q 256 578 338 531 l 262 604 m 879 576 q 758 444 787 524 q 901 410 834 410 q 1008 446 970 410 q 1046 550 1046 482 q 998 711 1046 638 q 880 783 950 783 q 694 637 788 783 q 814 600 758 600 q 871 603 818 600 l 879 576 m 364 235 q 393 354 393 299 q 385 414 393 380 q 183 243 183 363 q 260 108 183 174 q 415 43 338 43 q 514 100 477 43 q 551 244 551 157 q 550 293 551 271 q 385 220 460 287 l 364 235 m 747 218 q 582 293 666 288 q 581 253 581 275 q 616 102 581 161 q 715 43 651 43 q 873 107 795 43 q 950 245 950 172 q 903 339 950 294 q 747 412 855 384 q 741 357 741 380 q 766 233 741 295 l 747 218 z "},"❁":{"ha":1096,"x_min":49,"x_max":1047,"o":"m 406 850 q 437 960 402 928 q 550 999 481 999 q 632 981 599 999 q 680 937 666 962 q 694 850 694 911 q 794 904 739 904 q 902 851 852 904 q 951 749 951 798 q 889 642 951 690 q 929 644 905 644 q 1015 601 983 644 q 1047 500 1047 557 q 1014 397 1047 440 q 929 354 981 354 q 890 355 907 354 q 951 258 951 307 q 902 146 951 198 q 787 94 853 94 q 693 154 744 94 q 696 117 696 125 q 652 31 696 62 q 551 0 608 0 q 449 32 494 0 q 403 122 403 64 q 406 151 403 141 q 302 96 359 96 q 196 145 248 96 q 144 257 144 195 q 157 309 144 288 q 200 354 169 330 q 174 353 189 353 q 82 392 115 353 q 49 496 49 431 q 82 605 49 564 q 174 646 115 646 q 195 644 184 646 q 142 739 142 693 q 193 850 142 798 q 306 901 244 901 q 406 850 354 901 m 591 628 q 672 829 667 814 q 677 867 677 844 q 640 947 677 920 q 550 974 603 974 q 458 946 494 974 q 422 871 422 919 q 437 801 422 837 l 507 628 l 539 635 q 486 854 486 843 q 551 909 486 909 q 596 894 579 909 q 614 856 614 878 q 606 820 614 846 l 559 635 l 591 628 m 667 561 l 831 632 q 881 662 860 645 q 913 697 903 678 q 924 739 924 717 q 883 836 924 794 q 791 878 843 878 q 739 864 763 878 q 709 844 715 851 q 690 810 702 837 l 608 621 l 636 603 l 747 785 q 790 811 760 811 q 839 788 819 811 q 859 746 859 765 q 813 689 859 716 l 648 589 l 667 561 m 489 619 q 409 800 414 786 q 390 832 404 813 q 353 863 376 850 q 310 875 330 875 q 213 835 256 875 q 170 742 170 795 q 191 679 170 705 q 258 633 213 652 l 431 562 l 447 590 l 263 697 q 242 718 249 706 q 235 745 235 730 q 255 788 235 766 q 306 810 276 810 q 352 778 332 810 l 463 602 l 489 619 m 676 457 q 869 381 852 387 q 911 375 886 375 q 994 409 965 375 q 1022 500 1022 444 q 989 595 1022 565 q 916 625 957 625 q 848 612 880 625 l 676 542 l 682 510 q 903 562 895 562 q 940 548 922 562 q 957 500 957 534 q 940 453 957 469 q 904 437 923 437 q 684 492 894 437 l 676 457 m 422 460 l 415 493 q 222 443 237 446 q 193 439 208 439 q 154 457 168 439 q 139 501 139 476 q 157 548 139 534 q 195 562 174 562 q 415 510 203 562 l 422 542 q 227 620 242 614 q 192 625 211 625 q 103 591 132 625 q 74 505 74 557 q 104 410 74 448 q 174 372 134 372 q 264 395 210 372 l 422 460 m 648 500 q 617 574 648 548 q 551 600 587 600 q 476 571 505 600 q 447 501 447 541 q 479 427 447 456 q 550 399 512 399 q 620 428 591 399 q 648 500 648 457 m 521 500 q 529 519 521 511 q 549 528 537 528 q 568 519 560 528 q 576 500 576 511 q 568 480 576 489 q 549 472 559 472 q 529 480 537 472 q 521 500 521 489 m 428 439 l 274 374 q 210 336 231 356 q 179 296 189 317 q 170 256 170 276 q 211 168 170 214 q 306 122 252 122 q 369 142 342 122 q 410 197 395 162 l 488 380 l 461 399 q 341 203 351 216 q 304 189 330 189 q 260 210 282 189 q 237 254 237 230 q 262 300 237 285 l 447 412 l 428 439 m 667 436 l 648 411 q 832 299 821 307 q 851 279 843 292 q 859 253 859 267 q 839 211 859 233 q 794 189 820 189 q 772 194 782 189 q 745 225 762 198 l 636 399 l 610 379 l 669 243 q 713 163 694 185 q 753 131 732 141 q 794 121 774 121 q 882 161 840 121 q 925 253 925 202 q 840 359 925 322 l 667 436 m 509 372 q 432 180 437 196 q 427 138 427 163 q 458 57 427 87 q 551 26 490 26 q 641 55 607 26 q 675 129 675 84 q 661 195 675 162 l 589 372 l 557 366 l 607 172 q 612 146 612 155 q 597 107 612 125 q 550 89 581 89 q 503 106 517 89 q 489 144 489 124 q 541 364 489 155 l 509 372 z "},"❋":{"ha":1090,"x_min":36,"x_max":1054,"o":"m 546 581 l 441 850 l 539 1015 l 551 1015 l 648 848 l 546 581 m 490 560 l 227 679 l 179 862 l 189 870 l 375 823 l 490 560 m 599 557 l 715 821 l 899 869 l 908 861 l 860 674 l 599 557 m 621 507 l 890 609 l 1054 513 l 1054 499 l 889 402 l 621 507 m 469 507 l 200 402 l 36 499 l 36 512 l 201 609 l 469 507 m 492 455 l 374 191 l 189 144 l 180 153 l 229 340 l 492 455 m 599 455 l 864 337 l 909 152 l 901 144 l 715 193 l 599 455 m 546 431 l 648 162 l 553 -2 l 541 -2 l 441 165 l 546 431 z "},"❍":{"ha":1213,"x_min":57,"x_max":1156,"o":"m 530 927 l 682 927 q 1023 786 890 927 q 1156 467 1156 646 q 1097 235 1156 351 q 923 57 1038 119 q 682 -5 808 -5 l 530 -5 q 191 133 325 -5 q 57 454 57 272 q 119 693 57 578 q 296 868 180 809 q 530 927 412 927 m 522 28 q 829 156 703 28 q 956 462 956 283 q 828 767 956 639 q 522 895 701 895 q 216 767 344 895 q 89 462 89 639 q 216 156 89 283 q 522 28 343 28 z "},"❏":{"ha":1059,"x_min":32,"x_max":1026,"o":"m 876 991 l 876 843 l 1026 843 l 1026 0 l 187 0 l 187 140 l 32 140 l 32 991 l 876 991 m 821 937 l 87 937 l 87 195 l 821 195 l 821 937 z "},"❐":{"ha":1059,"x_min":32,"x_max":1026,"o":"m 876 0 l 32 0 l 32 846 l 187 846 l 187 991 l 1026 991 l 1026 149 l 876 149 l 876 0 m 821 56 l 821 791 l 87 791 l 87 56 l 821 56 z "},"❑":{"ha":1054,"x_min":32,"x_max":1021,"o":"m 833 991 l 1021 821 l 1021 0 l 235 0 l 32 184 l 32 991 l 833 991 m 833 937 l 86 937 l 86 184 l 833 184 l 833 937 z "},"❒":{"ha":1054,"x_min":32,"x_max":1021,"o":"m 833 0 l 32 0 l 32 808 l 235 991 l 1021 991 l 1021 172 l 833 0 m 833 56 l 833 808 l 86 808 l 86 56 l 833 56 z "},"❖":{"ha":1089,"x_min":50,"x_max":1040,"o":"m 545 974 l 739 779 l 545 586 l 350 779 l 545 974 m 243 672 l 437 479 l 243 285 l 50 479 l 243 672 m 846 672 l 1040 479 l 846 285 l 652 479 l 846 672 m 545 371 l 739 178 l 545 -17 l 350 178 l 545 371 z "},"■":{"ha":1069,"x_min":148,"x_max":915,"o":"m 148 897 l 915 897 l 915 131 l 148 131 l 148 897 z "},"▬":{"ha":1187,"x_min":0,"x_max":1187,"o":"m 0 531 l 1187 531 l 1187 307 l 0 307 l 0 531 z "},"▲":{"ha":1235,"x_min":206,"x_max":1029,"o":"m 206 300 l 618 1122 l 1029 300 l 206 300 z "},"►":{"ha":1232,"x_min":195,"x_max":1037,"o":"m 195 1121 l 1037 701 l 195 281 l 195 1121 z "},"▼":{"ha":1235,"x_min":206,"x_max":1029,"o":"m 1029 1104 l 618 281 l 206 1104 l 1029 1104 z "},"◄":{"ha":1232,"x_min":195,"x_max":1037,"o":"m 1037 1121 l 1037 281 l 195 701 l 1037 1121 z "},"○":{"ha":876,"x_min":83,"x_max":793,"o":"m 435 286 q 187 387 289 290 q 83 623 85 484 q 83 631 83 627 q 160 857 83 764 q 342 977 239 952 q 442 989 393 989 q 541 977 492 989 q 715 866 638 952 q 793 637 793 779 q 687 388 793 494 q 446 286 585 286 l 435 286 m 140 636 q 140 576 140 636 q 206 446 140 516 q 355 351 272 376 q 527 351 439 326 q 677 453 615 376 q 741 643 739 530 q 659 849 743 756 q 441 940 575 943 q 224 847 308 938 q 140 636 140 756 z "},"◘":{"ha":867,"x_min":87,"x_max":781,"o":"m 87 290 l 87 984 l 781 984 l 781 290 l 87 290 m 434 779 q 333 738 374 779 q 291 637 291 696 q 333 535 291 577 q 434 494 374 494 q 535 535 493 494 q 576 637 576 577 q 535 738 576 696 q 434 779 493 779 z "},"◙":{"ha":1694,"x_min":134,"x_max":1562,"o":"m 136 1086 l 760 1086 l 761 1085 l 762 1085 l 184 58 q 135 -26 144 -14 l 134 -26 l 134 1084 l 136 1086 m 935 1086 l 1560 1086 l 1562 1084 l 1562 -26 l 1560 -26 l 1077 833 l 935 1084 l 935 1086 m 846 1085 l 847 1085 l 959 889 l 957 887 l 738 887 l 736 889 l 846 1085 m 583 1062 q 522 972 569 1024 q 469 900 479 925 l 467 900 q 473 946 471 913 q 437 1048 473 1002 q 422 1056 427 1056 l 420 1056 q 414 1025 414 1044 l 414 1019 q 427 924 414 996 l 429 890 l 427 890 q 374 991 412 954 q 248 1039 323 1039 l 210 1036 q 159 1054 182 1036 l 159 1053 q 190 1000 159 1034 q 205 987 192 1000 q 173 880 173 933 l 173 874 q 199 784 173 826 q 218 709 218 735 q 184 651 218 673 q 159 646 170 646 q 203 614 176 614 l 208 614 l 210 614 q 182 515 182 568 l 182 505 q 186 461 182 481 l 188 461 q 229 528 188 476 q 262 637 262 583 l 262 654 q 251 737 262 688 l 252 737 q 330 722 275 722 l 335 722 q 307 765 326 754 q 280 783 296 776 l 280 785 q 337 831 319 800 q 343 857 343 848 l 343 858 q 309 913 343 899 q 290 918 300 918 l 283 918 l 269 916 l 269 914 q 293 878 293 899 q 273 844 293 857 q 258 840 263 840 q 214 875 235 840 q 208 909 208 897 l 208 918 q 246 981 208 960 q 279 987 267 987 q 380 920 334 987 q 406 762 406 869 l 421 685 l 423 664 l 425 663 l 425 662 l 423 662 q 362 698 397 698 l 357 698 q 291 653 319 698 q 280 610 280 629 l 280 604 l 288 559 l 288 554 l 286 534 q 311 586 311 550 l 311 591 l 313 591 q 337 579 313 585 l 342 579 q 380 608 370 579 l 380 616 l 379 631 l 378 631 q 353 606 372 606 l 346 606 q 320 632 323 606 q 349 669 320 659 l 361 669 q 408 633 394 669 l 410 621 q 367 553 410 592 q 330 471 336 515 q 304 410 330 441 q 278 403 292 403 q 253 425 253 407 l 253 437 q 285 466 253 458 l 294 467 q 257 481 276 481 l 255 481 q 203 442 219 481 l 201 427 q 227 372 201 401 l 227 371 l 221 371 q 156 347 177 371 l 156 347 q 203 330 161 347 q 227 326 216 326 l 227 326 q 158 169 158 246 l 164 117 l 164 116 l 163 93 q 207 197 207 142 l 205 218 l 205 218 q 224 212 214 212 q 245 218 231 212 l 245 218 q 229 256 229 235 q 298 347 229 296 q 361 435 338 369 l 371 480 q 408 541 381 510 q 460 625 443 565 q 466 668 466 650 q 448 760 466 709 l 447 775 l 447 783 q 494 864 447 830 q 513 868 504 868 l 515 868 q 550 846 539 868 q 554 830 553 840 q 528 806 554 810 q 503 825 503 808 l 503 827 l 505 841 q 490 819 490 830 l 490 814 q 524 783 490 787 l 529 783 l 534 784 q 524 747 524 759 l 526 730 l 528 730 q 563 777 531 747 q 578 830 578 799 l 578 834 q 542 890 578 876 l 540 892 q 589 905 560 905 q 608 903 597 905 q 578 954 608 924 q 636 987 589 973 q 675 1000 654 987 q 709 1056 705 1034 q 637 1034 685 1044 q 583 1006 601 1021 l 583 1006 q 588 1030 588 1022 l 588 1042 q 584 1062 588 1051 l 583 1062 m 1108 1036 q 1116 1004 1109 1024 q 1024 1043 1094 1027 q 987 1056 1018 1043 q 1037 991 1006 1006 q 1099 972 1080 983 q 1118 955 1114 962 l 1118 953 q 1090 903 1090 924 q 1109 905 1097 905 l 1110 905 q 1157 892 1133 905 l 1157 890 q 1118 836 1118 878 l 1118 825 q 1153 758 1118 787 q 1168 730 1167 740 q 1173 745 1172 730 l 1173 749 q 1163 784 1173 762 l 1168 783 l 1174 783 q 1206 814 1206 787 l 1206 819 q 1192 840 1206 829 l 1192 840 l 1194 827 q 1172 806 1190 806 l 1168 806 q 1143 830 1143 811 l 1143 831 q 1172 867 1143 857 l 1181 868 l 1183 868 q 1246 808 1221 868 q 1250 778 1250 795 q 1237 720 1250 761 q 1231 666 1231 694 q 1259 573 1231 621 q 1301 528 1262 565 q 1333 446 1327 491 q 1374 367 1341 406 q 1414 336 1388 353 q 1468 253 1468 291 q 1452 218 1468 237 l 1452 218 q 1472 212 1460 213 q 1491 218 1481 212 l 1493 218 l 1491 199 l 1491 193 q 1534 93 1491 143 l 1534 94 l 1533 117 l 1539 170 q 1482 311 1539 236 l 1469 326 q 1535 345 1489 326 l 1541 347 l 1541 347 q 1478 371 1519 371 l 1471 371 l 1471 372 q 1495 423 1495 399 l 1495 427 q 1448 481 1495 469 l 1440 481 q 1403 467 1420 481 q 1444 438 1437 467 l 1444 427 q 1416 403 1440 403 q 1369 462 1381 403 q 1352 521 1360 510 q 1316 567 1342 540 q 1286 623 1286 595 q 1314 664 1286 647 q 1334 669 1326 669 l 1344 669 q 1375 642 1364 669 l 1377 632 q 1351 606 1373 606 l 1346 606 q 1321 623 1328 606 l 1319 631 l 1318 631 l 1316 618 l 1316 610 q 1345 580 1316 591 l 1353 579 l 1355 579 q 1385 591 1373 579 l 1385 591 q 1411 534 1385 551 l 1409 557 q 1417 600 1409 565 l 1417 608 q 1364 692 1417 663 q 1340 698 1352 698 l 1335 698 q 1276 666 1301 698 l 1275 661 l 1273 661 q 1289 746 1273 679 q 1293 827 1293 772 q 1312 909 1302 888 q 1379 977 1335 957 q 1419 987 1400 987 q 1480 950 1463 987 q 1489 913 1489 937 q 1447 841 1489 858 l 1438 840 q 1407 867 1416 840 l 1404 878 q 1428 914 1404 899 l 1428 916 l 1413 918 l 1407 918 q 1356 876 1369 918 l 1354 858 l 1354 857 q 1401 791 1354 819 l 1416 784 q 1375 752 1396 772 q 1362 722 1364 734 l 1367 722 q 1445 737 1421 722 l 1446 737 q 1434 646 1434 684 q 1493 495 1434 562 q 1509 461 1509 470 l 1510 461 q 1515 509 1515 484 l 1515 513 q 1487 614 1515 568 l 1489 614 l 1495 614 q 1538 646 1520 614 q 1482 694 1495 646 l 1480 711 q 1513 812 1480 751 q 1524 878 1524 846 q 1491 987 1524 933 q 1532 1036 1527 1017 q 1538 1054 1535 1037 l 1537 1054 q 1485 1036 1516 1036 l 1447 1039 q 1286 937 1337 1039 q 1271 890 1271 899 l 1269 890 l 1269 892 q 1282 994 1269 922 q 1284 1019 1284 1000 l 1284 1026 q 1276 1056 1284 1043 l 1275 1056 q 1226 975 1250 1056 l 1224 946 q 1230 900 1224 924 l 1229 900 q 1171 977 1210 936 q 1114 1062 1122 1034 q 1108 1036 1109 1058 m 692 808 l 1004 808 l 1560 -177 l 1560 -178 l 1198 -178 l 865 401 q 817 470 850 433 q 680 526 756 526 q 533 458 596 526 q 486 336 486 400 l 486 321 q 546 188 486 251 q 687 134 603 134 l 979 134 l 980 134 l 981 134 l 806 -178 l 137 -178 l 135 -176 l 692 808 m 1000 18 l 1002 18 l 1116 -178 l 888 -178 l 888 -177 l 1000 18 z "},"☺":{"ha":998,"x_min":58,"x_max":938,"o":"m 498 -2 q 186 127 315 -2 q 58 438 58 256 q 186 749 58 621 q 498 878 315 878 q 809 749 680 878 q 938 438 938 621 q 809 127 938 256 q 498 -2 680 -2 m 498 81 q 750 185 646 81 q 854 438 854 290 q 750 690 854 585 q 498 795 646 795 q 246 690 351 795 q 141 438 141 585 q 246 185 141 290 q 498 81 351 81 m 226 414 l 289 414 q 498 242 330 242 q 709 414 666 242 l 770 414 q 680 222 753 293 q 498 151 607 151 q 317 222 390 151 q 226 414 244 293 m 357 508 q 309 529 328 508 q 289 578 289 549 q 309 627 289 606 q 357 647 328 647 q 408 627 388 647 q 428 578 428 606 q 407 529 428 549 q 357 508 387 508 m 638 508 q 589 529 609 508 q 568 578 568 549 q 589 627 568 606 q 638 647 609 647 q 688 627 667 647 q 709 578 709 606 q 688 529 709 549 q 638 508 667 508 z "},"☻":{"ha":1173,"x_min":143,"x_max":1048,"o":"m 595 899 q 818 841 709 899 q 987 674 926 783 q 1048 448 1048 566 q 988 223 1048 331 q 820 57 928 116 q 595 -3 713 -3 q 371 57 478 -3 q 203 223 263 116 q 143 448 143 331 q 203 674 143 566 q 372 841 264 783 q 595 899 481 899 m 421 598 q 381 582 398 598 q 364 542 364 566 q 381 501 364 519 q 421 484 398 484 q 463 501 446 484 q 479 542 479 519 q 463 582 479 566 q 421 598 446 598 m 768 598 q 727 582 744 598 q 710 542 710 566 q 727 501 710 519 q 768 484 744 484 q 809 501 793 484 q 825 542 825 519 q 809 582 825 566 q 768 598 793 598 m 387 302 q 474 200 422 235 q 595 164 526 164 q 716 200 665 164 q 804 302 768 235 l 759 328 q 595 226 703 226 q 431 328 487 226 l 387 302 z "},"☼":{"ha":1091,"x_min":11,"x_max":1081,"o":"m 524 1070 l 569 1070 l 569 875 q 674 852 628 870 q 771 793 720 834 l 939 957 l 970 927 l 804 761 q 863 663 846 706 q 886 553 885 608 l 1081 553 l 1081 513 l 887 513 q 804 312 876 404 l 970 144 l 936 115 l 772 278 q 673 220 715 236 q 569 196 631 203 l 569 1 l 524 1 l 524 196 q 415 223 460 205 q 325 276 371 241 l 154 115 l 124 144 l 290 311 q 232 407 252 359 q 205 516 212 454 l 11 516 l 11 556 l 205 556 q 230 663 211 617 q 289 758 250 709 l 124 924 l 153 957 l 321 794 q 426 852 380 835 q 524 875 471 870 l 524 1070 m 545 832 q 398 794 470 832 q 288 684 327 755 q 248 535 248 612 q 288 388 248 458 q 397 277 327 317 q 545 238 468 238 q 693 277 623 238 q 803 388 764 317 q 842 535 842 458 q 802 684 842 612 q 691 794 762 755 q 545 832 620 832 z "},"♀":{"ha":939,"x_min":165,"x_max":772,"o":"m 486 519 l 486 286 l 752 286 l 752 252 l 486 252 l 486 -3 l 452 -3 l 452 252 l 185 252 l 185 286 l 452 286 l 452 519 q 320 557 391 519 q 208 668 250 595 q 165 822 165 741 q 206 973 165 901 q 318 1086 246 1046 q 469 1126 390 1126 q 620 1085 548 1126 q 732 973 692 1045 q 772 822 772 901 q 689 613 772 701 q 486 519 606 525 m 469 1093 q 335 1058 401 1093 q 234 958 270 1023 q 197 821 197 892 q 277 629 197 708 q 469 549 356 549 q 662 629 582 549 q 741 821 741 708 q 705 958 741 892 q 603 1058 668 1023 q 469 1093 538 1093 z "},"♂":{"ha":913,"x_min":75,"x_max":831,"o":"m 716 1090 l 737 1080 l 831 694 l 798 686 l 716 1023 l 508 577 q 638 460 595 534 q 682 302 682 386 q 642 151 682 224 q 530 38 602 79 q 378 -2 458 -2 q 228 38 300 -2 q 115 151 155 79 q 75 302 75 224 q 164 517 75 428 q 380 606 253 606 q 477 590 426 606 l 686 1037 l 374 884 l 360 913 l 716 1090 m 378 574 q 245 539 311 574 q 143 438 180 504 q 107 302 107 373 q 186 110 107 189 q 378 30 266 30 q 571 110 492 30 q 651 302 651 189 q 614 438 651 373 q 513 539 578 504 q 378 574 448 574 z "},"♠":{"ha":1006,"x_min":85,"x_max":921,"o":"m 412 290 l 475 583 q 271 460 382 460 q 138 512 191 460 q 85 643 85 564 q 117 752 85 706 q 238 870 149 799 l 334 946 q 504 1129 431 1024 q 673 946 575 1023 l 769 870 q 890 752 859 799 q 921 643 921 706 q 868 512 921 564 q 736 460 816 460 q 532 583 625 460 l 595 290 l 412 290 z "},"♣":{"ha":1006,"x_min":83,"x_max":922,"o":"m 419 290 l 472 628 q 382 490 431 532 q 262 448 333 448 q 135 501 186 448 q 83 629 83 553 q 137 769 83 717 q 282 821 192 821 q 355 810 316 821 q 320 935 320 878 q 373 1074 320 1018 q 503 1129 425 1129 q 632 1074 580 1129 q 685 935 685 1018 q 650 810 685 878 q 722 821 689 821 q 868 769 813 821 q 922 631 922 717 q 871 501 922 553 q 743 448 819 448 q 623 490 672 448 q 532 628 574 532 l 587 290 l 419 290 z "},"♥":{"ha":1006,"x_min":83,"x_max":922,"o":"m 503 290 q 234 535 356 385 q 83 876 83 719 q 144 1057 83 985 q 299 1129 206 1129 q 503 1002 421 1129 q 707 1129 583 1129 q 861 1057 799 1129 q 922 876 922 985 q 772 535 922 719 q 503 290 649 385 z "},"♦":{"ha":1006,"x_min":83,"x_max":922,"o":"m 922 709 q 503 290 672 538 q 83 709 332 538 q 503 1129 332 879 q 922 709 673 880 z "},"♪":{"ha":694,"x_min":24,"x_max":669,"o":"m 328 925 l 353 925 q 507 914 471 925 q 602 862 562 901 q 651 783 633 835 q 669 661 669 730 l 669 591 l 602 591 l 602 621 q 582 699 602 667 q 524 748 562 732 q 415 770 475 770 l 395 770 l 395 203 q 374 76 395 121 q 299 3 353 30 q 184 -24 246 -24 q 66 17 109 -24 q 24 126 24 58 q 75 246 24 198 q 210 294 127 294 q 328 262 263 294 l 328 925 z "},"♫":{"ha":1042,"x_min":56,"x_max":900,"o":"m 361 862 l 900 1030 l 900 279 q 879 152 900 195 q 807 81 859 109 q 690 54 755 54 q 573 96 618 54 q 528 206 528 139 q 581 322 528 273 q 716 372 634 372 q 764 367 744 372 q 831 342 784 362 l 831 833 l 428 708 l 428 141 q 407 14 428 59 q 332 -59 385 -32 q 216 -87 279 -87 q 99 -44 142 -87 q 56 64 56 -2 q 108 183 56 136 q 243 231 159 231 q 361 200 296 231 l 361 862 z "},"Ĳ":{"ha":1143,"x_min":27,"x_max":1183,"o":"m 172 507 l 27 563 l 27 802 l 172 899 l 172 507 m 172 90 l 27 186 l 27 433 l 172 482 l 172 90 m 1183 507 l 1038 563 l 1038 802 l 1183 899 l 1183 507 m 1183 105 l 1038 203 l 1038 433 l 1183 482 l 1183 105 m 1159 90 l 515 90 l 661 186 l 1014 186 l 1159 90 m 636 203 l 491 105 l 491 482 l 636 433 l 636 203 z "},"ĳ":{"ha":767,"x_min":26,"x_max":1057,"o":"m 172 507 l 26 563 l 26 802 l 172 899 l 172 507 m 172 90 l 26 186 l 26 433 l 172 482 l 172 90 m 1057 507 l 911 563 l 911 802 l 1057 899 l 1057 507 m 1057 105 l 911 203 l 911 433 l 1057 482 l 1057 105 m 1033 90 l 389 90 l 534 186 l 888 186 l 1033 90 m 510 203 l 365 105 l 365 482 l 510 433 l 510 203 z "},"ŉ":{"ha":1013,"x_min":-2,"x_max":1132,"o":"m 227 899 l 149 621 l -2 621 l 78 899 l 227 899 m 1132 507 l 987 563 l 987 786 l 1132 884 l 1132 507 m 1108 899 l 963 802 l 610 802 l 464 899 l 1108 899 m 585 563 l 440 507 l 440 884 l 585 786 l 585 563 m 1132 90 l 987 186 l 987 433 l 1132 482 l 1132 90 m 585 186 l 440 90 l 440 482 l 585 433 l 585 186 z "},"′":{"ha":359,"x_min":134,"x_max":323,"o":"m 162 718 l 134 718 l 138 940 q 174 1063 138 1023 q 259 1103 210 1103 q 305 1086 288 1103 q 323 1045 323 1069 q 283 941 323 1012 l 162 718 z "},"″":{"ha":767,"x_min":146,"x_max":662,"o":"m 174 718 l 146 718 l 150 940 q 186 1063 150 1023 q 271 1103 222 1103 q 317 1086 300 1103 q 335 1045 335 1069 q 295 941 335 1012 l 174 718 m 501 718 l 473 718 l 477 940 q 513 1063 477 1023 q 598 1103 549 1103 q 644 1086 627 1103 q 662 1045 662 1069 q 622 941 662 1012 l 501 718 z "},"℅":{"ha":1000,"x_min":37,"x_max":965,"o":"m 804 1103 l 246 267 l 168 267 l 726 1103 l 804 1103 m 359 796 l 372 787 q 302 708 344 733 q 212 682 260 682 q 88 738 139 682 q 37 886 37 794 q 92 1044 37 984 q 225 1103 146 1103 q 323 1073 288 1103 q 359 1004 359 1042 q 345 965 359 980 q 307 950 330 950 q 266 967 281 950 q 245 1026 250 983 q 232 1064 242 1053 q 210 1074 222 1074 q 174 1053 189 1074 q 152 952 152 1020 q 199 791 152 852 q 275 750 228 750 q 314 760 296 750 q 359 796 332 769 m 777 709 q 911 652 857 709 q 965 498 965 595 q 912 345 965 401 q 779 288 859 288 q 645 345 698 288 q 591 496 591 402 q 645 651 591 593 q 777 709 699 709 m 779 680 q 730 645 743 680 q 716 464 716 610 q 734 343 716 370 q 777 317 752 317 q 826 352 812 317 q 840 532 840 387 q 820 657 840 627 q 779 680 806 680 z "},"ℓ":{"ha":451,"x_min":18,"x_max":428,"o":"m 18 492 l 96 576 l 96 857 q 150 1051 96 999 q 266 1103 203 1103 q 361 1068 324 1103 q 397 977 397 1034 q 368 859 397 921 q 253 699 347 812 l 253 482 q 270 384 253 408 q 314 360 288 360 q 363 384 340 360 q 399 466 387 407 l 428 466 q 361 326 409 368 q 250 283 314 283 q 140 331 183 283 q 96 467 96 378 l 96 533 l 38 472 l 18 492 m 253 741 q 363 968 363 868 q 349 1028 363 1010 q 317 1046 335 1046 q 275 1020 291 1046 q 253 878 253 985 l 253 741 z "},"□":{"ha":1065,"x_min":148,"x_max":923,"o":"m 148 1053 l 923 1053 l 923 287 l 148 287 l 148 1053 m 873 332 l 873 1008 l 197 1008 l 197 332 l 873 332 z "},"▪":{"ha":439,"x_min":62,"x_max":378,"o":"m 378 618 l 378 304 l 62 304 l 62 618 l 378 618 z "},"▫":{"ha":439,"x_min":62,"x_max":378,"o":"m 378 618 l 378 304 l 62 304 l 62 618 l 378 618 m 333 574 l 106 574 l 106 348 l 333 348 l 333 574 z "},"●":{"ha":752,"x_min":121,"x_max":631,"o":"m 376 815 q 502 782 440 815 q 597 688 564 749 q 631 560 631 626 q 557 379 631 454 q 376 304 482 304 q 195 379 270 304 q 121 560 121 454 q 155 688 121 627 q 251 782 189 749 q 376 815 312 815 z "},"◦":{"ha":436,"x_min":52,"x_max":383,"o":"m 218 633 q 335 585 288 633 q 383 468 383 537 q 335 351 383 399 q 218 302 287 302 q 101 351 149 302 q 52 468 52 399 q 100 585 52 537 q 218 633 149 633 m 218 590 q 132 554 167 590 q 96 468 96 518 q 132 382 96 417 q 218 347 168 347 q 304 382 269 347 q 340 468 340 417 q 304 554 340 518 q 218 590 269 590 z "},"Ā":{"ha":860,"x_min":0,"x_max":0,"o":""},"ā":{"ha":607,"x_min":0,"x_max":0,"o":""},"Ĉ":{"ha":877,"x_min":0,"x_max":0,"o":""},"ĉ":{"ha":542,"x_min":0,"x_max":0,"o":""},"₡":{"ha":772,"x_min":71,"x_max":729,"o":"m 729 538 q 415 303 688 303 q 368 305 397 303 l 349 253 l 277 253 l 301 316 q 249 333 266 325 l 218 253 l 146 253 l 189 366 q 71 672 71 457 q 414 1033 71 1033 q 447 1032 437 1033 l 468 1086 l 541 1086 l 515 1023 q 568 1008 541 1018 l 599 1086 l 671 1086 l 628 975 q 718 826 694 924 l 604 807 q 583 861 596 835 l 397 380 l 414 380 q 614 559 587 380 l 729 538 m 418 956 l 412 956 q 250 886 307 956 q 193 661 193 817 q 232 477 193 544 l 418 956 m 534 922 q 486 946 511 939 l 282 420 q 330 394 303 403 l 534 922 z "},"₢":{"ha":772,"x_min":62,"x_max":741,"o":"m 741 723 l 699 635 q 610 656 653 656 q 506 608 541 656 q 471 473 471 559 l 471 374 q 606 514 576 399 l 721 490 q 407 281 654 281 q 62 688 62 281 q 406 1086 62 1086 q 710 878 668 1086 l 596 858 q 404 1001 562 1001 q 241 924 298 1001 q 184 675 184 847 q 349 373 184 413 l 349 741 l 460 741 l 460 656 l 463 656 q 615 753 521 753 q 741 723 677 753 z "},"Ē":{"ha":806,"x_min":0,"x_max":0,"o":""},"ē":{"ha":538,"x_min":0,"x_max":0,"o":""},"Ĕ":{"ha":806,"x_min":0,"x_max":0,"o":""},"ĕ":{"ha":538,"x_min":0,"x_max":0,"o":""},"Ė":{"ha":804,"x_min":0,"x_max":0,"o":""},"ė":{"ha":538,"x_min":0,"x_max":0,"o":""},"Ĝ":{"ha":932,"x_min":0,"x_max":0,"o":""},"ĝ":{"ha":604,"x_min":0,"x_max":0,"o":""},"℀":{"ha":930,"x_min":64,"x_max":875,"o":"m 740 1087 l 336 304 l 259 304 l 666 1087 l 740 1087 m 413 701 l 334 701 q 322 747 324 721 q 193 692 275 692 q 98 722 133 692 q 64 800 64 751 q 97 878 64 847 q 213 918 130 908 q 318 941 277 926 q 313 985 318 968 q 291 1013 309 1002 q 235 1023 273 1023 q 177 1011 197 1023 q 150 962 156 999 l 75 970 q 246 1086 96 1086 q 353 1059 313 1086 q 393 945 393 1032 l 393 858 q 396 753 393 780 q 413 701 399 727 m 318 869 l 318 886 q 222 863 275 871 q 143 804 143 852 q 208 754 143 754 q 283 786 248 754 q 318 869 318 818 m 875 441 q 717 302 849 302 q 591 353 637 302 q 545 498 545 404 q 592 645 545 593 q 717 696 638 696 q 816 666 776 696 q 868 577 857 635 l 792 567 q 720 633 781 633 q 625 499 625 633 q 716 364 625 364 q 798 448 786 364 l 875 441 z "},"℁":{"ha":916,"x_min":64,"x_max":874,"o":"m 743 1087 l 336 300 l 260 300 l 669 1087 l 743 1087 m 414 699 l 336 699 q 323 745 326 720 q 193 690 277 690 q 98 720 133 690 q 64 799 64 750 q 97 877 64 846 q 213 918 131 907 q 319 940 279 925 q 314 985 319 968 q 292 1013 310 1002 q 236 1023 274 1023 q 177 1011 198 1023 q 151 962 157 998 l 75 969 q 247 1086 96 1086 q 354 1059 314 1086 q 394 944 394 1032 l 394 857 q 397 752 394 779 q 414 699 400 726 m 319 868 l 319 886 q 223 862 276 870 q 143 803 143 851 q 208 753 143 753 q 283 785 248 753 q 319 868 319 817 m 787 580 q 715 631 780 631 q 647 591 647 631 q 659 563 647 573 q 726 540 671 553 q 842 495 810 518 q 874 418 874 473 q 835 333 874 368 q 723 298 795 298 q 561 420 579 298 l 634 430 q 722 361 644 361 q 777 375 758 361 q 795 412 795 389 q 781 446 795 438 q 700 470 766 454 q 595 517 621 489 q 570 585 570 545 q 609 663 570 631 q 711 694 647 694 q 861 588 845 694 l 787 580 z "},"℄":{"ha":750,"x_min":57,"x_max":703,"o":"m 703 518 l 635 305 l 137 305 l 137 327 q 215 338 193 327 q 243 373 238 349 q 248 455 248 397 l 248 461 q 108 543 159 479 q 57 693 57 607 q 107 851 57 783 q 248 939 158 920 q 243 1020 248 996 q 215 1054 237 1043 q 137 1065 192 1065 l 137 1087 l 490 1087 l 490 1065 q 401 1054 429 1065 q 366 1018 374 1043 q 359 941 359 994 q 411 920 382 935 q 422 915 420 915 q 454 947 444 915 l 473 947 l 486 787 l 467 787 q 359 906 434 890 l 359 497 q 484 582 426 505 l 500 570 q 359 463 442 481 l 359 458 q 373 372 359 388 q 412 356 387 356 l 481 356 q 606 396 560 356 q 684 522 651 437 l 703 518 m 248 516 l 248 895 q 163 693 163 850 q 248 516 163 560 z "},"℆":{"ha":950,"x_min":74,"x_max":873,"o":"m 708 1084 l 304 302 l 229 302 l 634 1084 l 708 1084 m 402 829 q 245 690 376 690 q 119 741 165 690 q 74 886 74 791 q 120 1032 74 981 q 245 1084 165 1084 q 344 1054 304 1084 q 395 965 384 1023 l 320 955 q 248 1021 308 1021 q 153 887 153 1021 q 243 752 153 752 q 325 836 313 752 l 402 829 m 873 309 l 804 309 l 804 367 l 804 367 q 696 300 768 300 q 627 316 661 300 q 581 363 594 332 q 567 452 567 395 l 567 686 l 642 686 l 642 477 q 646 410 642 430 q 666 377 650 390 q 709 363 683 363 q 775 392 751 363 q 799 484 799 420 l 799 686 l 873 686 l 873 309 z "},"ℇ":{"ha":610,"x_min":58,"x_max":562,"o":"m 509 425 q 434 503 434 448 q 449 540 434 524 q 486 555 464 555 q 539 533 517 555 q 562 474 562 510 q 489 353 562 412 q 313 294 416 294 q 130 354 201 294 q 58 507 58 414 q 103 638 58 583 q 231 711 149 693 q 114 787 154 736 q 73 902 73 838 q 132 1036 73 981 q 283 1090 191 1090 q 427 1063 347 1090 q 467 1053 457 1053 q 510 1089 500 1053 l 530 1089 l 530 869 l 510 869 q 324 1041 477 1041 q 222 1002 260 1041 q 184 901 184 964 q 233 781 184 831 q 399 730 281 730 l 399 692 q 239 643 293 692 q 184 517 184 593 q 228 392 184 440 q 342 345 271 345 q 509 425 459 345 z "},"℈":{"ha":793,"x_min":41,"x_max":740,"o":"m 102 1093 q 148 1040 113 1040 q 181 1052 159 1040 q 345 1092 264 1092 q 628 972 517 1092 q 740 675 740 852 q 634 398 740 509 q 366 288 529 288 q 133 357 224 288 q 41 502 41 427 q 65 573 41 544 q 122 602 90 602 q 173 585 154 602 q 192 542 192 568 q 169 482 192 508 q 104 446 145 456 q 193 365 134 393 q 322 338 252 338 q 527 422 447 338 q 610 672 607 507 l 473 672 q 384 650 408 672 q 358 565 359 629 l 338 565 l 338 825 l 358 825 q 384 740 359 762 q 473 719 408 719 l 608 719 q 528 967 600 882 q 341 1053 456 1053 q 82 831 143 1053 l 64 831 l 82 1093 l 102 1093 z "},"Ḥ":{"ha":930,"x_min":28,"x_max":898,"o":"m 898 79 l 877 79 q 620 305 833 305 l 490 305 l 490 328 l 516 328 q 570 338 549 328 q 595 366 587 347 q 601 439 601 381 l 601 680 l 327 680 l 327 439 q 328 381 327 392 q 358 338 332 353 q 410 328 378 328 l 436 328 l 436 305 l 28 305 l 28 328 l 54 328 q 131 366 114 328 q 139 439 139 381 l 139 951 q 136 1008 139 998 q 106 1051 130 1038 q 54 1063 87 1063 l 28 1063 l 28 1084 l 436 1084 l 436 1063 l 410 1063 q 332 1023 350 1063 q 327 951 327 1009 l 327 730 l 601 730 l 601 951 q 599 1008 601 999 q 570 1051 594 1038 q 516 1063 549 1063 l 490 1063 l 490 1084 l 898 1084 l 898 1063 l 872 1063 q 818 1050 840 1063 q 795 1023 804 1042 q 789 951 789 1009 l 789 439 q 790 381 789 391 q 821 338 795 353 q 872 328 840 328 l 898 328 l 898 79 z "},"ḥ":{"ha":650,"x_min":47,"x_max":631,"o":"m 268 1087 l 268 774 q 349 840 311 821 q 427 859 387 859 q 513 830 477 859 q 562 762 550 800 q 573 630 573 723 l 573 418 q 585 342 573 357 q 631 322 597 326 l 631 116 l 605 116 q 357 301 573 301 l 357 322 q 401 346 387 326 q 411 418 411 361 l 411 661 q 406 745 411 728 q 389 772 401 763 q 360 781 376 781 q 315 765 337 781 q 268 709 293 749 l 268 418 q 277 346 268 361 q 321 322 288 328 l 321 301 l 47 301 l 47 322 q 96 345 81 326 q 104 418 104 357 l 104 969 q 93 1046 104 1031 q 47 1065 82 1062 l 47 1087 l 268 1087 z "},"Ĩ":{"ha":472,"x_min":0,"x_max":0,"o":""},"ĩ":{"ha":333,"x_min":0,"x_max":0,"o":""},"Ī":{"ha":474,"x_min":0,"x_max":0,"o":""},"ī":{"ha":336,"x_min":0,"x_max":0,"o":""},"Ĭ":{"ha":470,"x_min":0,"x_max":0,"o":""},"ĭ":{"ha":336,"x_min":0,"x_max":0,"o":""},"ℊ":{"ha":708,"x_min":-35,"x_max":726,"o":"m 726 495 q 436 287 587 336 q 276 91 358 150 q 86 33 194 33 q -2 53 31 33 q -35 104 -35 73 q 42 209 -35 168 q 286 290 119 250 q 335 377 328 357 q 179 305 245 305 q 94 341 130 305 q 58 434 58 377 q 176 663 58 559 q 415 766 293 766 q 525 696 496 766 l 562 753 l 713 753 l 713 744 l 471 333 q 708 516 593 386 l 726 516 l 726 495 m 211 344 q 380 472 273 344 q 488 670 488 600 q 474 710 488 694 q 444 727 461 727 q 348 659 408 727 q 239 499 288 591 q 189 370 189 407 q 211 344 189 344 m 268 252 q 86 182 145 220 q 26 105 26 144 q 78 63 26 63 q 268 252 161 63 z "},"ℋ":{"ha":1087,"x_min":32,"x_max":1302,"o":"m 799 691 q 1030 984 903 877 q 1226 1090 1156 1090 q 1281 1069 1259 1090 q 1302 1013 1302 1048 q 1212 850 1302 930 q 946 707 1121 770 q 836 470 872 569 q 799 339 799 370 q 833 309 799 309 q 1086 463 905 309 q 1097 467 1092 467 q 1107 455 1107 467 q 1053 399 1107 448 q 932 315 1000 351 q 812 279 865 279 q 730 317 764 279 q 696 398 696 355 q 770 652 696 483 l 661 623 q 570 458 607 509 q 473 365 533 406 q 348 302 413 323 q 216 281 282 281 q 83 322 135 281 q 32 427 32 364 q 62 508 32 475 q 131 541 92 541 q 181 522 159 541 q 203 475 203 503 q 182 430 203 449 q 130 407 162 412 q 85 375 85 400 q 123 328 85 348 q 210 307 162 307 q 347 361 288 307 q 476 562 406 414 q 286 456 433 554 q 273 480 275 470 q 499 604 405 570 q 541 679 511 622 q 661 876 608 802 q 545 791 599 821 q 464 761 491 761 q 426 775 442 761 q 410 814 410 790 q 424 865 410 835 q 459 920 439 895 q 467 938 467 928 q 452 951 467 951 q 353 882 422 951 l 244 772 l 226 791 q 382 943 338 908 q 473 977 426 977 q 518 961 500 977 q 535 920 535 945 q 499 840 535 897 q 488 809 488 821 q 499 797 488 797 q 556 825 509 797 q 648 892 603 852 q 832 1047 793 1019 q 850 1031 844 1043 q 757 902 797 978 q 673 655 718 825 q 799 691 730 667 m 964 741 q 1180 894 1105 803 q 1254 1027 1254 985 q 1225 1061 1254 1061 q 1097 969 1175 1061 q 964 741 1019 878 z "},"Ĵ":{"ha":598,"x_min":15,"x_max":707,"o":"m 707 497 l 562 547 l 562 763 l 707 850 l 707 497 m 707 135 l 562 223 l 562 431 l 707 475 l 707 135 m 683 121 l 39 121 l 184 208 l 538 208 l 683 121 m 160 223 l 15 135 l 15 475 l 160 431 l 160 223 m 369 1233 l 475 1057 l 435 1057 l 310 1152 l 182 1059 l 140 1059 l 251 1233 l 369 1233 z "},"ĵ":{"ha":392,"x_min":-39,"x_max":378,"o":"m 258 1126 l 378 909 l 330 909 l 192 1025 l 54 909 l 6 909 l 127 1126 l 258 1126 m 282 842 l 282 280 q 269 153 282 199 q 213 75 256 107 q 100 43 170 43 q -4 72 31 43 q -39 142 -39 100 q -21 186 -39 168 q 20 205 -3 205 q 68 153 68 205 q 68 137 68 146 q 66 121 66 125 q 99 81 66 81 q 132 125 132 81 q 127 191 132 137 q 121 387 123 229 l 121 722 l 121 752 q 110 802 121 786 q 56 820 98 818 l 56 842 l 282 842 z "},"Ķ":{"ha":964,"x_min":30,"x_max":934,"o":"m 495 783 l 769 439 q 868 339 826 365 q 934 321 899 321 l 934 300 l 932 70 l 903 70 q 667 300 842 300 l 527 300 l 527 321 q 577 333 566 325 q 588 355 588 342 q 534 444 588 378 l 356 671 l 328 646 l 328 433 q 335 357 328 372 q 361 332 342 342 q 424 321 380 321 l 424 300 l 30 300 l 30 321 l 56 321 q 111 333 90 321 q 133 361 125 342 q 140 433 140 375 l 140 947 q 134 1021 140 1006 q 108 1047 127 1036 q 56 1059 89 1059 l 30 1059 l 30 1080 l 418 1080 l 418 1059 q 357 1047 379 1059 q 334 1021 343 1039 q 328 947 328 1006 l 328 704 l 616 938 q 677 1017 677 987 q 652 1050 677 1038 q 589 1059 640 1057 l 589 1080 l 895 1080 l 895 1059 q 830 1044 854 1056 q 722 964 807 1031 l 495 783 z "},"ķ":{"ha":695,"x_min":45,"x_max":679,"o":"m 267 1091 l 267 572 l 392 696 q 441 751 431 734 q 450 784 450 768 q 437 809 450 798 q 389 825 425 820 l 389 846 l 632 846 l 632 825 q 571 808 597 823 q 468 719 545 793 l 410 661 l 537 473 q 629 345 614 359 q 679 323 648 326 l 679 70 l 653 70 q 469 302 608 307 l 398 302 l 398 323 q 424 330 416 323 q 433 345 433 337 q 410 394 433 359 l 302 553 l 267 518 l 267 420 q 278 343 267 358 q 325 323 289 328 l 325 302 l 45 302 l 45 323 q 94 345 79 328 q 103 420 103 358 l 103 972 q 92 1050 103 1034 q 45 1069 81 1065 l 45 1091 l 267 1091 z "},"ĸ":{"ha":665,"x_min":49,"x_max":681,"o":"m 270 725 l 270 569 l 395 692 q 454 779 454 749 q 391 821 454 815 l 391 842 l 635 842 l 635 821 q 571 803 597 819 q 471 715 545 787 l 412 657 l 539 470 q 633 341 615 359 q 681 321 650 324 l 681 300 l 401 300 l 401 321 q 436 344 436 321 q 412 391 436 355 l 304 549 l 270 515 l 270 417 q 280 343 270 359 q 329 321 290 326 l 329 300 l 49 300 l 49 321 q 108 385 108 327 l 108 725 q 98 799 108 782 q 49 821 88 817 l 49 842 l 329 842 l 329 821 q 280 800 290 816 q 270 725 270 783 z "},"ℌ":{"ha":1067,"x_min":64,"x_max":1042,"o":"m 1042 989 l 954 937 l 883 1027 q 842 879 842 1002 l 842 444 q 852 356 842 389 q 879 323 863 323 q 913 359 894 323 q 936 439 932 395 l 1034 439 q 964 348 996 378 q 906 309 931 317 q 848 301 880 301 q 773 339 805 301 q 741 424 741 377 l 741 701 l 461 701 l 461 621 q 448 519 461 570 q 412 440 435 469 q 339 378 389 410 l 219 301 l 140 385 l 104 361 l 91 376 l 216 456 l 294 374 q 333 400 321 386 q 352 452 345 415 q 360 542 360 488 l 360 812 q 351 954 360 909 q 312 1020 341 998 q 243 1042 282 1042 q 158 1008 196 1042 q 120 934 120 975 q 136 886 120 908 q 188 837 153 864 q 256 713 256 782 q 165 579 256 634 l 161 597 q 201 647 201 618 q 189 684 201 667 q 148 729 178 701 q 83 803 103 770 q 64 868 64 835 q 88 953 64 903 q 160 1033 113 1002 q 274 1063 208 1063 q 381 1037 345 1063 q 439 961 417 1010 q 461 847 461 911 l 461 723 l 741 723 l 741 800 q 754 910 741 867 q 793 982 767 953 q 858 1031 819 1011 l 961 1087 l 1042 989 z "},"ℎ":{"ha":542,"x_min":26,"x_max":521,"o":"m 521 418 q 446 329 489 366 q 370 292 403 292 q 336 305 349 292 q 323 339 323 319 q 374 538 323 365 q 418 710 418 690 q 391 738 418 738 q 341 713 372 738 q 272 640 310 688 q 196 528 233 591 q 142 408 159 464 l 109 305 l 26 305 l 202 917 q 226 1010 226 1002 q 178 1040 226 1040 q 144 1036 167 1040 l 144 1057 l 324 1087 l 335 1087 l 182 564 l 184 562 q 337 754 279 705 q 442 803 395 803 q 488 784 470 803 q 505 736 505 765 q 499 683 505 709 q 467 572 493 656 q 409 371 409 375 q 424 354 409 354 q 503 428 449 354 l 521 418 z "},"ℏ":{"ha":542,"x_min":26,"x_max":522,"o":"m 522 414 q 447 325 490 361 q 371 288 404 288 q 337 301 350 288 q 323 335 323 315 q 374 535 323 361 q 418 706 418 686 q 392 734 418 734 q 341 710 372 734 q 272 636 311 685 q 197 524 234 588 q 142 404 159 460 l 109 301 l 26 301 l 180 836 l 85 800 l 78 823 l 188 865 q 226 1006 226 995 q 178 1037 226 1037 q 145 1033 167 1037 l 145 1054 l 325 1084 l 336 1084 l 281 902 l 427 957 l 434 935 l 273 872 l 182 561 l 184 559 q 337 751 279 701 q 443 800 395 800 q 488 781 471 800 q 506 733 506 762 q 500 680 506 706 q 469 568 494 653 q 410 367 410 370 q 425 350 410 350 q 504 424 450 350 l 522 414 z "},"ℐ":{"ha":956,"x_min":11,"x_max":1069,"o":"m 1069 1060 q 981 1031 1018 1050 q 907 966 945 1013 q 840 853 870 920 q 764 671 809 787 q 641 387 689 479 q 737 345 703 379 q 770 262 770 311 q 706 141 770 195 q 537 79 642 87 l 537 106 q 688 162 637 121 q 739 265 739 203 q 709 328 739 302 q 625 359 680 353 q 133 -7 416 -7 q 44 20 78 -7 q 11 90 11 48 q 129 271 11 191 q 460 380 246 351 q 733 853 648 734 q 960 1053 819 973 l 938 1053 q 682 980 812 1053 q 466 798 551 907 q 380 611 380 688 q 397 564 380 581 q 444 547 414 547 q 511 562 473 547 q 522 539 521 549 q 453 524 495 524 q 362 565 396 524 q 328 674 328 606 q 539 961 328 836 q 1069 1087 749 1086 l 1069 1060 m 446 349 q 162 235 262 318 q 62 74 62 153 q 133 20 62 20 q 285 95 216 20 q 446 349 354 170 z "},"Ŋ":{"ha":928,"x_min":30,"x_max":859,"o":"m 330 940 q 556 1103 422 1103 q 700 1053 635 1103 q 812 906 765 1002 q 859 682 859 809 q 777 400 859 518 q 578 281 694 281 q 484 317 520 281 q 448 399 448 353 q 468 453 448 431 q 519 476 488 476 q 574 451 555 476 q 594 391 594 426 l 594 363 q 618 327 594 327 q 649 347 640 327 q 657 448 657 367 l 657 814 q 625 997 657 943 q 530 1050 593 1050 q 330 854 418 1050 l 330 434 q 335 363 330 378 q 360 334 340 347 q 415 321 380 321 l 441 321 l 441 300 l 30 300 l 30 321 l 56 321 q 112 333 93 321 q 135 362 130 345 q 140 434 140 379 l 140 951 q 136 1022 140 1006 q 111 1051 132 1038 q 56 1064 91 1064 l 30 1064 l 30 1086 l 330 1086 l 330 940 z "},"ŋ":{"ha":683,"x_min":51,"x_max":577,"o":"m 272 709 l 272 418 q 282 343 272 360 q 326 321 292 326 l 326 300 l 51 300 l 51 321 q 98 341 87 325 q 109 418 109 357 l 109 724 q 100 799 109 782 q 51 820 90 816 l 51 842 l 272 842 l 272 772 q 434 858 347 858 q 515 833 483 858 q 563 772 548 809 q 577 629 577 735 l 577 281 q 564 154 577 201 q 504 75 551 106 q 389 43 458 43 q 281 72 318 43 q 245 143 245 100 q 262 187 245 168 q 303 205 279 205 q 351 155 351 205 q 351 137 351 147 q 350 121 350 126 q 382 81 350 81 q 409 96 404 81 q 415 180 415 112 l 415 659 q 404 757 415 734 q 365 779 393 779 q 272 709 313 779 z "},"Ō":{"ha":941,"x_min":0,"x_max":0,"o":""},"ō":{"ha":613,"x_min":0,"x_max":0,"o":""},"Ŏ":{"ha":938,"x_min":0,"x_max":0,"o":""},"ŏ":{"ha":607,"x_min":0,"x_max":0,"o":""},"ℑ":{"ha":656,"x_min":36,"x_max":629,"o":"m 612 1018 q 540 937 563 975 q 517 833 517 899 q 527 780 517 810 q 572 685 536 750 q 620 587 610 618 q 629 530 629 555 q 610 444 629 486 q 554 365 591 403 q 460 291 516 327 l 325 206 l 100 303 l 54 268 l 36 282 l 163 385 l 403 282 q 480 353 447 308 q 513 490 513 399 q 504 543 513 513 q 460 633 495 572 q 412 732 422 699 q 401 793 401 765 q 429 876 401 836 q 522 966 456 916 q 369 987 464 987 q 172 962 248 987 q 96 910 96 937 q 111 881 96 893 q 178 840 127 868 q 269 720 269 788 q 247 659 269 679 q 178 610 225 638 l 173 629 q 208 652 198 643 q 218 676 218 662 q 205 710 218 694 q 158 751 191 726 q 61 900 61 822 q 141 1028 61 975 q 366 1082 220 1082 q 612 1018 530 1082 z "},"ℒ":{"ha":983,"x_min":66,"x_max":1010,"o":"m 483 610 q 703 966 591 846 q 911 1087 814 1087 q 982 1057 954 1087 q 1010 986 1010 1026 q 887 775 1010 895 q 644 612 764 655 q 456 363 579 441 q 589 319 530 319 q 675 344 625 319 q 814 440 726 370 q 852 469 848 469 q 860 465 856 469 q 863 458 863 462 q 813 402 863 447 q 696 326 763 358 q 574 293 630 293 q 421 342 518 293 q 218 288 319 288 q 111 312 155 288 q 66 370 66 335 q 101 423 66 403 q 195 444 136 444 q 372 397 276 444 q 476 583 426 458 l 456 583 q 298 644 363 583 q 232 790 232 705 q 352 996 232 907 q 618 1086 472 1086 q 709 1072 652 1086 q 703 1050 709 1062 q 616 1060 656 1060 q 390 964 481 1060 q 298 747 298 868 q 346 647 298 684 q 456 609 394 609 q 483 610 473 609 m 652 645 q 870 823 787 705 q 954 1015 954 941 q 909 1061 954 1061 q 783 974 849 1061 q 652 645 717 888 m 353 372 q 186 414 275 414 q 124 402 146 414 q 101 370 101 390 q 134 334 101 349 q 213 318 166 318 q 353 372 302 318 z "},"Ŝ":{"ha":681,"x_min":0,"x_max":0,"o":""},"ŝ":{"ha":479,"x_min":0,"x_max":0,"o":""},"Ŧ":{"ha":806,"x_min":50,"x_max":756,"o":"m 309 690 l 133 690 l 133 739 l 309 739 l 309 1040 l 251 1040 q 162 1025 195 1040 q 105 967 129 1010 q 72 873 81 924 l 50 873 l 50 1086 l 756 1086 l 756 873 l 736 873 q 694 979 718 947 q 641 1026 671 1011 q 555 1040 610 1040 l 496 1040 l 496 739 l 675 739 l 675 690 l 496 690 l 496 443 q 501 368 496 387 q 525 335 506 349 q 583 321 545 321 l 609 321 l 609 300 l 197 300 l 197 321 l 223 321 q 280 334 261 321 q 304 364 299 347 q 309 434 309 381 l 309 690 z "},"ŧ":{"ha":401,"x_min":25,"x_max":387,"o":"m 96 605 l 25 605 l 25 652 l 96 652 l 96 785 l 25 785 l 25 804 q 239 1040 167 902 l 258 1040 l 258 842 l 387 842 l 387 785 l 258 785 l 258 652 l 387 652 l 387 605 l 258 605 l 258 450 q 268 378 258 397 q 300 359 278 359 q 370 416 337 359 l 387 404 q 234 292 340 292 q 147 320 183 292 q 103 376 111 348 q 96 492 96 404 l 96 605 z "},"Ũ":{"ha":865,"x_min":0,"x_max":0,"o":""},"ũ":{"ha":676,"x_min":0,"x_max":0,"o":""},"Ū":{"ha":866,"x_min":0,"x_max":0,"o":""},"ū":{"ha":673,"x_min":0,"x_max":0,"o":""},"Ŭ":{"ha":863,"x_min":0,"x_max":0,"o":""},"ŭ":{"ha":673,"x_min":0,"x_max":0,"o":""},"Ǜ":{"ha":883,"x_min":0,"x_max":0,"o":""},"ǜ":{"ha":652,"x_min":0,"x_max":0,"o":""},"℔":{"ha":884,"x_min":4,"x_max":810,"o":"m 416 807 q 570 884 470 884 q 744 804 679 884 q 810 595 810 724 q 777 429 810 498 q 685 325 744 360 q 565 290 627 290 q 410 374 465 290 l 408 374 l 408 303 l 317 303 l 317 945 l 170 945 l 170 303 l 74 303 l 74 945 l 4 945 l 4 1016 l 74 1016 l 74 1087 l 170 1087 l 170 1016 l 317 1016 l 317 1087 l 414 1087 l 414 1016 l 547 1016 l 547 945 l 414 945 l 414 807 l 416 807 m 557 369 q 668 426 625 369 q 711 587 711 484 q 672 745 711 685 q 561 805 633 805 q 449 744 491 805 q 406 591 406 684 q 424 463 406 501 q 477 397 441 425 q 557 369 512 369 z "},"℘":{"ha":1028,"x_min":66,"x_max":1030,"o":"m 283 580 q 631 899 517 827 q 842 970 744 970 q 977 912 924 970 q 1030 761 1030 853 q 974 553 1030 653 q 818 379 918 454 q 631 304 717 304 q 516 345 562 304 q 471 446 471 385 q 499 537 471 500 q 570 575 528 575 q 607 560 592 575 q 623 522 623 545 q 603 479 623 499 q 555 458 584 459 q 515 416 515 455 q 548 361 515 387 q 621 336 581 336 q 747 395 681 336 q 860 574 813 454 q 906 790 906 694 q 876 885 906 847 q 800 924 845 924 q 673 885 739 924 q 495 747 608 846 q 301 544 381 647 q 381 354 357 427 q 404 230 404 281 q 352 66 404 134 q 228 -1 300 -1 q 113 49 160 -1 q 66 177 66 99 q 96 303 66 241 q 187 454 125 364 q 145 630 145 559 q 233 862 145 746 q 487 1078 320 978 l 507 1049 q 260 693 260 903 q 283 580 260 629 m 205 417 q 114 260 127 300 q 100 175 100 220 q 135 72 100 112 q 220 33 170 33 q 287 62 261 33 q 313 138 313 92 q 205 417 313 225 z "},"ℛ":{"ha":1176,"x_min":98,"x_max":1142,"o":"m 1014 1052 q 1107 987 1073 1029 q 1142 903 1142 945 q 1074 774 1142 833 q 882 689 1006 715 q 935 573 935 642 q 907 431 935 526 q 892 361 892 376 q 909 342 892 342 q 955 359 926 342 q 1049 432 983 376 q 1117 480 1107 480 q 1128 472 1128 480 q 1083 426 1128 463 l 1000 359 q 922 311 962 328 q 849 295 881 295 q 778 323 806 295 q 751 397 751 351 q 800 535 751 450 q 833 607 820 571 q 847 657 847 643 q 836 680 847 672 l 821 680 q 766 705 766 680 q 803 727 766 727 q 857 710 832 727 q 983 795 937 724 q 1030 938 1030 867 q 1014 994 1030 966 q 970 1033 998 1021 q 746 686 836 985 q 576 403 692 506 q 295 300 460 300 q 152 341 206 300 q 98 448 98 382 q 129 529 98 496 q 203 563 159 563 q 250 544 231 563 q 269 497 269 524 q 250 451 269 470 q 198 427 231 433 q 156 395 156 418 q 195 350 156 370 q 285 330 233 330 q 428 400 369 330 q 562 616 488 471 q 665 800 619 728 q 776 935 710 871 q 938 1048 842 998 q 784 1065 865 1065 q 524 1015 651 1065 q 321 887 397 965 q 244 736 244 808 q 267 676 244 699 q 326 652 290 652 q 489 759 403 652 q 574 946 574 865 q 572 965 574 954 q 571 977 571 973 l 591 984 q 608 903 608 953 q 534 696 608 774 q 349 618 459 618 q 252 649 288 618 q 215 729 215 680 q 269 871 215 801 q 419 994 322 942 q 625 1068 515 1045 q 802 1091 734 1091 q 979 1067 871 1091 q 1047 1086 1017 1082 q 1052 1063 1052 1075 q 1014 1052 1031 1059 z "},"ℜ":{"ha":882,"x_min":64,"x_max":853,"o":"m 853 394 l 723 296 q 660 363 678 329 q 642 472 642 398 l 646 586 q 581 708 646 657 l 473 665 l 473 625 q 459 520 473 572 q 422 439 445 469 q 347 374 399 408 l 224 296 l 143 382 l 106 358 l 92 374 l 220 454 l 301 370 q 341 398 329 383 q 361 451 353 413 q 369 544 369 488 l 369 821 q 359 967 369 921 q 319 1036 349 1013 q 248 1058 288 1058 q 161 1023 200 1058 q 121 947 121 988 q 138 898 121 920 q 191 846 155 875 q 261 720 261 791 q 169 582 261 638 l 163 600 q 204 652 204 622 q 193 689 204 672 q 151 736 181 707 q 84 812 104 779 q 64 879 64 845 q 89 966 64 915 q 163 1048 114 1017 q 279 1080 212 1080 q 388 1055 349 1080 q 452 971 426 1029 q 673 1090 610 1044 q 793 999 769 1037 q 817 927 817 960 q 673 755 817 822 q 730 682 708 732 q 753 581 753 632 l 750 484 q 761 404 750 422 q 794 386 772 386 q 842 408 814 386 l 853 394 m 473 690 q 673 790 632 752 q 713 883 713 828 q 683 967 713 937 q 602 998 653 998 q 459 950 541 998 q 473 857 473 901 l 473 690 z "},"℞":{"ha":853,"x_min":26,"x_max":807,"o":"m 807 303 l 658 303 l 559 413 q 514 351 514 365 q 542 325 514 325 l 542 303 l 398 303 l 398 325 q 459 353 429 326 q 539 436 490 380 l 330 670 l 250 670 l 250 454 q 254 371 250 395 q 279 336 259 347 q 349 325 300 325 l 349 303 l 26 303 l 26 325 q 104 336 81 325 q 133 371 127 347 q 138 454 138 395 l 138 938 q 133 1021 138 997 q 104 1056 127 1045 q 26 1067 81 1067 l 26 1089 l 367 1089 q 571 1030 503 1089 q 640 885 640 971 q 589 757 640 810 q 446 685 537 705 l 606 512 q 658 589 658 572 q 616 618 658 618 l 616 640 l 795 640 l 795 618 q 730 598 763 618 q 626 491 698 578 l 741 366 q 807 325 765 340 l 807 303 m 250 707 l 275 707 q 445 752 383 707 q 507 880 507 796 q 462 999 507 952 q 347 1046 418 1046 q 250 1036 320 1046 l 250 707 z "},"℟":{"ha":747,"x_min":26,"x_max":732,"o":"m 732 302 l 543 302 l 329 595 l 258 332 q 329 321 279 321 l 329 302 l 250 302 l 199 113 l 170 122 l 218 302 l 26 302 l 26 321 q 97 332 76 321 q 122 363 117 342 q 127 438 127 385 l 127 876 q 122 950 127 928 q 97 983 117 972 q 26 993 76 993 l 26 1012 l 334 1012 q 407 1007 372 1012 l 429 1085 l 186 1149 l 195 1178 l 465 1106 l 436 1000 q 545 932 509 979 q 581 827 581 885 q 534 712 581 760 q 405 647 488 665 q 577 408 554 439 q 637 351 601 377 q 732 321 673 326 l 732 302 m 393 953 q 316 973 359 973 q 228 964 292 973 l 228 667 l 252 667 q 318 673 283 667 l 393 953 m 351 682 q 460 823 460 718 q 418 932 460 890 l 351 682 m 305 627 l 301 633 l 228 633 l 228 438 q 233 360 228 375 l 305 627 z "},"℠":{"ha":1016,"x_min":129,"x_max":879,"o":"m 373 884 q 350 935 370 921 q 287 949 329 949 q 230 936 250 949 q 210 901 210 922 q 227 865 210 877 q 290 842 243 852 q 417 793 387 821 q 447 720 447 766 q 408 636 447 668 q 299 605 369 605 q 178 639 224 605 q 129 735 133 673 l 191 740 q 297 660 197 660 q 360 675 337 660 q 383 716 383 691 q 363 755 383 745 q 275 783 342 766 q 175 827 205 799 q 145 897 145 856 q 183 974 145 944 q 285 1004 220 1004 q 392 974 351 1004 q 435 888 432 944 l 373 884 m 879 611 l 820 611 l 820 935 l 818 935 l 721 611 l 663 611 l 561 941 l 559 941 l 559 611 l 500 611 l 500 998 l 595 998 l 690 689 l 692 689 l 785 998 l 879 998 l 879 611 z "},"℣":{"ha":804,"x_min":14,"x_max":751,"o":"m 751 994 q 697 972 724 993 q 642 882 669 951 l 404 301 l 385 301 l 294 511 l 193 132 l 164 140 l 275 553 l 165 807 q 102 948 111 931 q 73 978 94 965 q 14 994 53 991 l 14 1013 l 298 1013 l 298 994 q 234 976 248 989 q 221 945 221 964 q 239 882 221 922 l 315 704 l 418 1084 l 180 1147 l 188 1176 l 454 1105 l 334 661 l 422 458 l 581 851 q 610 942 610 919 q 536 994 610 986 l 536 1013 l 751 1013 l 751 994 z "},"℥":{"ha":682,"x_min":69,"x_max":616,"o":"m 334 502 q 536 437 455 502 q 616 260 616 372 q 534 72 616 144 q 332 -1 451 -1 q 155 57 226 -1 q 69 220 83 116 l 174 235 q 332 87 196 87 q 456 135 406 87 q 505 258 505 182 q 447 374 505 330 q 292 418 388 418 q 206 414 252 418 l 218 509 l 446 669 l 108 669 l 108 749 l 439 980 l 94 980 l 94 1084 l 594 1084 l 594 1001 l 270 774 l 594 774 l 594 690 l 334 502 z "},"℧":{"ha":936,"x_min":39,"x_max":863,"o":"m 863 926 l 844 926 q 822 978 841 962 q 748 993 802 993 l 595 993 l 595 953 q 779 836 715 919 q 843 638 843 753 q 733 395 843 490 q 451 300 624 300 q 169 395 279 300 q 60 638 60 490 q 123 836 60 753 q 307 953 187 919 l 307 993 l 155 993 q 81 978 100 993 q 58 926 61 962 l 39 926 l 39 1084 l 357 1084 l 345 926 q 225 825 262 899 q 189 650 189 750 q 262 426 189 513 q 451 340 335 340 q 641 426 567 340 q 714 650 714 513 q 677 824 714 749 q 557 926 641 899 l 545 1084 l 863 1084 l 863 926 z "},"ℨ":{"ha":847,"x_min":39,"x_max":796,"o":"m 549 600 q 796 312 796 544 q 695 90 796 181 q 418 -1 595 -1 q 193 138 245 -1 q 114 227 160 227 q 60 161 71 227 l 39 161 q 168 271 59 271 q 323 151 268 271 q 391 54 355 82 q 479 25 427 25 q 663 279 663 25 q 625 511 663 437 q 505 585 587 585 q 380 495 416 585 l 360 505 q 454 595 384 571 q 365 674 392 621 l 381 688 q 490 612 431 612 q 601 666 558 612 q 644 812 644 720 q 590 993 644 926 q 444 1059 537 1059 q 281 1001 351 1059 q 211 863 211 943 q 222 800 211 834 l 205 791 q 188 860 188 837 q 264 1017 188 952 q 457 1081 340 1081 q 678 1010 590 1081 q 766 838 766 939 q 549 600 766 683 z "},"ℬ":{"ha":1182,"x_min":146,"x_max":1157,"o":"m 1067 1044 q 1157 911 1157 994 q 1103 795 1157 850 q 947 705 1048 741 q 1064 551 1064 640 q 973 372 1064 453 q 778 291 882 291 q 696 372 696 291 q 715 436 696 403 q 815 534 734 469 q 832 514 828 528 q 726 367 726 435 q 737 336 726 347 q 765 324 748 324 q 884 416 816 324 q 951 605 951 509 q 907 692 951 667 q 852 681 871 681 q 823 703 823 681 q 836 721 823 714 q 863 727 848 727 q 897 721 872 727 q 916 716 910 718 q 1014 816 978 748 q 1050 947 1050 884 q 1019 1023 1050 1004 q 900 920 957 1003 q 806 710 844 837 q 611 388 737 481 q 338 294 485 294 q 199 335 252 294 q 146 438 146 375 q 176 519 146 484 q 244 553 207 553 q 292 535 273 553 q 312 488 312 517 q 293 443 312 461 q 241 418 274 425 q 198 385 198 412 q 235 337 198 359 q 321 316 273 316 q 438 352 386 316 q 538 472 490 387 q 629 636 587 557 q 756 842 696 764 q 859 954 816 920 q 951 1017 901 989 q 985 1038 977 1031 q 826 1058 927 1058 q 574 1011 694 1058 q 384 890 454 965 q 313 744 313 816 q 335 688 313 709 q 387 667 356 667 q 546 764 452 667 q 649 989 641 860 l 669 990 q 673 943 673 976 q 596 718 673 802 q 407 634 519 634 q 316 663 349 634 q 283 745 283 692 q 358 904 283 823 q 560 1034 433 984 q 825 1084 686 1084 q 1024 1054 939 1084 q 1099 1079 1066 1072 q 1107 1059 1107 1068 q 1067 1044 1088 1050 z "},"ℭ":{"ha":750,"x_min":74,"x_max":704,"o":"m 704 496 q 582 345 652 393 q 414 298 512 298 q 170 408 265 298 q 74 702 74 519 q 133 965 74 863 q 272 1067 193 1067 q 379 976 345 1067 l 467 1084 q 538 1044 510 1057 q 606 1031 566 1031 q 676 1070 646 1031 l 693 1061 q 536 960 621 960 q 482 967 505 960 q 420 996 460 974 q 395 962 408 981 q 382 923 382 943 q 441 779 382 867 q 503 631 503 687 q 399 448 503 541 l 387 465 q 418 502 410 486 q 426 543 426 518 q 372 677 426 595 q 316 825 316 760 q 362 954 316 885 q 331 1021 354 1000 q 280 1043 308 1043 q 192 981 220 1043 q 163 787 163 918 q 235 492 163 600 q 428 385 306 385 q 686 506 607 385 l 704 496 z "},"ℯ":{"ha":534,"x_min":43,"x_max":553,"o":"m 553 481 q 207 293 365 293 q 90 331 136 293 q 43 426 43 370 q 98 566 43 485 q 236 701 153 647 q 400 754 319 754 q 481 727 450 754 q 511 655 511 699 q 415 524 511 587 q 228 461 318 461 l 197 461 q 174 379 174 416 q 222 323 174 323 q 351 362 281 323 q 534 501 420 400 l 553 501 l 553 481 m 210 493 q 228 492 216 492 q 366 564 291 492 q 440 694 440 637 q 411 724 440 724 q 210 493 334 724 z "},"ℰ":{"ha":833,"x_min":104,"x_max":808,"o":"m 419 772 q 359 901 359 829 q 439 1033 359 979 q 616 1087 519 1087 q 756 1047 705 1087 q 808 941 808 1008 q 770 839 808 883 q 686 795 732 795 q 628 820 652 795 q 603 880 603 845 q 697 995 603 945 l 708 977 q 643 865 643 927 q 683 821 643 821 q 752 858 721 821 q 783 943 783 895 q 749 1022 783 989 q 667 1054 715 1054 q 530 987 589 1054 q 470 842 470 921 q 482 779 470 810 q 558 774 534 779 q 597 756 582 768 q 613 730 613 743 q 601 710 613 718 q 571 703 589 703 q 450 747 511 703 q 305 640 375 729 q 235 449 235 551 q 353 319 235 319 q 540 387 454 319 q 625 532 625 454 q 607 583 625 564 q 559 602 589 602 q 456 538 501 602 q 412 422 412 474 q 417 391 412 411 q 390 382 408 386 q 377 446 377 413 q 427 578 377 529 q 550 627 477 627 q 626 601 597 627 q 655 532 655 575 q 563 369 655 445 q 359 293 471 293 q 181 360 257 293 q 104 515 104 428 q 193 681 104 606 q 419 772 282 756 m 499 756 q 529 735 507 745 q 565 724 551 724 q 579 733 579 724 q 559 750 579 743 q 515 758 539 758 l 499 756 z "},"ℱ":{"ha":1044,"x_min":49,"x_max":1053,"o":"m 1053 1068 q 892 959 988 959 q 740 1002 841 959 q 636 1039 670 1031 q 576 1047 602 1047 q 414 999 500 1047 q 271 881 328 951 q 214 753 214 810 q 235 690 214 715 q 288 665 257 665 q 426 752 359 665 q 493 961 493 840 q 489 985 493 974 l 500 991 q 528 866 528 948 q 463 704 528 769 q 307 640 398 640 q 217 669 250 640 q 184 745 184 699 q 255 903 184 821 q 438 1036 326 984 q 659 1088 551 1088 q 834 1065 722 1088 q 953 1047 918 1047 q 1038 1078 1008 1047 l 1053 1068 m 736 643 q 821 751 767 751 q 846 723 846 751 q 768 629 846 666 q 732 500 764 550 l 665 493 q 688 534 670 505 q 728 617 719 585 q 663 611 690 611 q 547 419 606 480 q 403 325 488 358 q 231 292 318 292 q 100 332 151 292 q 49 432 49 371 q 78 513 49 480 q 147 546 106 546 q 192 528 174 546 q 210 482 210 509 q 194 441 210 453 q 121 407 179 429 q 101 396 104 400 q 98 385 98 392 q 135 335 98 356 q 221 313 172 313 q 371 378 311 313 q 516 604 431 444 q 322 526 422 595 q 310 543 312 532 q 526 629 414 625 q 789 953 635 864 l 799 941 q 708 741 749 872 q 671 636 686 672 l 680 636 q 736 643 697 636 z "},"Ⅎ":{"ha":630,"x_min":65,"x_max":595,"o":"m 595 304 l 65 304 l 65 398 l 491 398 l 491 642 l 123 642 l 123 735 l 491 735 l 491 1090 l 595 1090 l 595 304 z "},"ℳ":{"ha":1456,"x_min":50,"x_max":1451,"o":"m 1451 1066 q 1216 654 1345 916 q 1087 345 1087 393 q 1105 328 1087 328 q 1270 433 1142 328 q 1328 476 1322 476 q 1337 468 1337 476 q 1287 411 1337 458 q 1178 329 1237 364 q 1077 294 1119 294 q 1013 324 1036 294 q 991 409 991 354 q 1088 665 991 507 q 1373 1022 1185 822 q 1186 859 1272 951 q 1023 662 1099 767 q 840 397 946 557 q 780 315 800 336 q 733 294 760 294 q 680 333 700 294 q 660 429 660 371 q 682 545 660 484 q 749 679 704 606 q 873 860 793 752 l 993 1023 q 872 907 935 973 q 677 671 810 842 q 509 458 574 538 q 375 334 444 377 q 224 290 307 290 q 100 331 149 290 q 50 432 50 371 q 80 513 50 479 q 151 546 110 546 q 197 527 180 546 q 214 478 214 509 q 146 413 214 423 q 104 383 104 406 q 143 337 104 358 q 225 317 183 317 q 331 346 274 317 q 438 426 388 376 q 671 704 488 477 q 880 950 802 866 q 1048 1086 959 1034 q 1072 1062 1063 1076 q 893 727 1010 995 q 762 345 776 460 q 878 504 795 385 q 1044 732 971 637 q 1215 923 1117 826 q 1429 1090 1314 1019 q 1451 1066 1445 1079 z "},"℉":{"ha":982,"x_min":30,"x_max":976,"o":"m 616 1040 l 616 720 l 638 720 q 722 735 690 720 q 778 787 755 751 q 808 888 800 824 l 827 888 l 827 495 l 808 495 q 748 643 797 607 q 638 678 700 678 l 616 678 l 616 439 q 623 364 616 379 q 648 338 629 349 q 700 328 668 328 l 726 328 l 726 305 l 318 305 l 318 328 l 344 328 q 399 338 378 328 q 421 366 414 347 q 429 439 429 380 l 429 951 q 422 1026 429 1010 q 396 1052 415 1041 q 344 1063 377 1063 l 318 1063 l 318 1085 l 976 1085 l 976 862 l 952 862 q 911 977 944 939 q 815 1031 878 1015 q 688 1040 781 1040 l 616 1040 m 150 1133 q 235 1098 200 1133 q 271 1012 271 1062 q 235 927 271 963 q 150 892 200 892 q 65 927 100 892 q 30 1012 30 963 q 65 1098 30 1062 q 150 1133 100 1133 m 150 1089 q 96 1066 118 1089 q 74 1012 74 1044 q 97 959 74 981 q 150 937 119 937 q 204 959 182 937 q 227 1012 227 981 q 204 1066 227 1044 q 150 1089 182 1089 z "},"℃":{"ha":828,"x_min":24,"x_max":751,"o":"m 751 998 l 751 762 l 731 762 q 641 903 707 854 q 494 952 576 952 q 368 916 425 952 q 283 819 310 880 q 250 652 250 745 q 274 486 250 561 q 352 373 299 412 q 490 335 406 335 q 617 363 559 335 q 739 460 675 391 l 739 401 q 610 316 677 342 q 454 289 543 289 q 245 332 336 289 q 103 456 153 374 q 54 629 54 538 q 109 814 54 728 q 258 949 164 900 q 456 998 351 998 q 620 966 534 998 q 684 947 671 947 q 713 959 701 947 q 731 998 726 970 l 751 998 m 137 1202 q 218 1169 184 1202 q 251 1088 251 1135 q 218 1007 251 1041 q 137 974 184 974 q 57 1007 90 974 q 24 1088 24 1041 q 57 1169 24 1135 q 137 1202 90 1202 m 137 1160 q 86 1139 107 1160 q 65 1088 65 1118 q 87 1038 65 1059 q 137 1017 109 1017 q 189 1038 168 1017 q 210 1088 210 1059 q 189 1139 210 1118 q 137 1160 168 1160 z "},"‛":{"ha":425,"x_min":102,"x_max":322,"o":"m 302 718 q 152 812 202 746 q 102 958 102 879 q 138 1064 102 1025 q 223 1103 173 1103 q 294 1074 267 1103 q 322 1009 322 1045 q 298 946 322 973 q 239 918 274 918 q 196 928 212 918 q 186 932 189 932 q 174 913 174 932 q 205 817 174 864 q 302 743 237 770 l 302 718 z "},"‾":{"ha":388,"x_min":-27,"x_max":416,"o":"m -27 1027 l 416 1027 l 416 932 l -27 932 l -27 1027 z "},"₤":{"ha":601,"x_min":24,"x_max":572,"o":"m 176 599 l 28 599 l 28 680 l 151 680 q 137 739 146 699 l 28 739 l 28 821 l 127 821 q 126 849 126 840 q 190 1031 126 955 q 349 1107 253 1107 q 473 1063 420 1107 q 526 964 526 1019 q 504 905 526 928 q 450 883 483 883 q 392 906 412 883 q 372 964 372 930 q 373 994 372 970 q 374 1013 374 1004 q 327 1068 374 1068 q 278 998 278 1068 q 304 821 278 958 l 440 821 l 440 739 l 316 739 q 320 680 319 703 l 440 680 l 440 599 l 321 599 q 294 450 318 524 q 420 437 350 437 q 549 500 532 437 l 572 500 q 519 338 572 392 q 394 283 467 283 q 248 351 325 283 q 130 283 201 283 q 52 314 79 283 q 24 379 24 345 q 54 450 24 416 q 146 483 84 483 q 204 473 172 483 q 176 599 201 522 m 197 394 q 127 422 160 422 q 85 409 101 422 q 70 376 70 395 q 86 343 70 355 q 120 331 102 331 q 197 394 172 331 z "},"℮":{"ha":729,"x_min":61,"x_max":674,"o":"m 195 608 l 195 392 q 368 322 269 322 q 597 465 515 322 l 638 440 q 520 319 581 357 q 368 280 460 280 q 146 373 231 280 q 61 608 61 466 q 146 843 61 751 q 368 935 232 935 q 580 853 492 935 q 674 608 668 770 l 195 608 m 541 650 l 541 823 q 366 893 467 893 q 195 822 265 893 l 195 650 l 541 650 z "},"⅛":{"ha":901,"x_min":49,"x_max":878,"o":"m 246 1102 l 246 770 q 254 714 246 726 q 297 703 262 703 l 314 703 l 314 685 l 56 685 l 56 703 l 75 703 q 123 713 114 703 q 133 770 133 724 l 133 978 q 127 1017 133 1008 q 105 1025 121 1025 q 59 1014 89 1025 l 49 1032 l 226 1102 l 246 1102 m 770 1102 l 212 265 l 133 265 l 690 1102 l 770 1102 m 794 503 q 878 386 878 450 q 831 299 878 332 q 713 265 785 265 q 603 295 644 265 q 562 370 562 326 q 651 471 562 430 q 589 525 608 500 q 570 584 570 549 q 613 659 570 628 q 725 690 655 690 q 834 660 798 690 q 869 593 869 631 q 794 503 869 538 m 755 525 q 776 591 776 549 q 724 663 776 663 q 690 650 704 663 q 675 616 675 637 q 755 525 675 565 m 687 452 q 663 371 663 422 q 719 291 663 291 q 756 306 741 291 q 771 347 771 320 q 740 412 771 382 q 687 452 709 443 z "},"⅜":{"ha":897,"x_min":21,"x_max":873,"o":"m 114 887 l 114 903 q 204 979 204 920 q 186 1019 204 1002 q 140 1036 169 1036 q 61 989 93 1036 l 37 998 q 193 1102 90 1102 q 278 1075 245 1102 q 312 1013 312 1048 q 256 935 312 964 q 334 830 334 899 q 282 723 334 771 q 134 675 230 675 q 21 726 21 675 q 35 753 21 743 q 66 764 48 764 q 90 759 80 764 q 130 732 99 755 q 188 710 161 710 q 228 728 214 710 q 243 767 243 746 q 213 839 243 804 q 114 887 183 874 m 766 1102 l 208 265 l 131 265 l 685 1102 l 766 1102 m 789 503 q 873 386 873 450 q 826 299 873 332 q 709 265 780 265 q 598 295 639 265 q 557 370 557 326 q 646 471 557 430 q 585 525 604 500 q 566 584 566 549 q 608 659 566 628 q 720 690 651 690 q 829 660 793 690 q 865 593 865 631 q 789 503 865 538 m 750 525 q 771 591 771 549 q 720 663 771 663 q 685 649 698 663 q 671 616 671 636 q 750 525 671 565 m 684 452 q 659 371 659 422 q 714 291 659 291 q 751 306 736 291 q 766 347 766 320 q 736 412 766 382 q 684 452 705 443 z "},"⅝":{"ha":898,"x_min":29,"x_max":873,"o":"m 768 1102 l 209 265 l 132 265 l 687 1102 l 768 1102 m 115 1094 l 347 1094 l 309 1010 l 126 1010 l 113 977 q 280 932 214 974 q 345 827 345 890 q 290 721 345 766 q 149 675 235 675 q 65 691 98 675 q 33 728 33 706 q 46 754 33 744 q 77 764 60 764 q 153 734 104 764 q 211 713 188 713 q 254 731 237 713 q 271 772 271 749 q 214 852 271 820 q 65 884 157 884 q 29 883 52 884 l 115 1094 m 791 503 q 873 386 873 450 q 828 299 873 332 q 711 265 782 265 q 600 295 640 265 q 559 370 559 326 q 648 471 559 430 q 585 525 604 500 q 566 584 566 549 q 610 659 566 628 q 722 690 653 690 q 831 660 795 690 q 867 593 867 631 q 791 503 867 538 m 751 525 q 772 591 772 549 q 720 663 772 663 q 686 649 699 663 q 672 616 672 636 q 751 525 672 565 m 684 452 q 660 371 660 422 q 716 291 660 291 q 753 306 737 291 q 768 347 768 320 q 737 412 768 382 q 684 452 706 443 z "},"⅞":{"ha":899,"x_min":30,"x_max":874,"o":"m 746 1102 l 189 265 l 111 265 l 667 1102 l 746 1102 m 130 675 l 256 1008 l 168 1008 q 95 999 120 1008 q 56 961 71 989 l 30 961 l 66 1094 l 357 1094 l 198 675 l 130 675 m 791 503 q 874 386 874 450 q 828 299 874 332 q 711 265 781 265 q 601 295 642 265 q 559 370 559 325 q 648 471 559 429 q 586 525 604 500 q 567 584 567 549 q 611 660 567 630 q 722 690 656 690 q 831 660 795 690 q 867 593 867 631 q 791 503 867 538 m 752 525 q 772 591 772 549 q 720 663 772 663 q 687 650 701 663 q 672 616 672 637 q 752 525 672 565 m 684 452 q 660 371 660 422 q 717 291 660 291 q 753 306 738 291 q 768 347 768 320 q 738 412 768 382 q 684 452 707 443 z "},"":{"ha":436,"x_min":82,"x_max":241,"o":"m 96 14 l 96 31 q 190 125 190 63 q 180 141 190 141 q 173 138 178 141 q 143 132 161 132 q 98 150 115 132 q 82 187 82 169 q 101 229 82 210 q 153 249 121 249 q 216 223 191 249 q 241 157 241 198 q 96 14 241 47 z "},"":{"ha":429,"x_min":0,"x_max":0,"o":""},"΄":{"ha":463,"x_min":0,"x_max":0,"o":""},"΅":{"ha":371,"x_min":0,"x_max":0,"o":""},"Ά":{"ha":862,"x_min":0,"x_max":0,"o":""},"Έ":{"ha":944,"x_min":0,"x_max":0,"o":""},"Ή":{"ha":1070,"x_min":0,"x_max":0,"o":""},"Ί":{"ha":611,"x_min":0,"x_max":0,"o":""},"Ό":{"ha":919,"x_min":0,"x_max":0,"o":""},"Ύ":{"ha":1015,"x_min":0,"x_max":0,"o":""},"Ώ":{"ha":945,"x_min":0,"x_max":0,"o":""},"ΐ":{"ha":373,"x_min":0,"x_max":0,"o":""},"Α":{"ha":1003,"x_min":0,"x_max":0,"o":""},"Β":{"ha":926,"x_min":0,"x_max":0,"o":""},"Δ":{"ha":755,"x_min":0,"x_max":0,"o":""},"Ε":{"ha":926,"x_min":0,"x_max":0,"o":""},"Ζ":{"ha":926,"x_min":0,"x_max":0,"o":""},"Η":{"ha":1080,"x_min":0,"x_max":0,"o":""},"Ι":{"ha":541,"x_min":0,"x_max":0,"o":""},"Κ":{"ha":1080,"x_min":0,"x_max":0,"o":""},"Λ":{"ha":854,"x_min":0,"x_max":0,"o":""},"Μ":{"ha":1311,"x_min":0,"x_max":0,"o":""},"Ν":{"ha":1003,"x_min":0,"x_max":0,"o":""},"Ξ":{"ha":827,"x_min":0,"x_max":0,"o":""},"Ο":{"ha":1080,"x_min":0,"x_max":0,"o":""},"Π":{"ha":1080,"x_min":0,"x_max":0,"o":""},"Ρ":{"ha":848,"x_min":0,"x_max":0,"o":""},"Σ":{"ha":784,"x_min":0,"x_max":0,"o":""},"Τ":{"ha":926,"x_min":0,"x_max":0,"o":""},"Υ":{"ha":1003,"x_min":0,"x_max":0,"o":""},"Χ":{"ha":1003,"x_min":0,"x_max":0,"o":""},"Ψ":{"ha":932,"x_min":0,"x_max":0,"o":""},"Ω":{"ha":966,"x_min":0,"x_max":0,"o":""},"Ϊ":{"ha":475,"x_min":0,"x_max":0,"o":""},"Ϋ":{"ha":865,"x_min":0,"x_max":0,"o":""},"ά":{"ha":679,"x_min":0,"x_max":0,"o":""},"έ":{"ha":513,"x_min":0,"x_max":0,"o":""},"ή":{"ha":687,"x_min":0,"x_max":0,"o":""},"ί":{"ha":373,"x_min":0,"x_max":0,"o":""},"ΰ":{"ha":622,"x_min":0,"x_max":0,"o":""},"β":{"ha":644,"x_min":0,"x_max":0,"o":""},"γ":{"ha":557,"x_min":0,"x_max":0,"o":""},"ζ":{"ha":498,"x_min":0,"x_max":0,"o":""},"η":{"ha":688,"x_min":0,"x_max":0,"o":""},"θ":{"ha":636,"x_min":0,"x_max":0,"o":""},"ι":{"ha":374,"x_min":0,"x_max":0,"o":""},"κ":{"ha":662,"x_min":0,"x_max":0,"o":""},"λ":{"ha":584,"x_min":0,"x_max":0,"o":""},"μ":{"ha":687,"x_min":0,"x_max":0,"o":""},"ν":{"ha":533,"x_min":0,"x_max":0,"o":""},"ξ":{"ha":536,"x_min":0,"x_max":0,"o":""},"ο":{"ha":694,"x_min":0,"x_max":0,"o":""},"ρ":{"ha":654,"x_min":0,"x_max":0,"o":""},"ς":{"ha":509,"x_min":0,"x_max":0,"o":""},"υ":{"ha":625,"x_min":0,"x_max":0,"o":""},"χ":{"ha":548,"x_min":0,"x_max":0,"o":""},"ψ":{"ha":824,"x_min":0,"x_max":0,"o":""},"ω":{"ha":884,"x_min":0,"x_max":0,"o":""},"ϊ":{"ha":376,"x_min":0,"x_max":0,"o":""},"ϋ":{"ha":627,"x_min":0,"x_max":0,"o":""},"ό":{"ha":604,"x_min":0,"x_max":0,"o":""},"ύ":{"ha":627,"x_min":0,"x_max":0,"o":""},"ώ":{"ha":882,"x_min":0,"x_max":0,"o":""},"Ё":{"ha":807,"x_min":0,"x_max":0,"o":""},"Ђ":{"ha":963,"x_min":0,"x_max":0,"o":""},"Ѓ":{"ha":768,"x_min":0,"x_max":0,"o":""},"Є":{"ha":822,"x_min":0,"x_max":0,"o":""},"Ѕ":{"ha":772,"x_min":0,"x_max":0,"o":""},"І":{"ha":541,"x_min":0,"x_max":0,"o":""},"Ї":{"ha":475,"x_min":0,"x_max":0,"o":""},"Ј":{"ha":694,"x_min":0,"x_max":0,"o":""},"Љ":{"ha":1198,"x_min":0,"x_max":0,"o":""},"Њ":{"ha":1200,"x_min":0,"x_max":0,"o":""},"Ћ":{"ha":962,"x_min":0,"x_max":0,"o":""},"Ќ":{"ha":868,"x_min":0,"x_max":0,"o":""},"Ў":{"ha":875,"x_min":0,"x_max":0,"o":""},"Џ":{"ha":934,"x_min":0,"x_max":0,"o":""},"А":{"ha":1003,"x_min":0,"x_max":0,"o":""},"Б":{"ha":795,"x_min":0,"x_max":0,"o":""},"В":{"ha":926,"x_min":0,"x_max":0,"o":""},"Г":{"ha":884,"x_min":0,"x_max":0,"o":""},"Д":{"ha":821,"x_min":0,"x_max":0,"o":""}}}
